<svg width="140" height="140" viewBox="0 0 140 140" fill="none" xmlns="http://www.w3.org/2000/svg">
<path d="M136.322 91.5603C134.513 77.9139 129.629 63.7845 127.519 52.1911C125.348 40.3561 126.072 26.8909 119.258 16.5051C107.5 -1.36808 81.5127 0.80568 62.9414 0.02071C43.7068 -0.824643 34.6021 24.4152 26.462 38.0616C13.3174 60.1011 1.55961 84.3145 0.0522004 110.4C-0.611061 121.872 5.0568 133.224 16.4528 136.968C28.7533 141.013 41.9582 140.108 54.6808 139.323C76.9302 137.934 110.274 145.784 127.579 127.548C136.865 117.706 138.071 104.844 136.322 91.5603Z" fill="#E4E4E4"/>
<path d="M111 44.6629C111 42.6397 109.36 41 107.337 41H39.6629C37.6399 41 36 42.6397 36 44.6629V47.5093H111V44.6629Z" fill="#EFEFEE"/>
<path d="M36 47.511V94.6203C36 96.6434 37.6399 98.2832 39.6629 98.2832H107.337C109.36 98.2832 111 96.6434 111 94.6203V47.511H36Z" fill="white"/>
<path d="M43.0416 44.2367C43.0416 45.161 42.2924 45.9102 41.3684 45.9102C40.4443 45.9102 39.6953 45.161 39.6953 44.2367C39.6953 43.3129 40.4443 42.5638 41.3684 42.5638C42.2924 42.5638 43.0416 43.3129 43.0416 44.2367Z" fill="#F14450"/>
<path d="M49.088 44.2367C49.088 45.161 48.3394 45.9102 47.4151 45.9102C46.4914 45.9102 45.7422 45.161 45.7422 44.2367C45.7422 43.3129 46.4914 42.5638 47.4151 42.5638C48.3394 42.5638 49.088 43.3129 49.088 44.2367Z" fill="#FBC839"/>
<path d="M55.1003 44.2367C55.1003 45.161 54.3511 45.9102 53.4274 45.9102C52.5031 45.9102 51.7539 45.161 51.7539 44.2367C51.7539 43.3129 52.5031 42.5638 53.4274 42.5638C54.3511 42.5638 55.1003 43.3129 55.1003 44.2367Z" fill="#23B152"/>
<path d="M72.6432 83.8729C69.5823 83.8729 66.7815 82.7429 64.6309 80.8809L82.4031 64.2003C83.9713 66.2603 84.9049 68.8285 84.9049 71.6117C84.9049 78.3728 79.4043 83.8729 72.6432 83.8729ZM72.6432 59.3499C75.5031 59.3499 78.1345 60.3369 80.2224 61.9834L62.5533 78.5671C61.1856 76.589 60.382 74.1928 60.382 71.6117C60.382 64.8505 65.8826 59.3499 72.6432 59.3499ZM72.6432 56.2414C64.1682 56.2414 57.2734 63.1362 57.2734 71.6117C57.2734 80.0866 64.1682 86.9814 72.6432 86.9814C81.1187 86.9814 88.0135 80.0866 88.0135 71.6117C88.0135 63.1362 81.1187 56.2414 72.6432 56.2414Z" fill="#EA2E39"/>
<path d="M72.4171 101.89C72.6539 101.938 72.8885 101.779 72.9404 101.531C72.993 101.283 72.8436 101.043 72.6065 100.994C72.3708 100.944 72.136 101.105 72.084 101.353C72.0309 101.6 72.1809 101.841 72.4171 101.89ZM89.0381 105.345C89.2858 105.396 89.5294 105.238 89.5819 104.991C89.6344 104.743 89.4753 104.5 89.2274 104.449C88.9797 104.397 88.7361 104.556 88.6836 104.804C88.6312 105.051 88.7901 105.293 89.0381 105.345ZM91.9609 106.742C92.0034 106.854 92.0671 106.931 92.1485 107.006C92.1645 107.022 92.1809 107.037 92.1991 107.051C92.3202 107.142 92.4634 107.228 92.6139 107.302C92.7273 107.007 92.8906 106.706 93.1418 106.432C93.3868 106.17 93.7085 106.025 94.1196 106.081C94.1536 106.086 94.1883 106.097 94.2226 106.104C94.1517 105.89 94.0274 105.68 93.8279 105.509C93.6301 105.33 93.4035 105.201 93.1778 105.117C93.2156 105.457 93.1176 105.784 92.9256 106.037C92.7127 106.322 92.3953 106.507 92.0943 106.625C92.0474 106.644 92.0062 106.658 91.9614 106.675L91.952 106.721C91.9552 106.727 91.9573 106.736 91.9609 106.742ZM92.088 106.077C92.2275 105.993 92.3517 105.888 92.4286 105.737C92.5403 105.519 92.5691 105.262 92.4946 105.019C92.4255 105.027 92.3614 105.041 92.3025 105.063L92.088 106.077ZM93.2231 107.506C93.4315 107.533 93.6305 107.496 93.8043 107.382C94.0293 107.236 94.1858 107.015 94.2542 106.754C94.2052 106.736 94.1553 106.709 94.1084 106.7C93.8779 106.66 93.6866 106.717 93.526 106.849C93.322 107.031 93.1761 107.248 93.0871 107.475C93.1323 107.485 93.1781 107.5 93.2231 107.506ZM94.7853 107.098C94.6538 107.432 94.4148 107.698 94.0964 107.872C93.7816 108.045 93.431 108.076 93.0835 108.019C93.052 108.013 93.0225 108.002 92.9909 107.995C92.9958 108.136 93.0243 108.275 93.0816 108.405L93.1192 108.481C93.2116 108.653 93.3293 108.812 93.4598 108.955C93.6492 108.683 93.9115 108.45 94.2306 108.279C94.5775 108.103 94.9752 108.109 95.3565 108.3C95.3613 108.095 95.3224 107.884 95.2163 107.679C95.1075 107.454 94.9535 107.26 94.7853 107.098ZM94.0191 109.376C94.2197 109.458 94.4207 109.462 94.6137 109.386C94.8653 109.289 95.066 109.104 95.1974 108.876C94.9493 108.724 94.7014 108.695 94.4705 108.797C94.2236 108.91 94.0283 109.09 93.8931 109.305C93.9353 109.328 93.9765 109.358 94.0191 109.376ZM95.9498 109.866C95.8713 109.654 95.7607 109.456 95.6319 109.284C95.4356 109.571 95.1554 109.796 94.8181 109.921C94.4827 110.048 94.1272 110.03 93.7907 109.887C93.76 109.874 93.7324 109.852 93.702 109.837C93.6847 109.992 93.6951 110.152 93.7405 110.31L93.7704 110.4C93.8503 110.623 93.9636 110.826 94.0973 111.001C94.1204 110.962 94.1373 110.918 94.1631 110.881C94.3768 110.582 94.674 110.379 95.0249 110.31C95.3666 110.241 95.7066 110.281 96.0136 110.412C96.0299 110.233 96.0125 110.047 95.9498 109.866ZM95.1793 111.485C95.4588 111.399 95.6796 111.208 95.8267 110.968C95.6102 110.87 95.3664 110.83 95.1246 110.877C94.9195 110.913 94.752 111.023 94.6258 111.2C94.5858 111.256 94.5549 111.325 94.5235 111.392C94.739 111.518 94.9593 111.554 95.1793 111.485ZM96.2854 111.33C96.0639 111.659 95.7385 111.913 95.3436 112.034C95.0167 112.134 94.6875 112.094 94.3785 111.948C94.3588 112.127 94.3533 112.316 94.3778 112.509L94.393 112.599L94.4162 112.688C94.4737 112.88 94.5606 113.06 94.6598 113.225C94.8736 112.999 95.1412 112.821 95.4557 112.729C95.7992 112.629 96.1553 112.673 96.4797 112.856C96.5346 112.886 96.5837 112.933 96.6365 112.971C96.6907 112.76 96.6959 112.533 96.6273 112.306C96.6098 112.246 96.5828 112.189 96.561 112.131C96.5575 112.069 96.5589 112.008 96.5501 111.944C96.523 111.711 96.4246 111.504 96.2854 111.33ZM95.1912 113.79C95.3827 113.898 95.5811 113.922 95.781 113.864C96.0164 113.794 96.2176 113.657 96.3705 113.481C96.3163 113.436 96.2622 113.387 96.2043 113.356C96.0122 113.249 95.814 113.223 95.6143 113.281C95.3775 113.349 95.1752 113.485 95.0223 113.662C95.0776 113.709 95.1325 113.757 95.1912 113.79ZM96.736 113.922C96.5213 114.147 96.2515 114.322 95.9384 114.415C95.5946 114.517 95.2393 114.475 94.9168 114.294C94.8612 114.264 94.8115 114.216 94.7588 114.177C94.7127 114.358 94.7013 114.551 94.7425 114.745L94.7683 114.843C94.8347 115.065 94.9344 115.267 95.0498 115.445C95.2654 115.174 95.5579 114.966 95.9031 114.863C96.2457 114.759 96.6008 114.798 96.9262 114.968C96.955 114.983 96.9799 115.008 97.0079 115.024C97.0422 114.838 97.0391 114.644 96.9789 114.454C96.9197 114.264 96.8334 114.086 96.736 113.922ZM98.7354 119.589C98.6187 119.936 98.4044 120.283 98.0813 120.543C97.8158 120.756 97.4928 120.841 97.135 120.787C97.1924 120.98 97.2695 121.176 97.3771 121.371L97.4312 121.459L97.4917 121.543C97.634 121.725 97.8285 121.868 98.0144 121.98C98.0704 121.657 98.2154 121.368 98.4565 121.143C98.7166 120.899 99.0573 120.774 99.4061 120.745C99.466 120.74 99.5246 120.748 99.5841 120.749C99.5455 120.561 99.4648 120.394 99.3253 120.26C99.2929 120.218 99.2533 120.183 99.2168 120.144C99.1951 120.093 99.1787 120.041 99.153 119.994C99.0595 119.814 98.9122 119.683 98.7354 119.589ZM98.8184 122.215C99.0505 122.196 99.2216 122.093 99.3441 121.925C99.488 121.725 99.5683 121.497 99.5983 121.28C99.5308 121.281 99.4627 121.279 99.3958 121.291C99.1873 121.313 99.0098 121.391 98.8696 121.547C98.7047 121.73 98.6021 121.96 98.5896 122.199C98.6672 122.209 98.7464 122.222 98.8184 122.215ZM100.057 121.615C100.01 121.82 99.9349 122.035 99.8177 122.238C99.6469 122.541 99.3407 122.782 98.9532 122.817C98.8876 122.823 98.8182 122.824 98.7473 122.822C98.8438 123.011 98.9834 123.189 99.1961 123.309L99.3004 123.369C99.4409 123.447 99.5846 123.511 99.7252 123.563C99.8364 123.592 99.9453 123.603 100.053 123.615C99.931 123.269 99.9534 122.912 100.113 122.579C100.266 122.248 100.524 122.036 100.828 121.847C100.855 121.832 100.882 121.821 100.909 121.807C100.811 121.689 100.694 121.597 100.558 121.515C100.411 121.456 100.258 121.402 100.104 121.357C100.091 121.442 100.077 121.529 100.057 121.615ZM101.145 122.268C101.104 122.29 101.06 122.311 101.023 122.332C100.851 122.438 100.718 122.587 100.655 122.786C100.571 123.041 100.591 123.334 100.721 123.579C100.771 123.561 100.82 123.539 100.865 123.511C101.074 123.393 101.184 123.225 101.22 123.021C101.267 122.747 101.222 122.498 101.145 122.268ZM101.278 123.993C101.246 124.01 101.208 124.026 101.174 124.043C101.34 124.147 101.533 124.221 101.746 124.228L101.868 124.234C102.029 124.237 102.189 124.236 102.338 124.208C102.447 124.181 102.546 124.144 102.644 124.107C102.383 123.853 102.24 123.532 102.226 123.162C102.211 122.777 102.365 122.416 102.586 122.11C102.563 122.1 102.541 122.086 102.518 122.078C102.456 122.056 102.392 122.043 102.326 122.038C102.263 122.021 102.198 122.012 102.132 122.014C101.958 122.017 101.785 122.055 101.622 122.088C101.659 122.196 101.693 122.308 101.72 122.425C101.774 122.629 101.807 122.854 101.796 123.088C101.781 123.434 101.623 123.792 101.278 123.993ZM102.803 123.097C102.844 123.359 102.989 123.605 103.201 123.764C103.238 123.726 103.284 123.692 103.311 123.65C103.443 123.456 103.47 123.258 103.415 123.058C103.342 122.794 103.19 122.579 103.014 122.411C102.851 122.632 102.764 122.839 102.803 123.097ZM103.804 124.003C103.989 124.027 104.184 124.015 104.369 123.947L104.477 123.909C104.749 123.816 104.975 123.656 105.157 123.481C105.112 123.467 105.065 123.453 105.023 123.435C104.668 123.29 104.442 123.002 104.348 122.66C104.258 122.33 104.257 121.984 104.314 121.67C104.157 121.67 104.004 121.698 103.867 121.76C103.713 121.82 103.569 121.922 103.436 122.009C103.419 122.02 103.405 122.034 103.388 122.045C103.624 122.271 103.839 122.546 103.967 122.88C104.091 123.208 104.086 123.583 103.872 123.915C103.852 123.945 103.827 123.974 103.804 124.003ZM97.5194 119.509C97.3286 119.591 97.1875 119.736 97.1071 119.951C97.08 120.019 97.0724 120.098 97.0637 120.176C97.312 120.253 97.5465 120.215 97.7283 120.084C97.9746 119.911 98.1137 119.684 98.2093 119.424C97.9832 119.393 97.7508 119.409 97.5194 119.509ZM96.578 119.702C96.7174 119.342 96.9762 119.099 97.3134 118.976C97.6483 118.859 97.9852 118.834 98.3 118.877C98.2896 118.716 98.2475 118.559 98.1611 118.415C98.0499 118.247 97.9335 118.079 97.8044 117.93C97.6171 118.214 97.356 118.464 97.0408 118.626C96.722 118.789 96.3566 118.816 96.0135 118.671C95.9825 118.658 95.9524 118.633 95.9213 118.617C95.919 118.789 95.9481 118.964 96.019 119.136L96.0684 119.232C96.1983 119.466 96.3624 119.672 96.5368 119.839C96.5502 119.793 96.5628 119.746 96.578 119.702ZM96.6469 117.515C96.3984 117.616 96.2046 117.804 96.0783 118.034C96.1218 118.059 96.165 118.093 96.2077 118.11C96.414 118.196 96.6132 118.191 96.8025 118.104C97.05 117.988 97.2429 117.798 97.3732 117.58C97.1257 117.447 96.8802 117.417 96.6469 117.515ZM95.5655 115.959C95.7651 116.063 95.9662 116.079 96.163 116.013C96.4162 115.927 96.6267 115.761 96.779 115.555C96.7388 115.527 96.6995 115.493 96.6589 115.47C96.4664 115.37 96.2685 115.351 96.0693 115.413C95.8102 115.495 95.598 115.661 95.4458 115.873C95.486 115.902 95.5244 115.938 95.5655 115.959ZM95.303 117.033C95.3731 117.255 95.4901 117.453 95.624 117.625C95.8119 117.336 96.0928 117.11 96.4311 116.981C96.8 116.839 97.1777 116.885 97.5451 117.052C97.5618 116.872 97.5437 116.686 97.4816 116.5C97.4114 116.298 97.3057 116.116 97.185 115.954C96.9749 116.216 96.6928 116.428 96.3544 116.556C96.0176 116.678 95.6624 116.659 95.3246 116.485C95.2931 116.47 95.2659 116.442 95.2353 116.424C95.2158 116.59 95.2256 116.764 95.2724 116.936L95.303 117.033ZM104.89 122.479C104.96 122.673 105.097 122.82 105.31 122.907C105.379 122.937 105.457 122.947 105.534 122.958C105.625 122.712 105.601 122.486 105.478 122.296C105.314 122.055 105.084 121.883 104.836 121.779C104.799 122.005 104.813 122.245 104.89 122.479ZM105.03 121.275C105.375 121.415 105.705 121.644 105.959 121.973C106.162 122.248 106.233 122.573 106.16 122.922C106.359 122.878 106.561 122.813 106.746 122.7L106.833 122.646L106.917 122.586C107.101 122.447 107.244 122.282 107.362 122.112C107.056 122.028 106.783 121.865 106.569 121.61C106.341 121.337 106.241 121 106.247 120.634C106.25 120.574 106.264 120.512 106.273 120.45C106.072 120.485 105.881 120.563 105.726 120.694C105.683 120.729 105.647 120.77 105.607 120.808C105.557 120.83 105.505 120.847 105.456 120.874C105.279 120.966 105.138 121.107 105.03 121.275ZM107.002 121.226C107.167 121.405 107.383 121.524 107.616 121.573C107.635 121.501 107.655 121.427 107.658 121.361C107.664 121.135 107.587 120.949 107.44 120.804C107.263 120.637 107.049 120.526 106.827 120.471C106.815 120.539 106.801 120.607 106.799 120.672C106.795 120.885 106.861 121.073 107.002 121.226ZM107.01 119.953C107.303 120.032 107.589 120.174 107.838 120.391C108.103 120.63 108.252 120.95 108.245 121.331C108.245 121.396 108.238 121.462 108.229 121.529C108.413 121.469 108.592 121.373 108.747 121.233L108.819 121.154C108.981 120.97 109.105 120.768 109.195 120.566C108.843 120.546 108.504 120.421 108.235 120.181C107.963 119.949 107.805 119.629 107.764 119.274C107.76 119.243 107.764 119.209 107.763 119.177C107.594 119.249 107.44 119.352 107.318 119.494C107.193 119.636 107.093 119.792 107.01 119.953ZM108.607 119.74C108.814 119.907 109.074 119.984 109.336 119.981C109.337 119.93 109.345 119.876 109.339 119.829C109.314 119.607 109.212 119.436 109.044 119.314C108.822 119.158 108.567 119.082 108.315 119.074C108.315 119.122 108.31 119.173 108.317 119.219C108.348 119.435 108.444 119.612 108.607 119.74ZM108.406 118.524C108.739 118.544 109.075 118.646 109.377 118.843C109.674 119.042 109.87 119.342 109.923 119.722C109.928 119.756 109.92 119.794 109.922 119.829C110.071 119.747 110.208 119.635 110.32 119.489L110.382 119.405C110.521 119.208 110.613 118.993 110.673 118.783C110.326 118.805 109.977 118.72 109.672 118.525C109.342 118.314 109.148 117.986 109.067 117.593C108.908 117.687 108.768 117.811 108.666 117.969C108.554 118.148 108.468 118.336 108.406 118.524ZM109.976 118.034C110.207 118.174 110.474 118.217 110.734 118.179C110.729 118.13 110.73 118.076 110.72 118.031C110.669 117.817 110.545 117.66 110.362 117.56C110.118 117.432 109.852 117.39 109.6 117.416C109.637 117.692 109.758 117.906 109.976 118.034ZM109.62 116.856C109.953 116.831 110.304 116.887 110.627 117.048C110.947 117.208 111.177 117.479 111.278 117.847C111.288 117.881 111.293 117.917 111.3 117.951C111.435 117.853 111.554 117.725 111.646 117.569L111.698 117.478C111.818 117.244 111.885 116.991 111.914 116.752C111.869 116.767 111.825 116.794 111.78 116.805C111.411 116.898 111.064 116.832 110.767 116.631C110.479 116.431 110.26 116.169 110.115 115.881C109.988 115.989 109.883 116.12 109.813 116.275C109.715 116.458 109.655 116.659 109.62 116.856ZM110.609 115.624C110.713 115.831 110.871 116.016 111.077 116.149C111.253 116.259 111.451 116.289 111.67 116.233C111.738 116.215 111.808 116.178 111.877 116.143C111.8 115.899 111.649 115.731 111.436 115.65C111.164 115.55 110.874 115.551 110.609 115.624ZM110.472 115.086C110.84 114.986 111.245 114.982 111.642 115.111C111.964 115.222 112.206 115.447 112.354 115.766C112.486 115.621 112.608 115.458 112.703 115.269L112.744 115.177L112.777 115.083C112.85 114.874 112.877 114.662 112.882 114.458C112.579 114.551 112.254 114.562 111.94 114.469C111.594 114.367 111.328 114.142 111.141 113.833C111.108 113.78 111.087 113.719 111.06 113.663C110.911 113.804 110.793 113.978 110.729 114.177C110.712 114.232 110.705 114.289 110.693 114.344C110.663 114.393 110.63 114.438 110.605 114.49C110.503 114.674 110.464 114.881 110.472 115.086ZM111.535 113.374C111.562 113.438 111.587 113.504 111.62 113.559C111.735 113.741 111.893 113.863 112.094 113.913C112.331 113.977 112.576 113.956 112.798 113.869C112.774 113.8 112.751 113.728 112.717 113.671C112.605 113.48 112.443 113.366 112.239 113.324C111.992 113.277 111.752 113.3 111.535 113.374ZM111.408 112.842C111.695 112.748 112.014 112.709 112.338 112.76C112.692 112.816 112.992 113.004 113.199 113.33C113.235 113.385 113.266 113.444 113.294 113.505C113.417 113.357 113.514 113.179 113.562 112.971L113.584 112.866C113.619 112.619 113.612 112.379 113.577 112.157C113.272 112.338 112.924 112.416 112.565 112.37C112.211 112.326 111.9 112.145 111.663 111.876C111.643 111.852 111.628 111.823 111.608 111.798C111.507 111.945 111.439 112.111 111.419 112.295C111.389 112.48 111.391 112.664 111.408 112.842ZM113.286 111.455C113.136 111.284 112.954 111.202 112.745 111.198C112.473 111.195 112.222 111.281 112.012 111.414C112.041 111.453 112.066 111.496 112.1 111.531C112.241 111.688 112.416 111.781 112.624 111.796C112.896 111.822 113.155 111.738 113.369 111.583C113.341 111.541 113.319 111.491 113.286 111.455ZM111.767 110.925C112.054 110.755 112.392 110.639 112.746 110.623C113.101 110.605 113.449 110.733 113.699 111.019C113.722 111.045 113.738 111.082 113.76 111.11C113.835 110.952 113.882 110.773 113.889 110.579L113.886 110.468C113.88 110.216 113.818 109.978 113.733 109.765C113.478 110.013 113.142 110.159 112.785 110.191C112.389 110.227 112.045 110.083 111.733 109.848C111.724 109.874 111.711 109.897 111.704 109.921C111.658 110.059 111.63 110.206 111.646 110.357C111.671 110.552 111.711 110.744 111.767 110.925ZM113.283 109.125C113.108 108.991 112.898 108.959 112.699 109.008C112.44 109.072 112.209 109.218 112.029 109.397C112.235 109.572 112.466 109.659 112.716 109.619C112.984 109.576 113.215 109.438 113.391 109.233C113.355 109.197 113.321 109.152 113.283 109.125ZM111.415 108.505C111.476 108.68 111.567 108.847 111.674 109C111.901 108.77 112.196 108.568 112.54 108.452C112.881 108.338 113.232 108.368 113.565 108.587C113.595 108.607 113.622 108.641 113.651 108.664C113.678 108.483 113.671 108.289 113.632 108.093C113.623 108.057 113.617 108.019 113.602 107.984C113.491 107.717 113.354 107.473 113.189 107.277C113.173 107.324 113.158 107.371 113.138 107.414C112.965 107.776 112.678 107.985 112.329 108.066C111.986 108.147 111.648 108.131 111.345 108.068C111.333 108.22 111.347 108.37 111.415 108.505ZM111.781 107.582C111.914 107.578 112.049 107.559 112.18 107.516C112.317 107.47 112.427 107.391 112.51 107.28L111.781 107.582ZM110.39 104.775C110.487 105.007 110.756 105.119 110.99 105.021C111.225 104.924 111.335 104.655 111.238 104.422C111.141 104.189 110.873 104.079 110.639 104.176C110.404 104.273 110.293 104.541 110.39 104.775ZM103.894 89.1393C103.987 89.3621 104.252 89.4642 104.486 89.3669C104.72 89.2694 104.835 89.0097 104.742 88.787C104.65 88.5645 104.385 88.463 104.151 88.5605C103.917 88.6578 103.802 88.9168 103.894 89.1393ZM71.2376 101.177C71.4 100.411 72.1243 99.9144 72.8563 100.066C73.5886 100.219 74.0501 100.962 73.8877 101.727C73.1068 105.418 75.418 109.032 79.0401 109.786C81.4535 110.287 83.8445 109.389 85.4054 107.645L85.3485 107.633L86.777 100.885L92.917 102.161L92.5192 104.041C92.6763 104.159 92.8094 104.293 92.9127 104.438C92.9285 104.44 92.9434 104.44 92.9594 104.444C93.372 104.528 93.83 104.741 94.1845 105.065L94.3321 105.204C94.6886 105.583 94.8596 106.021 94.8882 106.421C95.2177 106.662 95.5198 107.009 95.718 107.411C95.7428 107.46 95.7691 107.512 95.7874 107.561C95.9452 107.957 95.9679 108.347 95.8887 108.695C96.141 108.963 96.3525 109.311 96.4824 109.668C96.4995 109.712 96.5139 109.76 96.5256 109.809C96.6081 110.131 96.6014 110.456 96.5319 110.756C96.8047 111.009 97.0118 111.346 97.0876 111.725L97.1132 111.867C97.1202 111.916 97.1165 111.961 97.1208 112.01C97.1375 112.057 97.1591 112.098 97.1725 112.145L97.2075 112.285C97.2909 112.679 97.2342 113.067 97.0808 113.406C97.2709 113.663 97.4247 113.967 97.5235 114.293L97.5579 114.425C97.6295 114.77 97.5966 115.116 97.4808 115.43C97.507 115.46 97.537 115.485 97.5625 115.517C97.7535 115.741 97.9099 116.009 98.0159 116.305L98.0546 116.43C98.1362 116.762 98.1442 117.073 98.06 117.379C98.2993 117.597 98.4924 117.881 98.6636 118.153L98.7208 118.261C98.8089 118.444 98.8512 118.641 98.855 118.846C98.8558 118.907 98.8469 118.971 98.8408 119.033C99.1407 119.164 99.3984 119.359 99.577 119.597C99.5974 119.628 99.6171 119.662 99.6352 119.697C99.6532 119.731 99.662 119.768 99.678 119.805C99.7038 119.833 99.7329 119.856 99.7565 119.886C99.7786 119.918 99.8015 119.947 99.8261 119.97C100.023 120.189 100.098 120.485 100.125 120.795C100.136 120.796 100.147 120.798 100.158 120.799C100.281 120.821 100.396 120.854 100.504 120.898C100.613 120.943 100.728 120.962 100.827 121.015C100.855 121.029 100.883 121.045 100.909 121.062C101.036 121.164 101.158 121.229 101.253 121.372C101.301 121.446 101.349 121.521 101.396 121.6C101.645 121.518 101.894 121.469 102.143 121.448C102.173 121.447 102.204 121.449 102.234 121.451C102.47 121.456 102.707 121.555 102.948 121.703C103.017 121.637 103.091 121.572 103.166 121.521C103.317 121.424 103.482 121.311 103.657 121.234C103.69 121.221 103.724 121.208 103.757 121.197C103.977 121.119 104.23 121.102 104.489 121.132C104.624 120.85 104.813 120.597 105.08 120.441L105.181 120.38C105.216 120.359 105.254 120.35 105.29 120.333C105.319 120.305 105.343 120.275 105.375 120.25L105.47 120.18C105.739 119.991 106.072 119.893 106.421 119.883C106.532 119.614 106.691 119.353 106.895 119.119L106.979 119.026C107.206 118.804 107.496 118.652 107.81 118.575C107.819 118.536 107.82 118.497 107.83 118.459C107.91 118.189 108.03 117.914 108.193 117.656L108.267 117.552C108.471 117.296 108.73 117.102 109.033 116.986C109.063 116.663 109.152 116.326 109.303 116.024L109.365 115.913C109.503 115.672 109.703 115.475 109.936 115.324C109.881 114.992 109.913 114.653 110.047 114.349L110.097 114.235C110.115 114.197 110.142 114.165 110.163 114.129C110.173 114.088 110.176 114.047 110.188 114.006L110.23 113.89C110.371 113.565 110.582 113.301 110.874 113.106C110.821 112.817 110.815 112.513 110.857 112.212L110.88 112.092C110.933 111.786 111.096 111.517 111.31 111.291C111.187 111.007 111.106 110.698 111.079 110.389C111.076 110.351 111.074 110.312 111.074 110.273C111.083 110.079 111.122 109.895 111.181 109.721C111.214 109.629 111.263 109.537 111.32 109.448C111.133 109.216 110.974 108.959 110.882 108.693C110.867 108.662 110.853 108.628 110.842 108.596C110.779 108.432 110.786 108.25 110.795 108.075C110.796 108.047 110.804 108.016 110.808 107.987L108.82 108.813L107.592 105.856C103.709 106.005 100 103.85 98.4662 100.158C96.4793 95.3759 98.8811 89.8159 103.82 87.764C104.544 87.463 105.363 87.7772 105.65 88.4665C105.935 89.1542 105.58 89.9569 104.856 90.2579C101.363 91.709 99.6737 95.6611 101.089 99.0682C102.033 101.339 104.122 102.796 106.443 103.092L106.421 103.037L112.808 100.384L115.208 106.159L113.575 106.837C113.616 106.881 113.659 106.918 113.698 106.965C113.866 107.204 114.016 107.485 114.132 107.781C114.294 108.287 114.269 108.793 114.101 109.199C114.124 109.241 114.153 109.274 114.175 109.319C114.253 109.48 114.323 109.656 114.376 109.844C114.415 110.029 114.442 110.224 114.453 110.425C114.477 110.728 114.421 111.015 114.316 111.268C114.248 111.432 114.163 111.578 114.065 111.712C114.08 111.761 114.103 111.801 114.116 111.851C114.183 112.18 114.209 112.563 114.149 112.942C114.061 113.446 113.801 113.869 113.452 114.147C113.454 114.164 113.457 114.18 113.458 114.198C113.486 114.533 113.442 114.897 113.321 115.249C113.305 115.297 113.28 115.34 113.261 115.388C113.242 115.435 113.231 115.484 113.208 115.53C113.024 115.891 112.777 116.19 112.504 116.416C112.523 116.831 112.415 117.294 112.211 117.723C112 118.135 111.673 118.439 111.303 118.612C111.296 118.657 111.29 118.701 111.28 118.747C111.21 119.07 111.072 119.408 110.858 119.712C110.597 120.102 110.228 120.354 109.835 120.478C109.729 120.835 109.538 121.201 109.247 121.524C108.902 121.892 108.462 122.112 108.013 122.16C107.848 122.47 107.599 122.772 107.276 123.024C107.234 123.057 107.186 123.079 107.143 123.11C107.098 123.139 107.06 123.173 107.013 123.2C106.644 123.412 106.243 123.526 105.869 123.554C105.763 123.702 105.637 123.843 105.478 123.972C105.259 124.156 105.002 124.325 104.702 124.43C104.403 124.549 104.096 124.611 103.789 124.583C103.596 124.568 103.422 124.531 103.255 124.475C103.21 124.502 103.167 124.53 103.118 124.555C102.766 124.696 102.346 124.838 101.879 124.804C101.705 124.798 101.535 124.778 101.372 124.745C101.21 124.703 101.057 124.631 100.916 124.561C100.733 124.467 100.574 124.356 100.441 124.225C100.388 124.228 100.335 124.233 100.28 124.23C99.8925 124.203 99.4335 124.118 99.0483 123.88C98.8989 123.797 98.7588 123.703 98.6317 123.601C98.5095 123.496 98.4165 123.37 98.3279 123.247C98.1975 123.051 98.0876 122.856 98.0321 122.654C98.0172 122.648 98.0029 122.644 97.9881 122.638C97.6779 122.475 97.3358 122.233 97.0676 121.927C97.0341 121.883 97.0108 121.835 96.9809 121.79C96.9512 121.746 96.9164 121.707 96.8887 121.659C96.6904 121.316 96.5528 120.956 96.4866 120.622C96.4813 120.593 96.4815 120.564 96.4778 120.534C96.1157 120.303 95.8181 119.928 95.5692 119.503C95.3266 119.078 95.3111 118.627 95.3932 118.225C95.3604 118.192 95.3253 118.168 95.2938 118.132C95.0673 117.883 94.879 117.572 94.7697 117.233C94.6167 116.805 94.6286 116.379 94.7534 116.003C94.5254 115.729 94.3394 115.391 94.2238 115.007C94.0971 114.565 94.1471 114.124 94.317 113.741C94.1248 113.483 93.9686 113.174 93.8707 112.849C93.8578 112.804 93.856 112.761 93.8466 112.717C93.8373 112.673 93.8214 112.633 93.8151 112.588C93.7718 112.23 93.7916 111.89 93.8639 111.582C93.5928 111.321 93.3709 110.98 93.2374 110.598C93.0989 110.216 93.1012 109.837 93.205 109.488C92.9686 109.271 92.7627 109.011 92.6137 108.739C92.4559 108.437 92.4255 108.139 92.4717 107.826C92.2171 107.719 91.9899 107.592 91.8242 107.477C91.8137 107.47 91.8075 107.459 91.7974 107.451L91.4888 108.91L88.3454 108.256C86.2648 111.535 82.3785 113.374 78.4535 112.558C73.37 111.5 70.1337 106.395 71.2376 101.177ZM113.757 93.8049C114.591 95.8105 114.342 98.0011 113.287 99.7615L114.497 102.672C116.948 100.023 117.816 96.1708 116.38 92.7151C114.686 88.6364 110.337 86.4314 106.03 87.142C106.313 87.377 106.55 87.6711 106.699 88.0306C106.937 88.6048 106.918 89.2227 106.708 89.7753C109.66 89.42 112.588 90.9898 113.757 93.8049ZM73.0914 98.9585C72.7091 98.8789 72.3318 98.9076 71.9759 99.0078C73.8332 95.0643 78.1242 92.7276 82.4604 93.6297C86.1339 94.3928 88.8282 97.276 89.6293 100.783L86.5349 100.14C85.676 98.2809 84.0056 96.8439 81.8739 96.4011C78.8811 95.7784 75.9211 97.3036 74.5402 99.9328C74.2013 99.4483 73.702 99.0854 73.0914 98.9585Z" fill="#616160"/>
</svg>
