<svg width="140" height="140" viewBox="0 0 140 140" fill="none" xmlns="http://www.w3.org/2000/svg">
<path d="M138.452 27.1054C138.096 21.6881 136.598 14.7739 131.605 11.7088C122.903 6.43402 112.347 14.7739 104.287 17.8389C93.66 21.9732 82.3907 24.1829 71.1927 26.4639C52.4342 30.2418 33.6044 33.3068 14.9173 37.2985C2.64936 39.9359 4.21851 58.0412 4.57513 67.3077C5.14573 85.3417 2.57805 103.304 2.00745 121.338C1.79348 127.041 6.21563 130.391 11.6363 129.963C46.5142 127.112 81.7488 121.338 115.628 112.428C125.756 109.791 132.033 105.514 134.244 94.8933C138.737 72.7251 139.807 49.7014 138.452 27.1054Z" fill="#E4E4E4"/>
<path d="M85.6642 117.805L53.0678 117.654C49.1471 117.637 45.9828 114.453 46.0001 110.543L46.3448 29.0513C46.362 25.1398 49.5561 21.9824 53.4784 22.0003L86.0749 22.1505C89.995 22.1683 93.1594 25.3521 93.1426 29.2609L92.7974 110.754C92.7807 114.666 89.586 117.823 85.6642 117.805Z" fill="#252420"/>
<path d="M86.0287 24.9647L79.7081 24.9355C78.861 24.9317 78.171 25.6449 78.1673 26.5288L78.1619 27.6714C78.1586 28.5548 77.4682 29.2685 76.6205 29.2641L64.3019 29.2079C63.4542 29.2036 62.7702 28.484 62.774 27.6006L62.7789 26.4575C62.7826 25.5741 62.0987 24.8545 61.251 24.8507L59.0283 24.8404L53.4971 24.815C50.7498 24.8021 48.5126 27.0134 48.5012 29.7531L48.1641 109.295C48.1522 112.033 50.3684 114.263 53.114 114.275L85.6456 114.425C88.3923 114.438 90.629 112.227 90.6409 109.487L90.9781 29.9443C90.9894 27.2063 88.7743 24.9771 86.0287 24.9647Z" fill="white"/>
<path d="M85.5099 81.2358H53.3203V79.0823H85.5099V81.2358Z" fill="#CCCCCC"/>
<path d="M84.3539 87.5627C84.3539 87.6405 77.4828 87.7031 69.0098 87.7031C60.5325 87.7031 53.6641 87.6405 53.6641 87.5627C53.6641 87.4849 60.5325 87.4216 69.0098 87.4216C77.4828 87.4216 84.3539 87.4849 84.3539 87.5627Z" fill="#CCCCCC"/>
<path d="M84.3539 36.484C84.3539 36.5618 77.4828 36.625 69.0098 36.625C60.5325 36.625 53.6641 36.5618 53.6641 36.484C53.6641 36.4062 60.5325 36.3435 69.0098 36.3435C77.4828 36.3435 84.3539 36.4062 84.3539 36.484Z" fill="#CCCCCC"/>
<path d="M84.3539 91.4855C84.3539 91.5633 77.4828 91.6265 69.0098 91.6265C60.5325 91.6265 53.6641 91.5633 53.6641 91.4855C53.6641 91.4077 60.5325 91.345 69.0098 91.345C77.4828 91.345 84.3539 91.4077 84.3539 91.4855Z" fill="#CCCCCC"/>
<path d="M84.3539 95.404C84.3539 95.4813 77.4828 95.5439 69.0098 95.5439C60.5325 95.5439 53.6641 95.4813 53.6641 95.404C53.6641 95.3257 60.5325 95.263 69.0098 95.263C77.4828 95.263 84.3539 95.3257 84.3539 95.404Z" fill="#CCCCCC"/>
<path d="M84.3539 99.3234C84.3539 99.4007 77.4828 99.4639 69.0098 99.4639C60.5325 99.4639 53.6641 99.4007 53.6641 99.3234C53.6641 99.2456 60.5325 99.1824 69.0098 99.1824C77.4828 99.1824 84.3539 99.2456 84.3539 99.3234Z" fill="#CCCCCC"/>
<path d="M84.3539 103.239C84.3539 103.317 77.4828 103.38 69.0098 103.38C60.5325 103.38 53.6641 103.317 53.6641 103.239C53.6641 103.162 60.5325 103.099 69.0098 103.099C77.4828 103.099 84.3539 103.162 84.3539 103.239Z" fill="#CCCCCC"/>
<path d="M84.788 107.688C84.788 107.765 77.9169 107.829 69.4434 107.829C60.9671 107.829 54.0977 107.765 54.0977 107.688C54.0977 107.61 60.9671 107.547 69.4434 107.547C77.9169 107.547 84.788 107.61 84.788 107.688Z" fill="#CCCCCC"/>
<path d="M85.9347 72.1772H53.6641V40.9558H85.9347V72.1772Z" fill="#E4E4E4"/>
<path d="M56.1719 69.5068L65.0992 53.4404L72.4009 63.7098L76.8376 58.2563L83.4386 69.5068H56.1719Z" fill="#616160"/>
<path d="M75.5001 50.3166C75.5001 51.5992 74.4601 52.6387 73.1775 52.6387C71.8949 52.6387 70.8555 51.5992 70.8555 50.3166C70.8555 49.034 71.8949 47.994 73.1775 47.994C74.4601 47.994 75.5001 49.034 75.5001 50.3166Z" fill="#616160"/>
</svg>
