<svg width="140" height="140" viewBox="0 0 140 140" fill="none" xmlns="http://www.w3.org/2000/svg">
<path d="M101.194 124.94C107.819 124.797 114.444 124.725 121.14 124.868C126.849 124.94 130.866 123.438 133.685 118.075C138.549 108.635 136.787 97.4083 136.223 87.2538C135.518 75.3115 135.166 63.2978 135.236 51.284C135.307 41.4871 139.535 25.7547 128.822 19.9624C106.057 7.7341 77.6529 12.6683 52.8435 12.0247C42.1303 11.7387 29.7256 9.59337 19.2239 12.5253C10.8367 14.8851 4.98674 21.7502 4.56386 29.8309C3.85904 43.4894 4.28192 57.1479 4.42288 70.7349C4.56384 82.4626 2.44941 94.9769 6.53732 106.204C19.4354 141.459 74.2698 125.44 101.194 124.94Z" fill="#E4E4E4"/>
<path d="M108 45.6629C108 43.6397 106.36 42 104.337 42H36.6629C34.6399 42 33 43.6397 33 45.6629V48.5093H108V45.6629Z" fill="#EFEFEE"/>
<path d="M33 48.511V95.6203C33 97.6434 34.6399 99.2832 36.6629 99.2832H104.337C106.36 99.2832 108 97.6434 108 95.6203V48.511H33Z" fill="white"/>
<rect x="43" y="53" width="25" height="19" rx="6" fill="#E4E4E4"/>
<rect x="72" y="56" width="25" height="3" rx="1.5" fill="#E4E4E4"/>
<rect x="72" y="61" width="25" height="3" rx="1.5" fill="#E4E4E4"/>
<rect x="72" y="66" width="25" height="3" rx="1.5" fill="#E4E4E4"/>
<rect x="43" y="76" width="25" height="19" rx="6" fill="#E4E4E4"/>
<rect x="72" y="79" width="25" height="3" rx="1.5" fill="#E4E4E4"/>
<rect x="72" y="84" width="25" height="3" rx="1.5" fill="#E4E4E4"/>
<rect x="72" y="89" width="25" height="3" rx="1.5" fill="#E4E4E4"/>
<path d="M40.0416 45.2367C40.0416 46.161 39.2924 46.9102 38.3684 46.9102C37.4443 46.9102 36.6953 46.161 36.6953 45.2367C36.6953 44.3129 37.4443 43.5638 38.3684 43.5638C39.2924 43.5638 40.0416 44.3129 40.0416 45.2367Z" fill="#F14450"/>
<path d="M46.088 45.2367C46.088 46.161 45.3394 46.9102 44.4151 46.9102C43.4914 46.9102 42.7422 46.161 42.7422 45.2367C42.7422 44.3129 43.4914 43.5638 44.4151 43.5638C45.3394 43.5638 46.088 44.3129 46.088 45.2367Z" fill="#FBC839"/>
<path d="M52.1003 45.2367C52.1003 46.161 51.3511 46.9102 50.4274 46.9102C49.5031 46.9102 48.7539 46.161 48.7539 45.2367C48.7539 44.3129 49.5031 43.5638 50.4274 43.5638C51.3511 43.5638 52.1003 44.3129 52.1003 45.2367Z" fill="#23B152"/>
<rect x="14" y="28" width="25" height="25" rx="12.5" fill="#FFC83A"/>
<path d="M21 40L24.5 44L32.5 35" stroke="#252420" stroke-width="2"/>
</svg>
