<svg width="140" height="140" viewBox="0 0 140 140" fill="none" xmlns="http://www.w3.org/2000/svg">
<mask id="path-1-inside-1_3318_98163" fill="white">
<path d="M50 96H89V122H50V96Z"/>
</mask>
<path d="M50 96H89V122H50V96Z" fill="white"/>
<path d="M86 96V122H92V96H86ZM53 122V96H47V122H53Z" fill="#616160" mask="url(#path-1-inside-1_3318_98163)"/>
<rect x="9.5" y="19.5" width="121" height="78" rx="7.5" fill="white"/>
<rect x="20" y="30" width="100" height="9" rx="4.5" fill="#E4E4E4"/>
<rect x="23" y="49" width="25" height="3" rx="1.5" fill="#E4E4E4"/>
<rect x="23" y="57" width="25" height="3" rx="1.5" fill="#E4E4E4"/>
<rect x="23" y="65" width="25" height="3" rx="1.5" fill="#E4E4E4"/>
<rect x="23" y="73" width="25" height="3" rx="1.5" fill="#E4E4E4"/>
<rect x="23" y="81" width="25" height="3" rx="1.5" fill="#E4E4E4"/>
<rect x="9.5" y="19.5" width="121" height="78" rx="7.5" stroke="#616160" stroke-width="3"/>
<path d="M82.3043 48.0599C80.0012 48.9902 77.8042 50.1644 75.7509 51.5623L84.2353 64.0245C85.3995 63.2319 86.6452 62.5661 87.9511 62.0386L82.3043 48.0599Z" fill="#8EE765"/>
<path d="M87.3098 46.4653C85.5338 46.8866 83.7938 47.4468 82.1057 48.1408L87.8384 62.0845C88.7956 61.691 89.7822 61.3734 90.7892 61.1345L87.3098 46.4653Z" fill="#FDC140"/>
<path d="M91.3404 45.7565C89.9718 45.915 88.6139 46.1545 87.2738 46.4739L90.7687 61.1394C91.5286 60.9583 92.2986 60.8225 93.0745 60.7326L91.3404 45.7565Z" fill="#F77C4E"/>
<path d="M93.2241 45.5901C92.5704 45.63 91.918 45.6883 91.2675 45.765L93.0332 60.7374C93.402 60.6939 93.772 60.6609 94.1426 60.6382L93.2241 45.5901Z" fill="#9FD8F1"/>
<path d="M94.3898 45.5385C93.9953 45.5493 93.6011 45.5669 93.2072 45.5911L94.133 60.6388C94.3563 60.6251 94.5799 60.6152 94.8035 60.609L94.3898 45.5385Z" fill="#F987B4"/>
<path d="M95.3453 45.5254C95.0266 45.5254 94.708 45.5298 94.3894 45.5385L94.8033 60.609C94.9839 60.6041 95.1646 60.6016 95.3453 60.6016V45.5254Z" fill="#A2C3B7"/>
<path d="M75.7337 51.574C73.5447 53.0662 71.5332 54.8033 69.7382 56.7517L80.8261 66.9669C81.8438 65.8622 82.9844 64.8772 84.2255 64.0312L75.7337 51.574Z" fill="#7FC5FD"/>
<path d="M69.7797 56.7067C67.456 59.22 65.5157 62.0622 64.0212 65.1416L77.5846 71.724C78.4319 69.978 79.5321 68.3664 80.8496 66.9414L69.7797 56.7067Z" fill="#5F5F5F"/>
<path d="M64.056 65.0702C62.401 68.4607 61.3081 72.0976 60.82 75.8387L75.7695 77.7892C76.0462 75.668 76.6659 73.6059 77.6043 71.6835L64.056 65.0702Z" fill="#53C2EB"/>
<path d="M60.7844 75.9018C59.9709 82.5592 61.0975 89.3099 64.0288 95.3424L77.5889 88.7533C75.9268 85.3329 75.288 81.5053 75.7493 77.7305L60.7844 75.9018Z" fill="#C574E0"/>
<path d="M63.9315 95.1405C66.8494 101.245 71.4829 106.367 77.2653 109.881L85.094 96.9966C81.8153 95.0045 79.1881 92.1002 77.5337 88.6388L63.9315 95.1405Z" fill="#F9703C"/>
<path d="M77.227 109.858C83.3877 113.612 90.5625 115.36 97.7596 114.859C104.957 114.359 111.821 111.635 117.403 107.065L107.852 95.4C104.687 97.9915 100.795 99.5357 96.7142 99.8194C92.6334 100.103 88.5653 99.112 85.0722 96.9834L77.227 109.858Z" fill="#FFBE3C"/>
<path d="M117.385 107.079C120.925 104.185 123.86 100.622 126.023 96.5931C128.185 92.5645 129.533 88.1493 129.989 83.5998L114.989 82.0953C114.73 84.6749 113.966 87.1782 112.739 89.4624C111.513 91.7467 109.849 93.767 107.842 95.4081L117.385 107.079Z" fill="#88D23E"/>
<path d="M131.794 84.3757C132.339 79.2652 131.8 74.097 130.21 69.2095C128.62 64.3219 126.016 59.8253 122.568 56.0138C119.12 52.2023 114.906 49.162 110.202 47.0918C105.498 45.0216 100.409 43.9683 95.2697 44.0007L95.3858 62.4083C97.9333 62.3922 100.456 62.9144 102.787 63.9405C105.119 64.9666 107.208 66.4736 108.917 68.3629C110.626 70.2521 111.917 72.481 112.705 74.9036C113.493 77.3262 113.76 79.8879 113.49 82.4211L131.794 84.3757Z" fill="#3086F2"/>
</svg>
