<svg width="140" height="140" viewBox="0 0 140 140" fill="none" xmlns="http://www.w3.org/2000/svg">
<path d="M92 14H25C16.7157 14 10 20.7157 10 29V62C10 70.2843 16.7157 77 25 77H26C26.5523 77 27 77.4477 27 78V91.5858C27 92.4767 28.0771 92.9229 28.7071 92.2929L43.7071 77.2929C43.8946 77.1054 44.149 77 44.4142 77H92C100.284 77 107 70.2843 107 62V29C107 20.7157 100.284 14 92 14Z" fill="white" stroke="#616160" stroke-width="3"/>
<path d="M51 44H118C126.284 44 133 50.7157 133 59V92C133 100.284 126.284 107 118 107H117C116.448 107 116 107.448 116 108V121.586C116 122.477 114.923 122.923 114.293 122.293L99.2929 107.293C99.1054 107.105 98.851 107 98.5858 107H51C42.7157 107 36 100.284 36 92V59C36 50.7157 42.7157 44 51 44Z" fill="white" stroke="#616160" stroke-width="3"/>
<rect x="7" y="5" width="40" height="40" rx="20" fill="#FFC83A"/>
<path d="M32.2157 32.8715C31.6391 32.04 30.5885 31.4826 29.3903 31.4826C27.5736 31.4826 26.0957 32.764 26.0957 34.3391C26.0957 35.914 27.5737 37.1954 29.3903 37.1954C30.9845 37.1954 32.3174 36.2087 32.6203 34.9028C34.0709 34.2794 35.2129 33.0371 35.7085 31.4654C37.1448 31.1317 38.2203 29.819 38.2203 28.2537V24.6353C38.2203 23.1242 37.2179 21.8485 35.8563 21.4616C35.5358 19.4462 34.5651 17.5969 33.0771 16.1992C31.4167 14.6396 29.2588 13.7808 27.0008 13.7808C22.5574 13.7808 18.841 17.0465 18.1443 21.4618C16.7832 21.8489 15.7812 23.1245 15.7812 24.6351V28.2536C15.7812 30.0703 17.2297 31.5482 19.0101 31.5482C20.7904 31.5482 22.2389 30.0703 22.2389 28.2536V24.6351C22.2389 23.2186 21.3581 22.008 20.1261 21.5435C20.7637 18.219 23.6118 15.7877 27.0008 15.7877C30.3467 15.7877 33.2308 18.2615 33.8729 21.5446C32.6422 22.0098 31.7626 23.2195 31.7626 24.6351V28.2536C31.7626 29.5926 32.5499 30.7468 33.6768 31.2616C33.3641 31.9471 32.8498 32.5071 32.2157 32.8715ZM29.3903 35.1886C28.6078 35.1886 28.0625 34.741 28.0625 34.3392C28.0625 33.9374 28.6078 33.4897 29.3903 33.4897C30.1729 33.4897 30.7183 33.9374 30.7183 34.3392C30.7183 34.741 30.1727 35.1886 29.3903 35.1886ZM20.272 28.2539C20.272 28.9639 19.7059 29.5416 19.0101 29.5416C18.3142 29.5416 17.7481 28.9639 17.7481 28.2539V24.6354C17.7481 23.9253 18.3142 23.3477 19.0101 23.3477C19.7059 23.3477 20.272 23.9253 20.272 24.6354V28.2539ZM33.7295 24.6354C33.7295 23.9253 34.2956 23.3477 34.9915 23.3477C35.6873 23.3477 36.2534 23.9253 36.2534 24.6354V28.2539C36.2534 28.9639 35.6873 29.5416 34.9915 29.5416C34.2956 29.5416 33.7295 28.9639 33.7295 28.2539V24.6354Z" fill="#252420"/>
<rect x="56" y="79" width="25" height="19" rx="6" fill="#E4E4E4"/>
<rect x="85" y="82" width="25" height="3" rx="1.5" fill="#E4E4E4"/>
<rect x="85" y="87" width="25" height="3" rx="1.5" fill="#E4E4E4"/>
<rect x="56" y="56" width="25" height="19" rx="6" fill="#E4E4E4"/>
<rect x="85" y="59" width="25" height="3" rx="1.5" fill="#E4E4E4"/>
<rect x="85" y="64" width="25" height="3" rx="1.5" fill="#E4E4E4"/>
<rect x="85" y="69" width="25" height="3" rx="1.5" fill="#E4E4E4"/>
<rect x="85" y="92" width="25" height="3" rx="1.5" fill="#E4E4E4"/>
</svg>
