<svg width="140" height="140" viewBox="0 0 140 140" fill="none" xmlns="http://www.w3.org/2000/svg">
<path d="M70.5 109C102.256 109 128 89.0767 128 64.5C128 39.9233 102.256 20 70.5 20C38.7436 20 13 39.9233 13 64.5C13 76.6183 19.259 87.6052 29.4117 95.6302C30.0813 96.1595 30.3678 97.0455 30.1069 97.8583L23.9725 116.97C23.6734 117.902 24.7525 118.664 25.5308 118.071L43.0888 104.689C43.6497 104.262 44.393 104.164 45.0517 104.416C52.7233 107.351 61.3628 109 70.5 109Z" stroke="#616160" stroke-width="3"/>
<g clip-path="url(#clip0_3317_98174)">
<rect x="89" y="73" width="47" height="32" rx="7" fill="#1A47B8"/>
<path fill-rule="evenodd" clip-rule="evenodd" d="M93.9998 73H89V78.3333L130.973 105L136 105V99.6667L93.9998 73Z" fill="white"/>
<path d="M90.6676 73L136 101.876V105H134.371L89 76.0945V73H90.6676Z" fill="#F93939"/>
<path fill-rule="evenodd" clip-rule="evenodd" d="M131.524 73H136V78.3333C136 78.3333 106.927 96.0999 93.4762 105H89V99.6667L131.524 73Z" fill="white"/>
<path d="M136 73H134.482L89 101.9V105H90.6676L136 76.1179V73Z" fill="#F93939"/>
<path fill-rule="evenodd" clip-rule="evenodd" d="M106.093 73H118.947V82.8705H136V95.1229H118.947V105H106.093V95.1229H89V82.8705H106.093V73Z" fill="white"/>
<path fill-rule="evenodd" clip-rule="evenodd" d="M108.789 73H116.211V85.3077H136V92.6923H116.211V105H108.789V92.6923H89V85.3077H108.789V73Z" fill="#F93939"/>
</g>
<rect x="9" y="18" width="47" height="34" rx="7" fill="#03BCDB"/>
<path d="M34.7398 38.4002C37.8299 38.4002 40.335 35.8632 40.335 32.7336C40.335 29.6039 37.8299 27.0669 34.7398 27.0669C31.6496 27.0669 29.1445 29.6039 29.1445 32.7336C29.1445 35.8632 31.6496 38.4002 34.7398 38.4002Z" fill="#FFDA2C"/>
<path fill-rule="evenodd" clip-rule="evenodd" d="M26.9062 33.8667L29.1443 38.4L34.7396 40.6667L40.3348 38.4L42.5729 33.8667V40.6667L34.7396 42.9334L26.9062 40.6667V33.8667Z" fill="#FFDA2C"/>
<path fill-rule="evenodd" clip-rule="evenodd" d="M13.4766 23.6552C13.4766 23.0364 13.9958 22.5332 14.5956 22.5332C15.2133 22.5332 15.7147 23.0228 15.7147 23.6552V28.2112C15.7147 28.83 15.1954 29.3332 14.5956 29.3332C13.9779 29.3332 13.4766 28.8436 13.4766 28.2112V23.6552ZM15.7147 28.1885C15.7147 27.5697 16.2339 27.0665 16.8337 27.0665C17.4514 27.0665 17.9528 27.5561 17.9528 28.1885V32.7445C17.9528 33.3633 17.4335 33.8665 16.8337 33.8665C16.216 33.8665 15.7147 33.3769 15.7147 32.7445V28.1885ZM15.7147 37.2552C15.7147 36.6364 16.2339 36.1332 16.8337 36.1332C17.4514 36.1332 17.9528 36.6228 17.9528 37.2552V41.8112C17.9528 42.43 17.4335 42.9332 16.8337 42.9332C16.216 42.9332 15.7147 42.4436 15.7147 41.8112V37.2552V37.2552ZM13.4766 41.7885C13.4766 41.1697 13.9958 40.6665 14.5956 40.6665C15.2133 40.6665 15.7147 41.1561 15.7147 41.7885V46.3445C15.7147 46.9633 15.1954 47.4665 14.5956 47.4665C13.9779 47.4665 13.4766 46.9769 13.4766 46.3445V41.7885ZM13.4766 32.7332C13.4766 32.1076 13.9958 31.5999 14.5956 31.5999C15.2133 31.5999 15.7147 32.1257 15.7147 32.7332C15.7147 33.3588 15.1954 33.8665 14.5956 33.8665C13.9779 33.8665 13.4766 33.3407 13.4766 32.7332ZM15.7147 23.6665C15.7147 23.0409 16.2339 22.5332 16.8337 22.5332C17.4514 22.5332 17.9528 23.0591 17.9528 23.6665C17.9528 24.2921 17.4335 24.7999 16.8337 24.7999C16.216 24.7999 15.7147 24.274 15.7147 23.6665ZM13.4766 34.9999C13.4766 34.3743 13.9958 33.8665 14.5956 33.8665C15.2133 33.8665 15.7147 34.3924 15.7147 34.9999C15.7147 35.6255 15.1954 36.1332 14.5956 36.1332C13.9779 36.1332 13.4766 35.6073 13.4766 34.9999ZM15.7147 46.3332C15.7147 45.7076 16.2339 45.1999 16.8337 45.1999C17.4514 45.1999 17.9528 45.7257 17.9528 46.3332C17.9528 46.9588 17.4335 47.4665 16.8337 47.4665C16.216 47.4665 15.7147 46.9407 15.7147 46.3332ZM13.4766 37.2665C13.4766 36.6409 13.9958 36.1332 14.5956 36.1332C15.2133 36.1332 15.7147 36.6591 15.7147 37.2665C15.7147 37.8921 15.1954 38.3999 14.5956 38.3999C13.9779 38.3999 13.4766 37.874 13.4766 37.2665Z" fill="#FFDA2C"/>
<path d="M81.365 41.7907C81.5679 42.3919 82.0432 42.5334 82.3625 42.842C82.5827 43.0514 82.8086 43.2881 82.9314 43.5509C83.1938 44.1147 82.6784 44.7622 82.089 44.6357C81.7942 44.567 81.4933 44.4492 81.2356 44.2884C79.6178 43.2735 77.9999 42.2478 76.3926 41.2003C76.0964 41.0118 75.8373 40.7312 75.6216 40.4402C75.2899 40.0008 75.4787 39.3605 75.9609 39.1536C76.0963 39.0953 76.2483 39.0534 76.3949 39.017C77.8339 38.6795 79.2673 38.3256 80.7121 38.0154C81.0489 37.943 81.4244 37.9309 81.7736 37.9894C82.4446 38.1005 82.6636 38.6856 82.2671 39.2473C82.1545 39.4039 81.9926 39.5328 81.7612 39.7643C82.0622 39.9038 82.2595 40.015 82.4836 40.0883C83.9046 40.5619 85.3202 41.0299 86.7411 41.4926C89.9 42.5305 92.5299 44.439 94.9188 46.7095C95.662 47.4203 96.3303 48.2501 96.8467 49.1326C97.6574 50.514 98.36 51.9594 99.0082 53.4151C99.7347 55.0569 99.6285 56.7272 98.9992 58.3589C98.8934 58.63 98.717 58.9165 98.4903 59.0882C98.3229 59.2115 97.9804 59.2566 97.7942 59.1674C97.6081 59.0781 97.4304 58.7712 97.4334 58.5589C97.424 58.2157 97.5397 57.8577 97.6284 57.5157C97.9773 56.1203 97.8422 54.7794 97.1848 53.476C96.5053 52.1397 95.9395 50.7448 95.0111 49.5473C92.9555 46.9103 90.3474 44.9912 87.3 43.7096C85.6422 43.0101 83.8943 42.5219 82.1835 41.9416C81.943 41.8626 81.6924 41.8488 81.365 41.7907Z" fill="#616160"/>
<path d="M62.7743 82.8689C62.5634 83.3252 62.3355 83.7927 62.1392 84.2783C62.033 84.5533 61.9256 84.8486 61.9039 85.1409C61.8717 85.5426 62.0711 85.889 62.4625 85.9573C62.7208 86.0014 63.061 85.9035 63.2739 85.7532C63.5084 85.5838 63.6801 85.3046 63.8066 85.0308C64.5861 83.3895 65.3813 81.7573 66.1056 80.0841C66.5162 79.1546 66.1135 78.3231 65.1378 78.1381C64.2546 77.975 63.3392 77.9404 62.4338 77.9432C61.1085 77.9452 59.7783 78.0284 58.4493 78.0914C58.3432 78.0932 58.2388 78.2011 58.1166 78.2671C57.9941 79.1528 58.5373 79.6135 59.2735 79.8493C59.7819 80.0063 60.3474 80.028 60.888 80.0563C61.4207 80.0802 61.9617 80.0352 62.4641 80.0205C62.6553 80.4356 62.3569 80.5156 62.1713 80.6186C59.9748 81.8201 57.5736 82.0838 55.1285 82.0593C54.6555 82.0595 54.1674 81.9038 53.7211 81.7302C48.7266 79.7505 44.6971 76.5727 41.7935 72.0273C40.5491 70.0688 40.1718 67.8646 40.1491 65.5921C40.1408 65.1879 40.3526 64.7847 40.4424 64.3742C40.5356 63.9761 40.3711 63.6604 40.0413 63.4489C39.6608 63.1978 39.1563 63.1797 38.8615 63.4719C38.6097 63.7259 38.3634 64.0251 38.2581 64.3531C38.1048 64.8006 38.0055 65.3003 38.0136 65.7778C38.026 68.5595 38.5888 71.207 40.1939 73.5419C42.3799 76.7272 45.0343 79.4473 48.4214 81.3713C50.0024 82.2736 51.5663 83.187 53.3181 83.757C54.3822 84.0982 55.4519 84.2113 56.5441 84.0852C58.4202 83.8757 60.2683 83.587 62.0181 82.8317C62.1809 82.7681 62.3662 82.7384 62.539 82.7121C62.5842 82.7066 62.6415 82.7712 62.7743 82.8689Z" fill="#616160"/>
<defs>
<clipPath id="clip0_3317_98174">
<rect x="89" y="73" width="47" height="32" rx="7" fill="white"/>
</clipPath>
</defs>
</svg>
