<svg width="14" height="14" viewBox="0 0 14 14" fill="none" xmlns="http://www.w3.org/2000/svg">
<path fill-rule="evenodd" clip-rule="evenodd" d="M0.333252 7.00004C0.333252 3.31814 3.31802 0.333374 6.99992 0.333374C10.6818 0.333374 13.6666 3.31814 13.6666 7.00004C13.6666 10.6819 10.6818 13.6667 6.99992 13.6667C3.31802 13.6667 0.333252 10.6819 0.333252 7.00004ZM4.64293 4.64299C4.90328 4.38265 5.32539 4.38265 5.58574 4.64299L6.99992 6.05717L8.41411 4.64298C8.67446 4.38263 9.09657 4.38263 9.35692 4.64298C9.61727 4.90333 9.61727 5.32544 9.35692 5.58579L7.94273 6.99998L9.35698 8.41423C9.61733 8.67458 9.61733 9.09669 9.35698 9.35704C9.09663 9.61739 8.67452 9.61739 8.41417 9.35704L6.99992 7.94279L5.58568 9.35703C5.32533 9.61737 4.90322 9.61737 4.64287 9.35703C4.38252 9.09668 4.38252 8.67457 4.64287 8.41422L6.05711 6.99998L4.64293 5.5858C4.38259 5.32545 4.38259 4.90334 4.64293 4.64299Z" fill="#EB5757"/>
</svg>
