<svg width="16" height="16" viewBox="0 0 16 16" fill="none" xmlns="http://www.w3.org/2000/svg">
<path d="M8.00015 9.5999C8.42449 9.5999 8.83146 9.43133 9.13152 9.13127C9.43158 8.83121 9.60015 8.42425 9.60015 7.9999C9.60015 7.57556 9.43158 7.16859 9.13152 6.86853C8.83146 6.56847 8.42449 6.3999 8.00015 6.3999C7.5758 6.3999 7.16883 6.56847 6.86878 6.86853C6.56872 7.16859 6.40015 7.57556 6.40015 7.9999C6.40015 8.42425 6.56872 8.83121 6.86878 9.13127C7.16883 9.43133 7.5758 9.5999 8.00015 9.5999Z" fill="#252420"/>
<path fill-rule="evenodd" clip-rule="evenodd" d="M0.366455 7.9999C1.38566 4.7543 4.41765 2.3999 8.00005 2.3999C11.5825 2.3999 14.6145 4.7543 15.6337 7.9999C14.6145 11.2455 11.5825 13.5999 8.00005 13.5999C4.41765 13.5999 1.38566 11.2455 0.366455 7.9999ZM11.2001 7.9999C11.2001 8.8486 10.8629 9.66253 10.2628 10.2626C9.66268 10.8628 8.84875 11.1999 8.00005 11.1999C7.15136 11.1999 6.33743 10.8628 5.73731 10.2626C5.1372 9.66253 4.80006 8.8486 4.80006 7.9999C4.80006 7.15121 5.1372 6.33728 5.73731 5.73716C6.33743 5.13704 7.15136 4.7999 8.00005 4.7999C8.84875 4.7999 9.66268 5.13704 10.2628 5.73716C10.8629 6.33728 11.2001 7.15121 11.2001 7.9999Z" fill="#252420"/>
</svg>
