<svg width="24" height="24" viewBox="0 0 24 24" fill="none" xmlns="http://www.w3.org/2000/svg">
<path d="M12.6786 19.6548V12.6605C15.9704 12.2835 18.3125 9.5273 18.3125 6.38318C18.3125 5.19462 17.9824 3.7163 17.4104 2.28317C17.2889 1.97839 16.9934 1.77832 16.6655 1.77832H7.3291C7.00091 1.77832 6.70549 1.97839 6.5841 2.28322C6.06764 3.5772 5.66639 5.10249 5.68823 6.50998C5.68823 6.5113 5.6886 6.51262 5.6886 6.5139C5.75217 9.61481 8.07497 12.2985 11.3156 12.6605V19.6548C9.17004 19.8304 7.52541 20.7841 7.52541 21.2635C7.52541 21.7933 9.52737 22.2218 11.9974 22.2218C14.4673 22.2218 16.4695 21.7933 16.4695 21.2635C16.4695 20.7841 14.8243 19.8302 12.6786 19.6548ZM7.7147 3.14132H16.2797C16.7074 4.30759 16.9495 5.47221 16.9495 6.38322C16.9495 6.60442 16.9298 6.82117 16.9016 7.03506C16.4755 6.92886 16.0338 6.91482 15.5599 7.08348C14.3226 7.52402 13.5204 7.80619 12.2616 7.31252C11.0099 6.82129 10.2189 4.58992 8.71789 4.75969C8.12157 4.8268 7.60994 5.02295 7.1481 5.29542C7.25525 4.61931 7.44224 3.88458 7.7147 3.14132Z" fill="#252420"/>
</svg>
