<svg width="12" height="12" viewBox="0 0 12 12" fill="none" xmlns="http://www.w3.org/2000/svg">
<path d="M6.34647 0.8476C6.47782 0.847343 6.60427 0.897447 6.6998 0.987601L11.3665 5.65427C11.5614 5.84948 11.5614 6.16572 11.3665 6.36093L6.6998 11.0276C6.50459 11.2226 6.18835 11.2226 5.99314 11.0276C5.89784 10.9347 5.84409 10.8073 5.84409 10.6743C5.84409 10.5412 5.89784 10.4138 5.99314 10.3209L10.2998 6.00093L5.9998 1.70093C5.9045 1.60808 5.85076 1.48066 5.85076 1.3476C5.85076 1.21454 5.9045 1.08713 5.9998 0.994268C6.09011 0.899558 6.21561 0.846465 6.34647 0.8476Z" fill="#252420"/>
<path d="M0.986328 5.5L10.9863 5.5C11.2625 5.5 11.4863 5.72386 11.4863 6C11.4863 6.27614 11.2625 6.5 10.9863 6.5L0.986328 6.5C0.710185 6.5 0.486328 6.27614 0.486328 6C0.486328 5.72386 0.710185 5.5 0.986328 5.5Z" fill="#252420"/>
<path d="M6.34647 0.8476C6.47782 0.847343 6.60427 0.897447 6.6998 0.987601L11.3665 5.65427C11.5614 5.84948 11.5614 6.16572 11.3665 6.36093L6.6998 11.0276C6.50459 11.2226 6.18835 11.2226 5.99314 11.0276C5.89784 10.9347 5.84409 10.8073 5.84409 10.6743C5.84409 10.5412 5.89784 10.4138 5.99314 10.3209L10.2998 6.00093L5.9998 1.70093C5.9045 1.60808 5.85076 1.48066 5.85076 1.3476C5.85076 1.21454 5.9045 1.08713 5.9998 0.994268C6.09011 0.899558 6.21561 0.846465 6.34647 0.8476Z" fill="#252420"/>
<path d="M0.986328 5.5L10.9863 5.5C11.2625 5.5 11.4863 5.72386 11.4863 6C11.4863 6.27614 11.2625 6.5 10.9863 6.5L0.986328 6.5C0.710185 6.5 0.486328 6.27614 0.486328 6C0.486328 5.72386 0.710185 5.5 0.986328 5.5Z" fill="#252420"/>
</svg>
