<svg width="18" height="12" viewBox="0 0 18 12" fill="none" xmlns="http://www.w3.org/2000/svg">
<path fill-rule="evenodd" clip-rule="evenodd" d="M17.75 6.00019C17.75 5.83443 17.6842 5.67546 17.5669 5.55825C17.4497 5.44103 17.2908 5.37519 17.125 5.37519L2.38375 5.37519L6.3175 1.44269C6.43486 1.32533 6.50079 1.16616 6.50079 1.00019C6.50079 0.834218 6.43486 0.675046 6.3175 0.557688C6.20014 0.440329 6.04097 0.374398 5.875 0.374398C5.70903 0.374398 5.54986 0.440329 5.4325 0.557688L0.432499 5.55769C0.374296 5.61574 0.328117 5.68471 0.29661 5.76065C0.265102 5.83658 0.248882 5.91798 0.248882 6.00019C0.248882 6.0824 0.265102 6.1638 0.29661 6.23973C0.328117 6.31566 0.374296 6.38463 0.432499 6.44269L5.4325 11.4427C5.54986 11.56 5.70903 11.626 5.875 11.626C6.04097 11.626 6.20014 11.56 6.3175 11.4427C6.43486 11.3253 6.50079 11.1662 6.50079 11.0002C6.50079 10.8342 6.43486 10.675 6.3175 10.5577L2.38375 6.62519L17.125 6.62519C17.2908 6.62519 17.4497 6.55934 17.5669 6.44213C17.6842 6.32492 17.75 6.16595 17.75 6.00019Z" fill="#252420"/>
</svg>
