<svg width="18" height="12" viewBox="0 0 18 12" fill="none" xmlns="http://www.w3.org/2000/svg">
<path fill-rule="evenodd" clip-rule="evenodd" d="M0.75 6.00019C0.75 5.83443 0.815848 5.67546 0.933058 5.55825C1.05027 5.44103 1.20924 5.37519 1.375 5.37519L16.1163 5.37519L12.1825 1.44269C12.0651 1.32533 11.9992 1.16616 11.9992 1.00019C11.9992 0.834218 12.0651 0.675046 12.1825 0.557688C12.2999 0.440329 12.459 0.374398 12.625 0.374398C12.791 0.374398 12.9501 0.440329 13.0675 0.557688L18 5.55769C18 5.61574 18 5.68471 18 5.76065C18 5.83658 18 5.91798 18 6.00019C18 6.0824 18 6.1638 18 6.23973C18 6.31566 18 6.38463 18 6.44269L13.0675 11.4427C12.9501 11.56 12.791 11.626 12.625 11.626C12.459 11.626 12.2999 11.56 12.1825 11.4427C12.0651 11.3253 11.9992 11.1662 11.9992 11.0002C11.9992 10.8342 12.0651 10.675 12.1825 10.5577L16.1163 6.62519L1.375 6.62519C1.20924 6.62519 1.05027 6.55934 0.933058 6.44213C0.815848 6.32492 0.75 6.16595 0.75 6.00019Z" fill="#252420"/>
</svg>
