<svg width="24" height="24" viewBox="0 0 24 24" fill="none" xmlns="http://www.w3.org/2000/svg">
<path d="M18.2474 16.6585C18.6111 17.0741 19.2429 17.1163 19.6585 16.7526C20.0741 16.3889 20.1163 15.7571 19.7526 15.3415L18.2474 16.6585ZM4.24742 15.3415C3.88374 15.7571 3.92586 16.3889 4.3415 16.7526C4.75713 17.1163 5.38889 17.0741 5.75258 16.6585L4.24742 15.3415ZM12.7526 8.86009L13.5052 8.20158L12.7526 8.86009ZM19.7526 15.3415L13.5052 8.20158L12 9.51859L18.2474 16.6585L19.7526 15.3415ZM10.4948 8.20158L4.24742 15.3415L5.75258 16.6585L12 9.51859L10.4948 8.20158ZM13.5052 8.20158C12.7083 7.29093 11.2917 7.29093 10.4948 8.20158L12 9.51859L12 9.51859L13.5052 8.20158Z" fill="#252420"/>
</svg>
