<svg width="24" height="24" viewBox="0 0 24 24" fill="none" xmlns="http://www.w3.org/2000/svg">
<path d="M5.75258 7.3415C5.38889 6.92586 4.75713 6.88374 4.3415 7.24742C3.92586 7.61111 3.88374 8.24287 4.24742 8.6585L5.75258 7.3415ZM19.7526 8.6585C20.1163 8.24287 20.0741 7.61111 19.6585 7.24742C19.2429 6.88374 18.6111 6.92586 18.2474 7.3415L19.7526 8.6585ZM11.2474 15.1399L10.4948 15.7984L11.2474 15.1399ZM4.24742 8.6585L10.4948 15.7984L12 14.4814L5.75258 7.3415L4.24742 8.6585ZM13.5052 15.7984L19.7526 8.6585L18.2474 7.3415L12 14.4814L13.5052 15.7984ZM10.4948 15.7984C11.2917 16.7091 12.7083 16.7091 13.5052 15.7984L12 14.4814L12 14.4814L10.4948 15.7984Z" fill="#9A9A9A"/>
</svg>
