<svg width="24" height="24" viewBox="0 0 24 24" fill="none" xmlns="http://www.w3.org/2000/svg">
<path d="M15.2479 3.59449C15.003 2.67742 14.1651 2 13.1719 2C12.6655 2 12.1849 2.1807 11.8063 2.49645C11.2971 2.06918 10.6083 1.8975 9.91975 2.06156C9.14408 2.24637 8.52685 2.86746 8.34728 3.64379C8.1142 4.65156 8.6051 5.6425 9.49147 6.07312C9.66412 7.08594 10.5481 7.85938 11.6094 7.85938C11.8221 7.85938 12.0313 7.82832 12.2314 7.76785C12.6289 8.30637 13.2635 8.64062 13.9531 8.64062C14.77 8.64062 15.5008 8.17641 15.8614 7.46875H16.0603C16.7459 7.46875 17.3822 7.8093 17.7625 8.37969C17.8732 8.54574 18.0578 8.6407 18.25 8.64066C18.3065 8.64066 18.3637 8.63246 18.4198 8.61547C18.6669 8.54063 18.8359 8.31289 18.8359 8.05469V7.66406C18.8359 5.57641 17.268 3.84801 15.2479 3.59449Z" fill="#252420"/>
<path d="M7.23072 16.5781L3.34037 18.8242C2.8733 19.0939 2.71326 19.6911 2.98291 20.1583L3.76416 21.5114C4.03385 21.9785 4.63107 22.1385 5.09818 21.8689L8.98853 19.6228L7.23072 16.5781Z" fill="#252420"/>
<path d="M8.24536 15.9922L17.2098 10.8164L18.9676 13.8609L10.0032 19.0367L8.24536 15.9922Z" fill="#252420"/>
<path d="M18.9018 9.83998L18.2252 10.2306L19.983 13.2752L20.6596 12.8846C21.1267 12.6149 21.2868 12.0177 21.0171 11.5506L20.2359 10.1974C19.9662 9.73033 19.3689 9.57033 18.9018 9.83998Z" fill="#252420"/>
</svg>
