<svg width="24" height="24" viewBox="0 0 24 24" fill="none" xmlns="http://www.w3.org/2000/svg">
<path d="M16.2108 6.39254C17.2362 6.39254 18.0653 5.56344 18.0872 4.53799C18.0872 3.51253 17.2581 2.66162 16.2326 2.66162C15.2072 2.66162 14.3781 3.49071 14.3562 4.51617C14.3562 5.54163 15.1853 6.39254 16.2108 6.39254Z" fill="#252420"/>
<path d="M12.5672 8.94535C12.829 7.76717 13.6363 6.93808 14.8581 6.95989H17.5854C18.8072 6.95989 19.8108 7.89808 19.9199 9.09808L20.2908 13.4835C20.3126 13.8544 20.029 14.2035 19.6581 14.2254H19.549C19.1999 14.1817 18.9381 13.8981 18.9163 13.549L18.589 9.46899C18.5672 9.3599 18.5454 9.11989 18.3272 9.11989C18.2617 9.11989 18.1526 9.14171 18.1526 9.40353V20.509C18.1526 20.9672 17.7817 21.3381 17.3235 21.3381C16.8654 21.3381 16.4944 20.9672 16.4944 20.509V14.2472C16.3199 14.2254 16.1454 14.2254 15.949 14.2472V20.509C15.949 20.9672 15.5781 21.3381 15.1199 21.3381C14.6617 21.3381 14.2908 20.9672 14.2908 20.509V9.40353C14.2908 9.14171 14.1817 9.11989 14.1163 9.11989C13.9199 9.11989 13.8763 9.40353 13.8544 9.51262L12.9599 13.5054C12.8944 13.8544 12.589 14.0944 12.2399 14.0726C11.869 14.0508 11.5635 13.7235 11.5854 13.3526C11.5854 13.309 11.5854 13.2872 11.6072 13.2435L12.5672 8.94535Z" fill="#252420"/>
<path d="M8.33457 6.65425C9.36002 6.65425 10.1891 5.82516 10.2109 4.7997C10.2109 3.77425 9.38184 2.92334 8.35639 2.92334C7.33093 2.92334 6.50183 3.75243 6.48002 4.77789C6.4582 5.80334 7.30911 6.63243 8.33457 6.65425Z" fill="#252420"/>
<path d="M11.1489 16.1888C11.2144 16.1888 11.2799 16.167 11.3235 16.1015C11.3671 16.0361 11.3889 15.9488 11.3671 15.8834C11.1708 14.9888 10.7562 13.1343 10.4071 11.6506C10.1889 10.7561 10.0144 9.99244 9.94894 9.64335C9.92712 9.53426 9.99258 9.40335 10.1017 9.35971H10.1235H10.1671C10.2762 9.35971 10.3635 9.42516 10.3853 9.53426L10.538 10.1015L11.5853 13.5706C11.6726 13.8543 11.9344 14.0724 12.2399 14.0724C12.3271 14.0724 12.3926 14.0506 12.4799 14.0288C12.8071 13.8979 12.9817 13.5488 12.8944 13.2215C12.6762 12.3924 12.3926 11.5415 12.1308 10.6906C11.9126 10.0361 11.7162 9.40335 11.5417 8.83607C11.3017 7.87607 10.4508 7.19971 9.44712 7.19971H7.19985C6.21803 7.19971 5.34531 7.87607 5.10531 8.81425C4.95258 9.29426 4.79985 9.81789 4.62531 10.3415C4.31985 11.2797 4.0144 12.2615 3.75258 13.1997C3.66531 13.5488 3.83985 13.8979 4.16712 14.007C4.23258 14.0288 4.31985 14.0506 4.40712 14.0506C4.71258 14.0506 4.9744 13.8543 5.06167 13.5488L6.10894 10.0797L6.26167 9.51244C6.28349 9.40335 6.37076 9.33789 6.47985 9.33789H6.50167H6.54531C6.6544 9.38153 6.74167 9.49062 6.69803 9.62153C6.61076 9.97062 6.43621 10.7343 6.23985 11.6288C5.89076 13.1124 5.4544 14.967 5.27985 15.8615C5.25803 15.927 5.27985 16.0143 5.32349 16.0797C5.36713 16.1234 5.43258 16.167 5.49803 16.167L11.1489 16.1888Z" fill="#252420"/>
<path d="M9.44727 21.3381C9.90546 21.3381 10.2764 20.9672 10.2764 20.509V15.709H8.61817V20.509C8.59635 20.9672 8.96727 21.3381 9.44727 21.3381Z" fill="#252420"/>
<path d="M7.24342 21.3381C7.7016 21.3381 8.07251 20.9672 8.07251 20.509V15.709H6.41433V20.509C6.41433 20.9672 6.78524 21.3381 7.24342 21.3381Z" fill="#252420"/>
</svg>
