<svg width="24" height="24" viewBox="0 0 24 24" fill="none" xmlns="http://www.w3.org/2000/svg">
<path d="M21.6875 8.48071V7.45898C21.6875 6.28861 20.7387 5.33984 19.5684 5.33984H4.43164C3.26127 5.33984 2.3125 6.28861 2.3125 7.45898V8.48071C2.3125 8.58519 2.39723 8.66992 2.50171 8.66992H21.4983C21.6028 8.66992 21.6875 8.58519 21.6875 8.48071Z" fill="#252420"/>
<path d="M2.3125 10.0701V16.541C2.3125 17.7114 3.26127 18.6602 4.43164 18.6602H19.5684C20.7387 18.6602 21.6875 17.7114 21.6875 16.541V10.0701C21.6875 9.96559 21.6028 9.88086 21.4983 9.88086H2.50171C2.39723 9.88086 2.3125 9.96559 2.3125 10.0701ZM7.15625 15.0273C7.15625 15.3617 6.88515 15.6328 6.55078 15.6328H5.94531C5.61094 15.6328 5.33984 15.3617 5.33984 15.0273V14.4219C5.33984 14.0875 5.61094 13.8164 5.94531 13.8164H6.55078C6.88515 13.8164 7.15625 14.0875 7.15625 14.4219V15.0273Z" fill="#252420"/>
</svg>
