<svg width="20" height="21" viewBox="0 0 20 21" fill="none" xmlns="http://www.w3.org/2000/svg">
<path d="M14.19 0.5H5.81C2.17 0.5 0 2.67 0 6.31V14.68C0 18.33 2.17 20.5 5.81 20.5H14.18C17.82 20.5 19.99 18.33 19.99 14.69V6.31C20 2.67 17.83 0.5 14.19 0.5ZM5.75 7.64C5.75 6.83 6.41 6.16 7.23 6.16C8.04 6.16 8.71 6.82 8.71 7.64C8.71 8.45 8.05 9.12 7.23 9.12C6.41 9.11 5.75 8.45 5.75 7.64ZM6.82 14.52C6.63 14.52 6.44 14.45 6.29 14.3C6 14.01 6 13.54 6.29 13.24L12.84 6.69C13.13 6.4 13.61 6.4 13.9 6.69C14.19 6.98 14.19 7.46 13.9 7.75L7.35 14.3C7.2 14.45 7.01 14.52 6.82 14.52ZM13.77 14.84C12.96 14.84 12.29 14.18 12.29 13.36C12.29 12.55 12.95 11.88 13.77 11.88C14.58 11.88 15.25 12.54 15.25 13.36C15.25 14.18 14.59 14.84 13.77 14.84Z" fill="#616160"/>
</svg>
