<svg width="30" height="30" viewBox="0 0 30 30" fill="none" xmlns="http://www.w3.org/2000/svg">
<path d="M0 8C0 3.58172 3.58172 0 8 0H22C26.4183 0 30 3.58172 30 8V22C30 26.4183 26.4183 30 22 30H8C3.58172 30 0 26.4183 0 22V8Z" fill="#252420"/>
<g clip-path="url(#clip0_297_6271)">
<path d="M11.9532 23.7237C12.2112 23.7237 12.4753 23.7222 12.7452 23.7222H17.854C18.1235 23.7222 18.3877 23.7237 18.6457 23.7237C21.0095 23.7237 22.8158 23.6028 22.8158 21.1316C22.8158 18.5451 20.8377 16.4217 18.3114 16.1909C18.2913 17.0958 15.3004 19.3289 15.3004 19.3289C15.3004 19.3289 12.3088 17.096 12.2885 16.1911C9.76266 16.4217 7.78418 18.5451 7.78418 21.1316C7.78418 23.6028 9.58968 23.7237 11.9532 23.7237ZM17.5319 20.3491C17.5319 20.2755 17.5983 20.2161 17.6809 20.2161H18.4889V19.4085C18.4889 19.3267 18.5478 19.2595 18.6215 19.2595H19.4189C19.4921 19.2595 19.5515 19.3261 19.5515 19.4085V20.2163H20.3591C20.4409 20.2163 20.5079 20.2757 20.5079 20.3493V21.1463C20.5079 21.22 20.4415 21.2793 20.3591 21.2793H19.5513V22.0869C19.5513 22.1691 19.4918 22.2357 19.4183 22.2357H18.6213C18.5476 22.2357 18.4883 22.1693 18.4883 22.0869V21.2791H17.6807C17.5985 21.2791 17.5317 21.2198 17.5317 21.1461L17.5319 20.3491Z" fill="white"/>
<path d="M15.3012 16.8404C17.5861 16.8404 19.4381 13.4048 19.4381 11.1202C19.4381 8.83589 17.5861 6.98389 15.3012 6.98389C13.0168 6.98389 11.1648 8.83589 11.1648 11.1202C11.1648 13.4048 13.0168 16.8404 15.3012 16.8404Z" fill="white"/>
</g>
<defs>
<clipPath id="clip0_297_6271">
<rect width="18.6" height="18.6" fill="white" transform="translate(6 6.05371)"/>
</clipPath>
</defs>
</svg>
