<svg width="13" height="13" viewBox="0 0 13 13" fill="none" xmlns="http://www.w3.org/2000/svg">
<path d="M0.94666 12.7185C0.854167 12.7183 0.762719 12.6989 0.678131 12.6615C0.593543 12.6241 0.517667 12.5695 0.455326 12.5011C0.391859 12.4334 0.343429 12.353 0.313212 12.2652C0.282996 12.1774 0.271675 12.0843 0.279993 11.9918L0.443326 10.1958L7.98866 2.65312L10.3467 5.01046L2.80333 12.5525L1.00733 12.7158C0.987159 12.7176 0.966913 12.7185 0.94666 12.7185ZM10.8173 4.53912L8.45999 2.18179L9.87399 0.76779C9.93591 0.705806 10.0094 0.656633 10.0904 0.623084C10.1713 0.589534 10.258 0.572266 10.3457 0.572266C10.4333 0.572266 10.52 0.589534 10.601 0.623084C10.6819 0.656633 10.7554 0.705806 10.8173 0.76779L12.2313 2.18179C12.2933 2.24371 12.3425 2.31723 12.376 2.39816C12.4096 2.4791 12.4269 2.56585 12.4269 2.65346C12.4269 2.74107 12.4096 2.82782 12.376 2.90875C12.3425 2.98968 12.2933 3.06321 12.2313 3.12512L10.818 4.53846L10.8173 4.53912Z" fill="#252420"/>
</svg>
