<svg width="24" height="24" viewBox="0 0 24 24" fill="none" xmlns="http://www.w3.org/2000/svg">
<path d="M10 7.39014H4C3.44772 7.39014 3 7.83785 3 8.39014C3 8.94242 3.44772 9.39014 4 9.39014H10C10.5523 9.39014 11 8.94242 11 8.39014C11 7.83785 10.5523 7.39014 10 7.39014Z" fill="#252420"/>
<path d="M8 14.1602C7.15399 14.1576 6.37938 14.634 6 15.3902H4C3.44772 15.3902 3 15.8379 3 16.3902C3 16.9425 3.44772 17.3902 4 17.3902H6C6.4954 18.3597 7.62079 18.8269 8.65718 18.4932C9.69356 18.1596 10.335 17.1236 10.1718 16.0472C10.0085 14.9707 9.0887 14.1715 8 14.1602V14.1602Z" fill="#252420"/>
<path d="M13.72 10.4603C14.4939 10.4592 15.2108 10.0533 15.61 9.39034H20C20.5523 9.39034 21 8.94262 21 8.39034C21 7.83806 20.5523 7.39034 20 7.39034H15.78C15.3575 6.35131 14.229 5.7878 13.1446 6.07435C12.0602 6.36089 11.3573 7.40832 11.5033 8.52044C11.6492 9.63255 12.5984 10.4632 13.72 10.4603V10.4603Z" fill="#252420"/>
<path d="M20 15.3901H12C11.4477 15.3901 11 15.8379 11 16.3901C11 16.9424 11.4477 17.3901 12 17.3901H20C20.5523 17.3901 21 16.9424 21 16.3901C21 15.8379 20.5523 15.3901 20 15.3901V15.3901Z" fill="#252420"/>
</svg>
