<svg width="14" height="14" viewBox="0 0 14 14" fill="none" xmlns="http://www.w3.org/2000/svg">
<path d="M13.8638 5.62902H13.2999V5.59997H6.99997V8.39996H10.956C10.3788 10.0299 8.82801 11.1999 6.99997 11.1999C4.68053 11.1999 2.79999 9.3194 2.79999 6.99996C2.79999 4.68053 4.68053 2.79999 6.99997 2.79999C8.07061 2.79999 9.04466 3.20388 9.7863 3.86363L11.7662 1.88369C10.516 0.718546 8.84376 0 6.99997 0C3.13423 0 0 3.13423 0 6.99996C0 10.8657 3.13423 13.9999 6.99997 13.9999C10.8657 13.9999 13.9999 10.8657 13.9999 6.99996C13.9999 6.53062 13.9516 6.07247 13.8638 5.62902Z" fill="#FFC107"/>
<path d="M0.806641 3.74183L3.10648 5.42847C3.72878 3.88778 5.23587 2.79999 6.99951 2.79999C8.07016 2.79999 9.0442 3.20388 9.78585 3.86363L11.7658 1.88369C10.5156 0.718546 8.8433 0 6.99951 0C4.31082 0 1.97914 1.51794 0.806641 3.74183Z" fill="#FF3D00"/>
<path d="M7.00027 13.999C8.80837 13.999 10.4513 13.3071 11.6934 12.1818L9.52691 10.3486C8.80051 10.901 7.91288 11.1998 7.00027 11.1991C5.17958 11.1991 3.63364 10.0381 3.05124 8.41797L0.768555 10.1767C1.92705 12.4436 4.27974 13.999 7.00027 13.999Z" fill="#4CAF50"/>
<path d="M13.8638 5.62866H13.3V5.59961H7V8.3996H10.956C10.68 9.17534 10.1827 9.8532 9.52559 10.3494L9.52664 10.3487L11.6931 12.182C11.5398 12.3213 14 10.4996 14 6.9996C14 6.53025 13.9517 6.07211 13.8638 5.62866Z" fill="#1976D2"/>
</svg>
