<svg width="16" height="16" viewBox="0 0 16 16" fill="none" xmlns="http://www.w3.org/2000/svg">
<path fill-rule="evenodd" clip-rule="evenodd" d="M2.96563 1.83443C2.81475 1.68871 2.61267 1.60807 2.40291 1.60989C2.19315 1.61172 1.9925 1.69585 1.84418 1.84418C1.69585 1.9925 1.61172 2.19315 1.60989 2.40291C1.60807 2.61267 1.68871 2.81475 1.83443 2.96563L13.0344 14.1656C13.1853 14.3114 13.3874 14.392 13.5972 14.3902C13.8069 14.3883 14.0076 14.3042 14.1559 14.1559C14.3042 14.0076 14.3883 13.8069 14.3902 13.5972C14.392 13.3874 14.3114 13.1853 14.1656 13.0344L12.9872 11.856C14.2333 10.8625 15.1547 9.51997 15.6336 8.00003C14.6144 4.75443 11.5824 2.40003 8.00003 2.40003C6.74598 2.39833 5.50923 2.69272 4.39043 3.25923L2.96643 1.83443H2.96563ZM6.37443 5.24243L7.58563 6.45443C7.8569 6.38239 8.14234 6.38287 8.41337 6.45582C8.6844 6.52876 8.93151 6.67162 9.12998 6.87008C9.32845 7.06855 9.4713 7.31567 9.54425 7.5867C9.61719 7.85773 9.61767 8.14316 9.54563 8.41443L10.7568 9.62563C11.1176 9.01445 11.265 8.30067 11.1758 7.59657C11.0865 6.89248 10.7657 6.23803 10.2639 5.73618C9.76204 5.23432 9.10759 4.91355 8.40349 4.82431C7.6994 4.73508 6.98561 4.88244 6.37443 5.24323V5.24243Z" fill="#D4D4D4"/>
<path d="M9.96326 13.3574L7.80006 11.1934C7.0222 11.1447 6.28888 10.8137 5.7377 10.2627C5.18653 9.71168 4.85539 8.97845 4.80646 8.20061L1.86806 5.26221C1.19222 6.06702 0.681934 6.99734 0.366455 7.99981C1.38566 11.2454 4.41846 13.5998 8.00006 13.5998C8.67766 13.5998 9.33526 13.5158 9.96326 13.3574Z" fill="#D4D4D4"/>
</svg>
