<svg width="24" height="24" viewBox="0 0 24 24" fill="none" xmlns="http://www.w3.org/2000/svg">
<path d="M18.0091 1.66064H12.6181C12.2787 1.66064 12.0037 1.93576 12.0037 2.27506V2.70171C12.0037 3.63021 12.6176 4.41801 13.4609 4.68045V5.5991C13.4609 6.40539 13.9788 7.09258 14.6992 7.34666V7.92456C14.8998 7.89467 15.1049 7.87896 15.3136 7.87896C15.5223 7.87896 15.7275 7.89463 15.928 7.92456V7.34666C16.6484 7.09262 17.1663 6.40535 17.1663 5.5991V4.68045C18.0095 4.41805 18.6236 3.63021 18.6236 2.70171V2.27506C18.6236 1.93576 18.3484 1.66064 18.0091 1.66064Z" fill="#252420"/>
<path d="M9.49724 8.87826L9.49013 8.88537C8.98505 9.39046 8.72657 10.0894 8.78113 10.8029C8.84632 11.6555 8.93634 13.3275 8.8071 14.9469C8.6254 17.2229 8.11732 18.2079 7.7231 18.6335C7.46737 18.9095 7.18534 19.038 6.83547 19.038C6.46988 19.038 5.35741 19.038 5.2375 16.1405C5.1997 15.2262 5.28399 14.2862 5.48798 13.3468L6.16887 10.2112L6.38232 10.2576C6.42622 10.2671 6.47008 10.2717 6.51326 10.2717C6.79605 10.2717 7.05065 10.0753 7.11309 9.78758C7.1851 9.45596 6.97464 9.12879 6.64302 9.05678L6.42958 9.01045L7.5208 3.98522C7.59281 3.65364 7.38235 3.32642 7.05073 3.25441C6.71927 3.18223 6.39189 3.39281 6.31992 3.72447L5.2287 8.74971L5.00083 8.70024C4.66953 8.62818 4.34203 8.83868 4.27002 9.1703C4.19801 9.50192 4.40847 9.8291 4.74009 9.90111L4.96792 9.95059L4.28702 13.0861C4.06081 14.1278 3.96744 15.1725 4.0096 16.1914C4.0592 17.3899 4.26913 18.3 4.65144 18.9735C5.13177 19.8197 5.88693 20.2669 6.83535 20.2669C7.53179 20.2669 8.13368 19.9984 8.62443 19.4687C10.2734 17.6889 10.198 13.2168 10.0063 10.7093C9.97914 10.3538 10.1077 10.0057 10.3589 9.75443L10.366 9.74728C10.7931 9.32018 11.4615 9.27777 11.9367 9.6199C12.1774 9.28319 12.4672 8.98404 12.7956 8.73255C11.836 7.92827 10.399 7.97645 9.49724 8.87826Z" fill="#252420"/>
<path d="M18.7498 16.4728C18.9545 16.0616 19.0609 15.6165 19.0609 15.161C19.0609 14.3339 18.71 13.5497 18.0838 12.9492C18.1819 12.6533 18.2328 12.3415 18.2328 12.0278C18.2328 10.418 16.9231 9.1084 15.3133 9.1084C13.7036 9.1084 12.3939 10.4181 12.3939 12.0278C12.3939 12.3415 12.4447 12.6533 12.5429 12.9492C11.9167 13.5497 11.5658 14.3339 11.5658 15.161C11.5658 15.6165 11.6722 16.0616 11.8769 16.4728C11.0764 17.2229 10.6271 18.2092 10.6271 19.2489C10.6271 20.3733 11.14 21.4203 12.0714 22.197C12.1818 22.2891 12.3211 22.3395 12.4649 22.3395H18.1619C18.3058 22.3395 18.445 22.2891 18.5554 22.197C19.4868 21.4203 19.9997 20.3733 19.9997 19.2489C19.9996 18.209 19.5502 17.2229 18.7498 16.4728Z" fill="#252420"/>
</svg>
