<svg width="30" height="30" viewBox="0 0 30 30" fill="none" xmlns="http://www.w3.org/2000/svg">
<path d="M0 8C0 3.58172 3.58172 0 8 0H22C26.4183 0 30 3.58172 30 8V22C30 26.4183 26.4183 30 22 30H8C3.58172 30 0 26.4183 0 22V8Z" fill="#252420"/>
<g clip-path="url(#clip0_297_5528)">
<path d="M13.8481 20.0032H12.572V18.7977C15.1024 18.3412 17.0186 16.1279 17.0186 13.4742C17.0186 12.7568 16.8815 12.072 16.6257 11.4451C16.347 11.3402 16.0499 11.284 15.743 11.284C15.2561 11.284 14.7927 11.4222 14.393 11.6791C14.7285 12.197 14.9235 12.813 14.9235 13.4742C14.9235 15.3003 13.4398 16.7852 11.6137 16.7852C9.78874 16.7852 8.30446 15.3003 8.30446 13.4742C8.30446 12.0846 9.16532 10.894 10.3806 10.4036C10.6284 10.0153 10.9203 9.65056 11.2541 9.31734C11.7095 8.86254 12.2233 8.48516 12.7802 8.19324C12.4051 8.11065 12.0152 8.06592 11.616 8.06592C8.63424 8.06592 6.19849 10.4931 6.19849 13.4748C6.19849 16.0694 8.03835 18.2408 10.4638 18.7627V20.0038H9.27486C8.69503 20.0038 8.22474 20.4792 8.22474 21.0579C8.22474 21.6383 8.69503 22.1132 9.27486 22.1132H10.4638V22.9517C10.4638 23.5304 10.9386 24.0001 11.5179 24.0001C12.0977 24.0001 12.572 23.5304 12.572 22.9517V22.1132H13.8481C14.428 22.1132 14.8971 21.6383 14.8971 21.0579C14.8971 20.4787 14.4274 20.0032 13.8481 20.0032Z" fill="white"/>
<path d="M22.7067 6.0001C22.6585 5.99781 19.3533 6.03566 19.3533 6.03566C18.766 6.04254 18.2935 6.61836 18.3015 7.20794C18.3089 7.79178 18.785 8.35269 19.3665 8.35269C19.37 8.35269 19.3757 8.35269 19.3803 8.35269L19.9957 8.25118L18.8744 9.32768C17.9602 8.69221 16.8791 8.32229 15.7436 8.32229C14.2759 8.32229 12.896 8.88262 11.858 9.92013C10.1993 11.5782 9.82539 14.0363 10.7327 16.058C10.7912 16.0775 10.8503 16.0958 10.9105 16.1125C11.1107 16.1669 11.3171 16.1962 11.523 16.2031C11.5528 16.2042 11.5832 16.2048 11.6136 16.2048C12.1195 16.2048 12.6127 16.0643 13.0429 15.7982C12.0661 14.4825 12.1728 12.6105 13.3663 11.4164C14.0006 10.7816 14.8454 10.4311 15.7441 10.4311C16.6429 10.4311 17.4871 10.781 18.122 11.4164C19.4348 12.7287 19.4348 14.8633 18.122 16.1744C17.6379 16.6596 17.0311 16.9779 16.3704 17.1012C16.3251 17.1609 16.2787 17.2205 16.2316 17.2784C15.6134 18.0297 14.8236 18.6176 13.9353 18.9927C14.5094 19.1917 15.1184 19.2955 15.7436 19.2955C17.2118 19.2955 18.5917 18.7214 19.6303 17.6833C21.4931 15.82 21.8 12.9409 20.4247 10.812L21.6916 9.61215V10.3572C21.6916 10.9456 22.1573 11.4233 22.7457 11.4233C23.3347 11.4233 23.801 10.9456 23.801 10.3572V7.05768C23.8016 6.77264 23.7534 6.06491 22.7067 6.0001Z" fill="white"/>
</g>
<defs>
<clipPath id="clip0_297_5528">
<rect width="18" height="18" fill="white" transform="translate(6 6)"/>
</clipPath>
</defs>
</svg>
