<svg width="24" height="24" viewBox="0 0 24 24" fill="none" xmlns="http://www.w3.org/2000/svg">
<path d="M19.9962 14.9851C19.9049 16.0449 19.0208 16.8641 17.9493 16.8641C17.8568 16.8641 17.7632 16.8577 17.6712 16.8452C16.8704 16.7366 16.2349 16.183 15.9947 15.4562V15.8649C15.9947 16.0969 15.9156 16.6739 15.1835 17.0225C14.9526 17.1324 14.6622 17.2188 14.2959 17.2866C13.7251 17.3923 12.9702 17.4505 12.1704 17.4505C11.3708 17.4505 10.616 17.3923 10.0451 17.2866C9.67875 17.2188 9.38838 17.1324 9.15751 17.0225C8.42522 16.6739 8.34617 16.0968 8.34617 15.8649V15.4561C8.10603 16.1829 7.47054 16.7365 6.66962 16.8451C6.57751 16.8576 6.48391 16.864 6.39145 16.864C5.30306 16.864 4.40799 16.0187 4.34095 14.9346C2.98722 15.6052 2.22485 16.4204 2.22485 17.2198C2.22485 18.1341 3.22181 19.0689 4.96009 19.7845C6.86412 20.5684 9.40645 21.0002 12.1188 21.0002C14.8312 21.0002 17.3735 20.5684 19.2776 19.7845C21.0158 19.0689 22.0128 18.1341 22.0128 17.2198C22.0127 16.4404 21.2873 15.6459 19.9962 14.9851Z" fill="#252420"/>
<path d="M17.946 7.75636C18.0874 7.98509 18.3321 8.11091 18.5826 8.11091C18.7167 8.11091 18.8525 8.07477 18.975 7.99913C19.3261 7.78206 19.4348 7.32132 19.2177 6.97022C19.0425 6.68674 19.1252 6.29738 19.2824 5.68986C19.4479 5.05022 19.6538 4.25415 19.225 3.53054C19.0144 3.17541 18.5559 3.05815 18.2008 3.26865C17.8456 3.47915 17.7284 3.93769 17.9388 4.29287C18.0507 4.48158 17.941 4.90547 17.835 5.31544C17.6513 6.02567 17.4226 6.90963 17.946 7.75636Z" fill="#252420"/>
<path d="M20.4314 7.75636C20.5728 7.98505 20.8174 8.11091 21.0679 8.11091C21.202 8.11091 21.3378 8.07477 21.4603 7.99913C21.8115 7.78206 21.9202 7.32136 21.703 6.97022C21.5278 6.68674 21.6106 6.29738 21.7677 5.6899C21.9333 5.05022 22.1391 4.25415 21.7103 3.53054C21.4998 3.17541 21.0412 3.05815 20.6861 3.26865C20.3309 3.47915 20.2136 3.93769 20.4241 4.29287C20.536 4.48158 20.4263 4.90547 20.3203 5.31548C20.1366 6.02567 19.9079 6.90963 20.4314 7.75636Z" fill="#252420"/>
<path d="M5.23119 13.0069C5.20553 13.6282 5.30655 14.282 5.33448 14.8583C5.36217 15.4301 5.83562 15.8671 6.39147 15.8671C6.43907 15.8671 6.48714 15.8639 6.53567 15.8573C7.07405 15.7843 7.47001 15.316 7.45265 14.7729L7.39406 12.9463L9.34287 11.918V15.8647C9.34287 16.2573 10.7568 16.4536 12.1704 16.4536C13.5843 16.4536 14.998 16.2573 14.998 15.8647V11.918L16.2738 12.5911L16.8624 12.9017L16.9469 12.9463L16.9153 13.9312L16.8883 14.7729C16.8708 15.316 17.2668 15.7842 17.8053 15.8573C17.8538 15.8638 17.9019 15.8671 17.9495 15.8671C18.5054 15.8671 18.9787 15.4303 19.0065 14.8584C19.079 13.3678 19.3642 12.0201 18.0482 10.9814C17.3211 10.4075 16.6111 9.75598 15.8534 9.22887C15.3708 8.89317 14.8012 8.75597 14.2252 8.6912C13.5797 8.61865 13.0947 8.83673 12.4656 8.83673H12.0862H11.7067C11.2375 8.83673 10.8325 8.64736 10.3661 8.65553C9.25467 8.67501 8.56205 9.1975 7.69967 9.80404C6.92769 10.347 6.09019 10.9111 5.57779 11.7248C5.33866 12.1046 5.25023 12.5469 5.23119 13.0069Z" fill="#252420"/>
<path d="M3.98834 8.41519C5.09153 8.41519 5.98906 7.51762 5.98906 6.41436C5.98906 6.01284 5.87051 5.62626 5.64605 5.29452L4.49007 3.29224C4.38568 3.11143 4.1927 3 3.98396 3C3.77522 3 3.58225 3.11139 3.47786 3.29224L2.24561 5.42656C2.23368 5.44721 2.22316 5.46837 2.21401 5.48996C2.06565 5.77442 1.98755 6.09255 1.98755 6.41436C1.98755 7.51758 2.88508 8.41519 3.98834 8.41519Z" fill="#252420"/>
<path d="M11.5464 7.69538C11.7081 7.69538 11.8947 7.69534 12.1112 7.69534C12.3277 7.69534 12.5142 7.69534 12.6759 7.69538C13.3317 7.59893 13.8352 7.03412 13.8352 6.35158V5.62075C13.8352 4.87043 13.2269 4.26221 12.4765 4.26221H11.7457C10.9954 4.26221 10.3872 4.87043 10.3872 5.62075V6.35158C10.3872 7.03408 10.8906 7.59889 11.5464 7.69538Z" fill="#252420"/>
</svg>
