<svg width="24" height="24" viewBox="0 0 24 24" fill="none" xmlns="http://www.w3.org/2000/svg">
<path d="M6.4064 15.27C6.6936 16.2475 6.99816 17.2841 6.30977 20.1393C4.60607 19.6747 2.28956 16.3756 2 12.6187V11.1038C2.04714 10.5113 2.14815 9.91876 2.3165 9.333C5.59597 -2.09275 22.862 0.283967 21.9664 13.3323C21.8384 15.2445 20.7273 16.9681 19.697 18.5504C18.5253 17.7828 17.367 14.1874 17.4074 12.8812C17.436 11.8989 18.0448 11.3043 18.6813 10.6826C19.3972 9.98347 20.1482 9.25004 20.1482 7.89215C19.5516 7.94638 19.141 8.45761 18.7132 8.99031C18.185 9.64811 17.6304 10.3387 16.6667 10.2419C16.4559 9.57801 16.7089 9.19634 16.9579 8.82056C17.1862 8.47609 17.4112 8.13659 17.2728 7.58917C16.3906 7.29293 15.926 7.69017 15.4546 8.42405C15.0474 9.05866 15.1182 9.28159 15.2196 9.60056C15.2892 9.81966 15.3732 10.0841 15.3266 10.5584C14.2425 11.6491 13.3266 11.6424 11.8115 11.4673C11.1342 10.799 11.0709 10.5759 10.9521 10.1572C10.8902 9.93891 10.8132 9.6675 10.6263 9.2522C10.3562 8.65309 10.1047 8.40032 9.81362 8.10788C9.64021 7.93364 9.45278 7.74531 9.23907 7.46125C9.28225 6.64718 9.50905 6.30622 9.69306 6.02958C9.91082 5.70219 10.0687 5.46491 9.79126 4.64016C9.10072 4.46893 8.74554 4.83692 8.261 5.33895C8.1549 5.44888 8.04259 5.56523 7.91921 5.68376L7.8384 7.60937C7.1718 8.28571 6.94075 8.51377 6.85711 8.78695C6.76922 9.07399 6.84409 9.41084 6.74749 10.3699C6.7108 10.7397 6.57695 11.2872 6.44173 11.8404C6.2791 12.5056 6.11449 13.1789 6.11449 13.5613C6.11449 14.2765 6.25813 14.7654 6.4064 15.27Z" fill="#252420"/>
<path d="M14.7464 16.4496C15.5717 21.1389 15.7962 22.4146 11.3606 21.8898C10.6266 21.1615 10.6278 20.9721 10.632 20.2602C10.633 20.0968 10.6341 19.9059 10.6266 19.6747C10.616 19.3671 10.5775 18.982 10.534 18.5479C10.3559 16.7681 10.0953 14.1636 11.3404 12.686C13.8252 12.4907 14.2495 13.5949 14.6131 15.6888C14.6588 15.9518 14.7034 16.2053 14.7464 16.4496Z" fill="#252420"/>
<path d="M18.1166 19.9781C17.6139 20.3833 17.4383 20.5248 16.7276 20.6106C16.1148 19.5939 15.9599 17.7491 16.4986 16.7122C17.6434 17.0556 18.3774 18.7792 18.2764 19.8498C18.2194 19.8953 18.1664 19.938 18.1166 19.9781Z" fill="#252420"/>
<path d="M9.0447 20.8406C9.04086 21.0837 9.03735 21.3067 9.03735 21.4993C7.84056 21.3932 7.86186 20.6524 7.89024 19.6653C7.89428 19.525 7.89846 19.3796 7.8993 19.2303C7.90074 18.8791 7.88915 18.5679 7.87892 18.2931C7.84149 17.288 7.82221 16.7703 8.52556 16.5641C9.09964 17.3562 9.06686 19.4352 9.0447 20.8406Z" fill="#252420"/>
</svg>
