<svg width="24" height="24" viewBox="0 0 24 24" fill="none" xmlns="http://www.w3.org/2000/svg">
<path d="M11.9999 6.3271C10.9744 6.3271 10.1235 5.49801 10.1235 4.47256C10.1235 3.4471 10.9526 2.59619 11.9999 2.59619C13.0253 2.59619 13.8544 3.42528 13.8544 4.45074C13.8544 5.49801 13.0253 6.3271 11.9999 6.3271Z" fill="#252420"/>
<path d="M15.709 9.03271C15.5999 7.81089 14.5962 6.89453 13.3744 6.89453H10.6253C9.40352 6.89453 8.39988 7.83271 8.29079 9.03271L7.91988 13.4182C7.89806 13.7891 8.1817 14.1382 8.55261 14.16H8.6617C9.01079 14.1163 9.27261 13.8327 9.29443 13.4836L9.6217 9.40362C9.64352 9.29453 9.66534 9.05453 9.88352 9.05453C9.94897 9.05453 10.0581 9.07635 10.0581 9.33817V20.5745C10.0362 21.0327 10.3853 21.4254 10.8435 21.4473C11.3017 21.4691 11.6944 21.12 11.7162 20.6618C11.7162 20.64 11.7162 20.5963 11.7162 20.5745V14.3127C11.8908 14.2909 12.0653 14.2909 12.2617 14.3127V20.5745C12.2399 21.0327 12.589 21.4254 13.0472 21.4473C13.5053 21.4691 13.8981 21.12 13.9199 20.6618C13.9199 20.64 13.9199 20.5963 13.9199 20.5745V9.33817C13.9199 9.07635 14.029 9.05453 14.0944 9.05453C14.2908 9.05453 14.3344 9.29453 14.3563 9.40362L14.6835 13.4836C14.7053 13.8327 14.9672 14.1163 15.3163 14.16C15.6872 14.1818 16.0363 13.92 16.0581 13.5273C16.0581 13.4836 16.0581 13.4618 16.0581 13.4182L15.709 9.03271Z" fill="#252420"/>
</svg>
