<svg width="30" height="30" viewBox="0 0 30 30" fill="none" xmlns="http://www.w3.org/2000/svg">
<path d="M0 8C0 3.58172 3.58172 0 8 0H22C26.4183 0 30 3.58172 30 8V22C30 26.4183 26.4183 30 22 30H8C3.58172 30 0 26.4183 0 22V8Z" fill="#252420"/>
<path d="M7.27441 18.5397H9.67441V12.1797L7.27441 13.8897V11.6997L9.80941 9.89973H11.9244V18.5397H13.8744V20.3997H7.27441V18.5397Z" fill="white"/>
<path d="M18.8977 20.5797C18.2677 20.5797 17.6977 20.5097 17.1877 20.3697C16.6877 20.2197 16.2627 20.0147 15.9127 19.7547C15.5727 19.4847 15.3077 19.1647 15.1177 18.7947C14.9377 18.4147 14.8477 17.9947 14.8477 17.5347C14.8477 16.9447 15.0277 16.4197 15.3877 15.9597C15.7477 15.4897 16.2827 15.1597 16.9927 14.9697C16.4627 14.7997 16.0227 14.5047 15.6727 14.0847C15.3227 13.6647 15.1477 13.1647 15.1477 12.5847C15.1477 12.1647 15.2277 11.7797 15.3877 11.4297C15.5577 11.0797 15.8027 10.7797 16.1227 10.5297C16.4427 10.2697 16.8327 10.0697 17.2927 9.92973C17.7627 9.78973 18.2977 9.71973 18.8977 9.71973C19.4977 9.71973 20.0277 9.78973 20.4877 9.92973C20.9577 10.0697 21.3527 10.2697 21.6727 10.5297C22.0027 10.7797 22.2477 11.0797 22.4077 11.4297C22.5777 11.7797 22.6627 12.1647 22.6627 12.5847C22.6627 13.1647 22.4877 13.6597 22.1377 14.0697C21.7877 14.4697 21.3427 14.7697 20.8027 14.9697C22.2327 15.4097 22.9477 16.2647 22.9477 17.5347C22.9477 17.9947 22.8527 18.4147 22.6627 18.7947C22.4827 19.1647 22.2177 19.4847 21.8677 19.7547C21.5277 20.0147 21.1077 20.2197 20.6077 20.3697C20.1077 20.5097 19.5377 20.5797 18.8977 20.5797ZM18.8977 18.6897C19.5177 18.6897 19.9727 18.5697 20.2627 18.3297C20.5527 18.0897 20.6977 17.7647 20.6977 17.3547C20.6977 16.9047 20.5277 16.5497 20.1877 16.2897C19.8577 16.0197 19.4277 15.8447 18.8977 15.7647C18.3677 15.8447 17.9327 16.0197 17.5927 16.2897C17.2627 16.5497 17.0977 16.9047 17.0977 17.3547C17.0977 17.7647 17.2477 18.0897 17.5477 18.3297C17.8477 18.5697 18.2977 18.6897 18.8977 18.6897ZM18.8977 14.2347C19.3477 14.1547 19.7127 13.9997 19.9927 13.7697C20.2727 13.5297 20.4127 13.1997 20.4127 12.7797C20.4127 12.3897 20.2777 12.0997 20.0077 11.9097C19.7477 11.7097 19.3777 11.6097 18.8977 11.6097C18.4277 11.6097 18.0577 11.7097 17.7877 11.9097C17.5277 12.0997 17.3977 12.3897 17.3977 12.7797C17.3977 13.1997 17.5327 13.5297 17.8027 13.7697C18.0827 13.9997 18.4477 14.1547 18.8977 14.2347Z" fill="white"/>
</svg>
