<svg width="12" height="12" viewBox="0 0 12 12" fill="none" xmlns="http://www.w3.org/2000/svg">
<path fill-rule="evenodd" clip-rule="evenodd" d="M4.05581 0.435031C4.55367 0.879803 4.86739 1.61705 4.79713 2.3616C4.78224 2.51931 4.77462 2.67918 4.77462 2.84093C4.77462 5.75021 7.26696 8.16335 10.411 8.16335C11.0367 8.16335 11.5723 8.51539 11.8311 8.99059C11.964 9.23448 12.0401 9.54244 11.9781 9.86927C11.9136 10.2088 11.7135 10.4949 11.427 10.6933C10.2381 11.5165 8.77668 12 7.20152 12C3.25538 12 0 8.95321 0 5.12732C0 3.337 0.717937 1.70951 1.88505 0.491184C2.19217 0.170581 2.59189 -0.0146443 3.03209 0.000907268C3.44951 0.0156541 3.80049 0.206936 4.05581 0.435031ZM2.95079 1.54656C2.95079 1.54655 2.95111 1.54665 2.95173 1.54689L2.95079 1.54656ZM3.00002 1.57967C3.00244 1.58172 3.00494 1.5839 3.00752 1.58621C3.06591 1.63837 3.13386 1.72931 3.18243 1.85196C3.23021 1.97263 3.2498 2.10033 3.23876 2.21733C3.21936 2.42291 3.20947 2.63092 3.20947 2.84093C3.20947 6.55814 6.28252 9.53988 10.0764 9.70629C9.23636 10.1778 8.2542 10.4497 7.20152 10.4497C4.05749 10.4497 1.56516 8.0366 1.56516 5.12732C1.56516 3.76814 2.1041 2.52506 3.00002 1.57967Z" fill="#FFC83A"/>
</svg>
