<svg width="24" height="24" viewBox="0 0 24 24" fill="none" xmlns="http://www.w3.org/2000/svg">
<path d="M11.0164 16.0869C9.46591 15.9252 8.06793 15.5433 6.87104 14.6072C6.72253 14.4907 6.5692 14.3785 6.43368 14.2484C5.9098 13.7453 5.85701 13.169 6.27155 12.5752C6.62618 12.067 7.22148 11.9311 7.84024 12.2229C7.96006 12.2794 8.07422 12.35 8.18356 12.4258C10.4142 13.9585 13.4784 14.0008 15.7174 12.4947C15.9393 12.3247 16.1764 12.186 16.4512 12.1152C16.9855 11.978 17.4839 12.1743 17.7706 12.6418C18.0982 13.1757 18.094 13.6969 17.6904 14.1114C17.0712 14.7469 16.3266 15.2067 15.4992 15.5276C14.7168 15.8309 13.8599 15.9836 13.0118 16.085C13.1397 16.2243 13.2001 16.2928 13.2801 16.3732C14.4317 17.5303 15.5884 18.6826 16.7363 19.8432C17.1274 20.2387 17.209 20.7291 16.9937 21.1891C16.7583 21.6918 16.2313 22.0225 15.7145 21.9871C15.3871 21.9645 15.1318 21.8015 14.9049 21.573C14.0358 20.6985 13.1504 19.8401 12.2989 18.949C12.0511 18.6899 11.932 18.7389 11.7133 18.9639C10.839 19.864 9.95041 20.7502 9.05661 21.6314C8.65528 22.0271 8.17769 22.0983 7.71226 21.8723C7.2175 21.6325 6.90267 21.1275 6.92697 20.6199C6.94373 20.2766 7.11256 20.0144 7.34821 19.7791C8.48791 18.6411 9.62448 17.5001 10.7615 16.3602C10.8367 16.2844 10.9068 16.204 11.0164 16.0869Z" fill="#252420"/>
<path d="M11.9614 12.1224C9.19542 12.1129 6.92732 9.8199 6.94344 7.04949C6.95936 4.2485 9.22893 1.99129 12.0222 1.99904C14.8211 2.00658 17.0676 4.29626 17.0535 7.12637C17.0393 9.89112 14.7555 12.132 11.9614 12.1224ZM14.4752 7.05619C14.4704 5.68063 13.3749 4.58554 12.0021 4.58428C10.6177 4.58281 9.51234 5.6978 9.52302 7.08594C9.53329 8.45627 10.6382 9.54361 12.0148 9.53858C13.3873 9.53376 14.4798 8.43155 14.4752 7.05619Z" fill="#252420"/>
</svg>
