<svg width="24" height="24" viewBox="0 0 24 24" fill="none" xmlns="http://www.w3.org/2000/svg">
<path d="M0 8C0 3.58172 3.58172 0 8 0H16C20.4183 0 24 3.58172 24 8V16C24 20.4183 20.4183 24 16 24H8C3.58172 24 0 20.4183 0 16V8Z" fill="#FFC83A"/>
<path d="M7.85193 8.76603L9.83715 10.5128L11.6058 8.33507C11.6554 8.27419 11.718 8.22527 11.7891 8.19194C11.8601 8.15862 11.9378 8.14176 12.0162 8.14261C12.0947 8.14346 12.172 8.16201 12.2423 8.19687C12.3126 8.23172 12.3742 8.282 12.4224 8.34394L14.1102 10.5123L16.1596 8.74046C16.2401 8.67102 16.3398 8.62782 16.4455 8.61664C16.5512 8.60546 16.6578 8.62684 16.7511 8.6779C16.8443 8.72897 16.9197 8.80729 16.9672 8.90239C17.0147 8.99749 17.032 9.10482 17.0168 9.21003L16.2342 14.6085H7.78567L6.99106 9.23455C6.97528 9.12876 6.99239 9.02067 7.04008 8.92493C7.08777 8.82919 7.16374 8.75042 7.25768 8.69929C7.35163 8.64816 7.45903 8.62714 7.56532 8.63908C7.67161 8.65101 7.77167 8.69533 7.85193 8.76603ZM7.82637 15.1302H16.1742V15.6519C16.1742 15.7903 16.1192 15.923 16.0214 16.0209C15.9235 16.1187 15.7908 16.1737 15.6525 16.1737H8.34811C8.20973 16.1737 8.07703 16.1187 7.97918 16.0209C7.88134 15.923 7.82637 15.7903 7.82637 15.6519V15.1302Z" fill="#252420"/>
</svg>
