<svg width="75" height="33" viewBox="0 0 75 33" fill="none" xmlns="http://www.w3.org/2000/svg">
<path d="M0 8.5C0 4.08172 3.58172 0.5 8 0.5H67C71.4183 0.5 75 4.08172 75 8.5V24.5C75 28.9183 71.4183 32.5 67 32.5H8C3.58172 32.5 0 28.9183 0 24.5V8.5Z" fill="#252420"/>
<path d="M11.0486 10.3024L14.8536 13.6504L18.2436 9.47637C18.3386 9.35968 18.4586 9.26591 18.5948 9.20204C18.731 9.13817 18.8798 9.10585 19.0302 9.10748C19.1807 9.10911 19.3288 9.14466 19.4635 9.21147C19.5983 9.27829 19.7163 9.37464 19.8086 9.49337L23.0436 13.6494L26.9716 10.2534C27.1259 10.1203 27.3171 10.0375 27.5197 10.016C27.7223 9.99462 27.9266 10.0356 28.1053 10.1335C28.284 10.2313 28.4285 10.3815 28.5196 10.5637C28.6106 10.746 28.6438 10.9517 28.6146 11.1534L27.1146 21.5004H10.9216L9.39864 11.2004C9.36839 10.9976 9.40119 10.7904 9.49259 10.6069C9.584 10.4234 9.7296 10.2725 9.90966 10.1745C10.0897 10.0765 10.2956 10.0362 10.4993 10.059C10.703 10.0819 10.8948 10.1669 11.0486 10.3024ZM10.9996 22.5004H26.9996V23.5004C26.9996 23.7656 26.8943 24.0199 26.7068 24.2075C26.5192 24.395 26.2649 24.5004 25.9996 24.5004H11.9996C11.7344 24.5004 11.4801 24.395 11.2925 24.2075C11.105 24.0199 10.9996 23.7656 10.9996 23.5004V22.5004Z" fill="#FFC83A"/>
<path d="M39.952 16.852C40.368 16.852 40.7333 16.7987 41.048 16.692C41.368 16.5853 41.632 16.436 41.84 16.244C42.0533 16.0467 42.2133 15.8093 42.32 15.532C42.4267 15.2547 42.48 14.9453 42.48 14.604C42.48 14.268 42.4267 13.9667 42.32 13.7C42.2187 13.4333 42.064 13.2067 41.856 13.02C41.648 12.8333 41.384 12.692 41.064 12.596C40.7493 12.4947 40.3787 12.444 39.952 12.444H38.24V16.852H39.952ZM39.952 10.98C40.704 10.98 41.3547 11.068 41.904 11.244C42.4587 11.42 42.9147 11.668 43.272 11.988C43.6347 12.3027 43.904 12.684 44.08 13.132C44.256 13.5747 44.344 14.0653 44.344 14.604C44.344 15.1533 44.2507 15.6573 44.064 16.116C43.8773 16.5693 43.6 16.9613 43.232 17.292C42.864 17.6173 42.4053 17.8733 41.856 18.06C41.312 18.2413 40.6773 18.332 39.952 18.332H38.24V22.5H36.368V10.98H39.952ZM49.4776 16.5C49.9043 16.5 50.2776 16.4493 50.5976 16.348C50.9176 16.2413 51.1843 16.0947 51.3976 15.908C51.611 15.7213 51.771 15.5 51.8776 15.244C51.9843 14.9827 52.0376 14.6947 52.0376 14.38C52.0376 13.7507 51.8296 13.2707 51.4136 12.94C50.9976 12.6093 50.3683 12.444 49.5256 12.444H48.0056V16.5H49.4776ZM54.9016 22.5H53.2296C52.899 22.5 52.659 22.372 52.5096 22.116L49.8216 18.236C49.731 18.1027 49.6323 18.0067 49.5256 17.948C49.419 17.8893 49.259 17.86 49.0456 17.86H48.0056V22.5H46.1336V10.98H49.5256C50.283 10.98 50.9336 11.0573 51.4776 11.212C52.027 11.3667 52.4776 11.588 52.8296 11.876C53.1816 12.1587 53.4403 12.5 53.6056 12.9C53.7763 13.3 53.8616 13.7453 53.8616 14.236C53.8616 14.636 53.8003 15.0093 53.6776 15.356C53.5603 15.7027 53.387 16.0173 53.1576 16.3C52.9336 16.5827 52.6563 16.828 52.3256 17.036C51.995 17.244 51.619 17.4067 51.1976 17.524C51.427 17.6627 51.6243 17.8573 51.7896 18.108L54.9016 22.5ZM66.9733 16.74C66.9733 17.5933 66.8346 18.38 66.5573 19.1C66.2799 19.82 65.8879 20.4413 65.3813 20.964C64.8799 21.4813 64.2746 21.8867 63.5653 22.18C62.8613 22.4733 62.0773 22.62 61.2133 22.62C60.3546 22.62 59.5706 22.4733 58.8613 22.18C58.1573 21.8867 57.5519 21.4813 57.0453 20.964C56.5386 20.4413 56.1466 19.82 55.8693 19.1C55.5919 18.38 55.4533 17.5933 55.4533 16.74C55.4533 15.8867 55.5919 15.1 55.8693 14.38C56.1466 13.66 56.5386 13.0387 57.0453 12.516C57.5519 11.9933 58.1573 11.5853 58.8613 11.292C59.5706 10.9987 60.3546 10.852 61.2133 10.852C62.0773 10.852 62.8613 10.9987 63.5653 11.292C64.2746 11.5853 64.8799 11.9933 65.3813 12.516C65.8879 13.0387 66.2799 13.66 66.5573 14.38C66.8346 15.1 66.9733 15.8867 66.9733 16.74ZM65.0613 16.74C65.0613 16.0787 64.9706 15.484 64.7893 14.956C64.6133 14.428 64.3573 13.98 64.0213 13.612C63.6906 13.244 63.2879 12.9613 62.8133 12.764C62.3386 12.5667 61.8053 12.468 61.2133 12.468C60.6266 12.468 60.0959 12.5667 59.6213 12.764C59.1466 12.9613 58.7413 13.244 58.4053 13.612C58.0693 13.98 57.8106 14.428 57.6293 14.956C57.4479 15.484 57.3573 16.0787 57.3573 16.74C57.3573 17.4067 57.4479 18.004 57.6293 18.532C57.8106 19.06 58.0693 19.508 58.4053 19.876C58.7413 20.2387 59.1466 20.5187 59.6213 20.716C60.0959 20.908 60.6266 21.004 61.2133 21.004C61.8053 21.004 62.3386 20.908 62.8133 20.716C63.2879 20.5187 63.6906 20.2387 64.0213 19.876C64.3573 19.508 64.6133 19.06 64.7893 18.532C64.9706 18.004 65.0613 17.4067 65.0613 16.74Z" fill="#FFC83A"/>
</svg>
