<svg width="24" height="24" viewBox="0 0 24 24" fill="none" xmlns="http://www.w3.org/2000/svg">
<g clip-path="url(#clip0_1016_61445)">
<path d="M5.20313 18.7961C1.47215 15.0524 1.47215 8.95354 5.20313 5.20977L7.1934 7.20005V1.20361H1.19697L3.51363 3.52027C-1.17088 8.19839 -1.17088 15.8075 3.51363 20.492C6.47025 23.4423 10.5852 24.5366 14.3994 23.7558V21.2856C11.2188 22.1111 7.69257 21.2856 5.20313 18.7961Z" fill="#252420"/>
<path d="M20.4853 3.52048C17.5287 0.557457 13.4138 -0.536876 9.59961 0.243876V2.71412C12.7802 1.88858 16.3128 2.72692 18.7958 5.20997C22.5396 8.95374 22.5396 15.0526 18.7958 18.7963L16.8056 16.8061V22.8089H22.8084L20.4917 20.4922C25.1699 15.8077 25.1699 8.19859 20.4853 3.52048Z" fill="#252420"/>
</g>
<defs>
<clipPath id="clip0_1016_61445">
<rect width="24" height="24" fill="white"/>
</clipPath>
</defs>
</svg>
