<svg width="24" height="25" viewBox="0 0 24 25" fill="none" xmlns="http://www.w3.org/2000/svg">
<path d="M18.04 14.05C17.62 14.46 17.38 15.05 17.44 15.68C17.53 16.76 18.52 17.55 19.6 17.55H21.5V18.74C21.5 20.81 19.81 22.5 17.74 22.5H7.63C7.94 22.24 8.21 21.92 8.42 21.56C8.79 20.96 9 20.25 9 19.5C9 17.29 7.21 15.5 5 15.5C4.06 15.5 3.19 15.83 2.5 16.38V12.01C2.5 9.94001 4.19 8.25 6.26 8.25H17.74C19.81 8.25 21.5 9.94001 21.5 12.01V13.45H19.48C18.92 13.45 18.41 13.67 18.04 14.05Z" stroke="#F77C4E" stroke-width="1.5" stroke-linecap="round" stroke-linejoin="round"/>
<path d="M2.5 12.9093V8.33937C2.5 7.14937 3.23 6.08933 4.34 5.66933L12.28 2.66933C13.52 2.19933 14.85 3.11936 14.85 4.44936V8.24934" stroke="#F77C4E" stroke-width="1.5" stroke-linecap="round" stroke-linejoin="round"/>
<path d="M22.5588 14.4692V16.5292C22.5588 17.0792 22.1188 17.5292 21.5588 17.5492H19.5988C18.5188 17.5492 17.5288 16.7592 17.4388 15.6792C17.3788 15.0492 17.6188 14.4592 18.0388 14.0492C18.4088 13.6692 18.9188 13.4492 19.4788 13.4492H21.5588C22.1188 13.4692 22.5588 13.9192 22.5588 14.4692Z" stroke="#F77C4E" stroke-width="1.5" stroke-linecap="round" stroke-linejoin="round"/>
<path d="M7 12.5H14" stroke="#F77C4E" stroke-width="1.5" stroke-linecap="round" stroke-linejoin="round"/>
<path d="M9 19.5C9 20.25 8.79 20.96 8.42 21.56C8.21 21.92 7.94 22.24 7.63 22.5C6.93 23.13 6.01 23.5 5 23.5C3.54 23.5 2.27 22.72 1.58 21.56C1.21 20.96 1 20.25 1 19.5C1 18.24 1.58 17.11 2.5 16.38C3.19 15.83 4.06 15.5 5 15.5C7.21 15.5 9 17.29 9 19.5Z" stroke="#F77C4E" stroke-width="1.5" stroke-miterlimit="10" stroke-linecap="round" stroke-linejoin="round"/>
<path d="M6.06922 20.5397L3.94922 18.4297" stroke="#F77C4E" stroke-width="1.5" stroke-miterlimit="10" stroke-linecap="round" stroke-linejoin="round"/>
<path d="M6.04969 18.459L3.92969 20.569" stroke="#F77C4E" stroke-width="1.5" stroke-miterlimit="10" stroke-linecap="round" stroke-linejoin="round"/>
</svg>
