<svg width="24" height="24" viewBox="0 0 24 24" fill="none" xmlns="http://www.w3.org/2000/svg">
<path d="M13.1899 12.3311H13.6975V11.6689L13.1899 12.3311Z" fill="#252420"/>
<path d="M19.0711 4.92891C17.1823 3.0402 14.6711 2 12 2C9.32891 2 6.8177 3.0402 4.92891 4.92891C3.0402 6.8177 2 9.32891 2 12C2 14.6711 3.0402 17.1823 4.92891 19.0711C6.8177 20.9598 9.32891 22 12 22C14.6711 22 17.1823 20.9598 19.0711 19.0711C20.9598 17.1823 22 14.6711 22 12C22 9.32891 20.9598 6.8177 19.0711 4.92891ZM15.11 12.3311V13.269H14.6244V13.9531H13.5762V13.269H12.1582V12.3311L13.9072 10.1021H14.6245V12.3311H15.11ZM12 18.8359C8.23066 18.8359 5.16406 15.7693 5.16406 12C5.16406 8.23066 8.23066 5.16406 12 5.16406V4.09273L14.087 5.75L12 7.40727V6.33594C8.87684 6.33594 6.33594 8.87684 6.33594 12C6.33594 15.1232 8.87684 17.6641 12 17.6641C15.1232 17.6641 17.6641 15.1232 17.6641 12H18.8359C18.8359 15.7693 15.7693 18.8359 12 18.8359ZM10.5306 11.0179C10.4718 10.9738 10.3908 10.9517 10.2879 10.9517C10.1665 10.9517 10.0515 10.983 9.94301 11.0455C9.83449 11.1081 9.72137 11.2092 9.60371 11.349L8.9416 10.571C9.01145 10.4938 9.10164 10.423 9.21195 10.3586C9.32231 10.2943 9.44453 10.2391 9.57883 10.1931C9.71305 10.1471 9.85559 10.1112 10.0064 10.0855C10.1572 10.0598 10.3117 10.0469 10.4699 10.0469C10.8928 10.0469 11.2138 10.1343 11.4327 10.3089C11.6514 10.4837 11.7609 10.7274 11.7609 11.04C11.7609 11.1541 11.7462 11.2552 11.7168 11.3435C11.6873 11.4318 11.6479 11.5118 11.5982 11.5835C11.5486 11.6552 11.4887 11.7205 11.4189 11.7793C11.349 11.8382 11.2755 11.8934 11.1982 11.9448C11.1062 12.0074 11.0097 12.0672 10.9086 12.1242C10.8073 12.1812 10.7072 12.2447 10.6079 12.3145H11.8216V13.2525H8.91406C8.91406 13.0686 8.92867 12.9068 8.95816 12.767C8.98758 12.6272 9.03539 12.5013 9.10164 12.389C9.16785 12.2768 9.25336 12.1766 9.3582 12.0883C9.46305 12 9.5927 11.9136 9.74719 11.8289C9.94582 11.7223 10.103 11.6368 10.2189 11.5724C10.3348 11.5081 10.4221 11.4557 10.481 11.4151C10.5398 11.3747 10.5775 11.3407 10.5941 11.313C10.6107 11.2855 10.6189 11.2551 10.6189 11.222C10.6189 11.1302 10.5894 11.0621 10.5306 11.0179Z" fill="#252420"/>
</svg>
