<svg width="24" height="24" viewBox="0 0 24 24" fill="none" xmlns="http://www.w3.org/2000/svg">
<path d="M6.49148 6.33031C6.62997 6.55432 6.86962 6.67754 7.11497 6.67754C7.24635 6.67754 7.37942 6.64215 7.49935 6.56801C7.84332 6.3553 7.94975 5.90407 7.73705 5.5601C7.57738 5.30192 7.65478 4.93955 7.80123 4.3735C7.95862 3.76527 8.15446 3.00828 7.74411 2.31602C7.53795 1.96816 7.08896 1.85329 6.74087 2.05945C6.39301 2.26564 6.27815 2.71479 6.48434 3.06269C6.58411 3.23107 6.48211 3.62533 6.38348 4.00669C6.20883 4.68173 5.99145 5.52177 6.49148 6.33031Z" fill="#252420"/>
<path d="M8.83538 6.3302C8.9739 6.5542 9.21356 6.67747 9.45891 6.67747C9.59029 6.67747 9.72328 6.64212 9.84329 6.56794C10.1873 6.35531 10.2937 5.90404 10.081 5.56011C9.92136 5.30185 9.99872 4.93956 10.1452 4.37346C10.3026 3.76524 10.4984 3.00829 10.0881 2.31603C9.88189 1.96813 9.43262 1.8533 9.08484 2.05946C8.73695 2.26565 8.62208 2.7148 8.82824 3.06266C8.92808 3.23104 8.82604 3.62534 8.72737 4.00666C8.55284 4.68162 8.3355 5.52166 8.83538 6.3302Z" fill="#252420"/>
<path d="M2.74683 14.4775L3.41041 18.8334C3.41414 18.8577 3.41598 18.8823 3.41598 18.9069C3.41598 19.7412 4.02633 20.4354 4.82392 20.5672L4.31499 14.4775H2.74683Z" fill="#252420"/>
<path d="M5.80602 20.5901H7.79995V20.2554C7.59658 19.9066 7.42718 19.5326 7.2987 19.1361C7.13087 18.6178 7.22197 18.0453 7.54232 17.6049C7.61792 17.5009 7.70474 17.4073 7.79991 17.3242V14.4775H5.29517L5.80602 20.5901Z" fill="#252420"/>
<path d="M8.92402 16.9012H11.0784L11.281 14.4775H8.77612V16.9084C8.82512 16.9041 8.87439 16.9012 8.92402 16.9012Z" fill="#252420"/>
<path d="M12.0583 16.9012H13.4597L13.829 14.4775H12.2609L12.0583 16.9012Z" fill="#252420"/>
<path d="M14.4051 10.6931L14.5645 9.64698C14.6051 9.38021 14.5275 9.10975 14.3517 8.90509C14.1758 8.70042 13.9202 8.58301 13.6503 8.58301H12.7531L12.5791 10.6651H14.1617C14.2443 10.6651 14.3259 10.6749 14.4051 10.6931Z" fill="#252420"/>
<path d="M2.40404 10.6651H3.99675L3.82273 8.58301H2.92549C2.65562 8.58301 2.39996 8.70042 2.22409 8.90509C2.04825 9.10975 1.9707 9.38021 2.0113 9.64698L2.17034 10.6909C2.2466 10.6741 2.32487 10.6651 2.40404 10.6651Z" fill="#252420"/>
<path d="M7.79989 10.6651V8.58301H4.80249L4.97652 10.6651H7.79989Z" fill="#252420"/>
<path d="M8.77612 10.6651H11.5996L11.7736 8.58301H8.77612V10.6651Z" fill="#252420"/>
<path d="M21.867 8.06193C21.6332 7.73193 21.1762 7.65398 20.8462 7.88771C20.6943 7.9954 17.2049 10.5428 15.9324 17.8285H8.99031C8.75603 17.8285 8.53591 17.9406 8.39813 18.1301C8.26032 18.3195 8.22152 18.5635 8.29366 18.7864C8.92456 20.7342 10.7245 22.0429 12.7726 22.0429C14.8145 22.0429 16.6098 20.742 17.2457 18.804C17.262 18.7577 17.2738 18.7094 17.2805 18.6595C17.4562 17.5034 17.691 16.4737 17.9579 15.5624C18.5467 13.5517 19.2914 12.1177 19.9 11.1764C20.019 10.9924 20.136 10.8218 20.2499 10.6641C21.0495 9.55637 21.6884 9.08584 21.6927 9.08274C22.0228 8.84893 22.1007 8.3919 21.867 8.06193Z" fill="#252420"/>
<path d="M13.7737 13.9055C14.0364 13.9055 14.2581 13.7102 14.2913 13.4497L14.5002 11.8082C14.5399 11.4965 14.297 11.2207 13.9827 11.2207H2.59279C2.27855 11.2207 2.0356 11.4965 2.0753 11.8082L2.28424 13.4497C2.31739 13.7102 2.53912 13.9055 2.80173 13.9055H13.7737Z" fill="#252420"/>
</svg>
