<svg width="24" height="24" viewBox="0 0 24 24" fill="none" xmlns="http://www.w3.org/2000/svg">
<path fill-rule="evenodd" clip-rule="evenodd" d="M3.60938 10.9561C3.60938 6.89862 6.89862 3.60938 10.9561 3.60938C15.0136 3.60938 18.3028 6.89862 18.3028 10.9561C18.3028 12.9372 17.5187 14.7351 16.2439 16.0564C16.2094 16.083 16.1761 16.1121 16.1445 16.1437C16.1128 16.1754 16.0837 16.2087 16.0571 16.2433C14.7357 17.5185 12.9375 18.3028 10.9561 18.3028C6.89862 18.3028 3.60938 15.0136 3.60938 10.9561ZM16.8208 18.2343C15.2172 19.5282 13.1771 20.3028 10.9561 20.3028C5.79405 20.3028 1.60938 16.1182 1.60938 10.9561C1.60938 5.79405 5.79405 1.60938 10.9561 1.60938C16.1182 1.60938 20.3028 5.79405 20.3028 10.9561C20.3028 13.1767 19.5284 15.2165 18.235 16.82L22.0972 20.6822C22.4877 21.0728 22.4877 21.7059 22.0972 22.0965C21.7067 22.487 21.0735 22.487 20.683 22.0965L16.8208 18.2343Z" fill="#252420"/>
</svg>
