<svg width="16" height="15" viewBox="0 0 16 15" fill="none" xmlns="http://www.w3.org/2000/svg">
<path d="M15.1111 6.45779C15.2763 6.33474 15.3988 6.16307 15.4615 5.96686C15.5242 5.77065 15.5239 5.55974 15.4607 5.36371C15.3975 5.16767 15.2745 4.99633 15.109 4.87372C14.9435 4.75111 14.7437 4.68338 14.5378 4.68001L10.5378 4.5289C10.5181 4.52754 10.4993 4.52053 10.4835 4.5087C10.4677 4.49687 10.4557 4.48073 10.4489 4.46223L9.06668 0.7289C8.99723 0.538962 8.87109 0.374952 8.70535 0.259076C8.5396 0.1432 8.34225 0.0810547 8.14001 0.0810547C7.93777 0.0810547 7.74042 0.1432 7.57467 0.259076C7.40893 0.374952 7.28279 0.538962 7.21334 0.7289L5.83557 4.47557C5.82876 4.49407 5.81674 4.5102 5.80097 4.52203C5.7852 4.53386 5.76634 4.54088 5.74668 4.54223L1.74668 4.69335C1.54072 4.69671 1.34099 4.76444 1.17547 4.88705C1.00996 5.00967 0.886971 5.181 0.823748 5.37704C0.760526 5.57308 0.760242 5.78399 0.822937 5.98019C0.885632 6.1764 1.00816 6.34807 1.17334 6.47112L4.31112 8.93779C4.32683 8.95015 4.33856 8.96684 4.34488 8.9858C4.3512 9.00476 4.35182 9.02515 4.34668 9.04446L3.26668 12.8711C3.21071 13.066 3.21613 13.2734 3.28221 13.465C3.34828 13.6567 3.47179 13.8234 3.63594 13.9424C3.8001 14.0613 3.99692 14.1269 4.19963 14.13C4.40235 14.1332 4.60112 14.0738 4.7689 13.96L8.08446 11.7378C8.10079 11.7265 8.12016 11.7205 8.14001 11.7205C8.15986 11.7205 8.17923 11.7265 8.19557 11.7378L11.5111 13.96C11.6766 14.0777 11.8747 14.141 12.0778 14.141C12.2809 14.141 12.4789 14.0777 12.6445 13.96C12.8086 13.8421 12.9323 13.6763 12.9983 13.4853C13.0644 13.2943 13.0696 13.0875 13.0133 12.8933L11.9245 9.05335C11.9187 9.03407 11.919 9.01348 11.9254 8.99439C11.9317 8.9753 11.9438 8.95864 11.96 8.94668L15.1111 6.45779Z" fill="#E4E4E4"/>
</svg>
