<svg width="14" height="14" viewBox="0 0 14 14" fill="none" xmlns="http://www.w3.org/2000/svg">
<path fill-rule="evenodd" clip-rule="evenodd" d="M7.77778 0.777778C7.77778 0.348223 7.42955 0 7 0C6.57045 0 6.22222 0.348223 6.22222 0.777778V1.4C6.22222 1.82955 6.57045 2.17778 7 2.17778C7.42955 2.17778 7.77778 1.82955 7.77778 1.4V0.777778ZM2.57219 1.47225C2.26845 1.16851 1.77599 1.16851 1.47225 1.47225C1.16851 1.77599 1.16851 2.26845 1.47225 2.57219L2.40558 3.50553C2.70932 3.80927 3.20179 3.80927 3.50553 3.50553C3.80927 3.20179 3.80927 2.70932 3.50553 2.40558L2.57219 1.47225ZM12.5278 2.57219C12.8315 2.26845 12.8315 1.77599 12.5278 1.47225C12.224 1.16851 11.7315 1.16851 11.4278 1.47225L10.4945 2.40558C10.1907 2.70932 10.1907 3.20179 10.4945 3.50553C10.7982 3.80927 11.2907 3.80927 11.5944 3.50553L12.5278 2.57219ZM0.777778 6.22222C0.348223 6.22222 0 6.57045 0 7C0 7.42955 0.348223 7.77778 0.777778 7.77778H1.4C1.82955 7.77778 2.17778 7.42955 2.17778 7C2.17778 6.57045 1.82955 6.22222 1.4 6.22222H0.777778ZM12.6 6.22222C12.1704 6.22222 11.8222 6.57045 11.8222 7C11.8222 7.42955 12.1704 7.77778 12.6 7.77778H13.2222C13.6518 7.77778 14 7.42955 14 7C14 6.57045 13.6518 6.22222 13.2222 6.22222H12.6ZM3.50553 11.5944C3.80927 11.2907 3.80927 10.7982 3.50553 10.4945C3.20179 10.1907 2.70932 10.1907 2.40558 10.4945L1.47225 11.4278C1.16851 11.7315 1.16851 12.224 1.47225 12.5278C1.77599 12.8315 2.26845 12.8315 2.57219 12.5278L3.50553 11.5944ZM11.5944 10.4945C11.2907 10.1907 10.7982 10.1907 10.4945 10.4945C10.1907 10.7982 10.1907 11.2907 10.4945 11.5944L11.4278 12.5278C11.7315 12.8315 12.224 12.8315 12.5278 12.5278C12.8315 12.224 12.8315 11.7315 12.5278 11.4278L11.5944 10.4945ZM7.77778 12.6C7.77778 12.1704 7.42955 11.8222 7 11.8222C6.57045 11.8222 6.22222 12.1704 6.22222 12.6V13.2222C6.22222 13.6518 6.57045 14 7 14C7.42955 14 7.77778 13.6518 7.77778 13.2222V12.6ZM5.01235 7C5.01235 5.90225 5.90225 5.01235 7 5.01235C8.09775 5.01235 8.98765 5.90225 8.98765 7C8.98765 8.09775 8.09775 8.98765 7 8.98765C5.90225 8.98765 5.01235 8.09775 5.01235 7ZM7 3.45679C5.04314 3.45679 3.45679 5.04314 3.45679 7C3.45679 8.95686 5.04314 10.5432 7 10.5432C8.95686 10.5432 10.5432 8.95686 10.5432 7C10.5432 5.04314 8.95686 3.45679 7 3.45679Z" fill="#FFC83A"/>
</svg>
