<svg width="14" height="12" viewBox="0 0 14 12" fill="none" xmlns="http://www.w3.org/2000/svg">
<path d="M14 0.425061L11.7857 11.5005C11.7857 11.5005 11.4761 12.2685 10.6245 11.8999L5.51479 8.01351L3.6568 7.12263L0.529098 6.07801C0.529098 6.07801 0.0491046 5.9091 0.00261619 5.54043C-0.0438723 5.17176 0.544594 4.9721 0.544594 4.9721L12.9779 0.133353C12.9779 0.133353 13.9999 -0.312088 13.9999 0.425253" fill="#40B3E0"/>
<path d="M5.12063 11.3761C5.12063 11.3761 4.97148 11.3623 4.78552 10.7785C4.59986 10.1948 3.65527 7.12259 3.65527 7.12259L11.1649 2.39146C11.1649 2.39146 11.5985 2.13031 11.583 2.39146C11.583 2.39146 11.6604 2.43758 11.428 2.65261C11.1959 2.86774 5.52885 7.92142 5.52885 7.92142" fill="white"/>
<path d="M7.4739 9.50358L5.45291 11.3317C5.45291 11.3317 5.29485 11.4506 5.12207 11.376L5.50909 7.98047" fill="#B5CFE4"/>
</svg>
