<svg width="24" height="24" viewBox="0 0 24 24" fill="none" xmlns="http://www.w3.org/2000/svg">
<path d="M18.714 9.798C18.3615 6.405 15.4845 3.75 12 3.75C8.5155 3.75 5.6385 6.405 5.286 9.798C2.72775 10.1475 0.75 12.3473 0.75 15C0.75 17.8942 3.10575 20.25 6 20.25H18C20.8942 20.25 23.25 17.8942 23.25 15C23.25 12.3473 21.2722 10.1475 18.714 9.798V9.798ZM12 7.5C13.2405 7.5 14.25 8.5095 14.25 9.75C14.25 10.9905 13.2405 12 12 12C10.7595 12 9.75 10.9905 9.75 9.75C9.75 8.5095 10.7595 7.5 12 7.5ZM15.75 15.75C15.75 16.1647 15.4147 16.5 15 16.5H9C8.58525 16.5 8.25 16.1647 8.25 15.75V15C8.25 13.7595 9.2595 12.75 10.5 12.75H13.5C14.7405 12.75 15.75 13.7595 15.75 15V15.75Z" fill="black"/>
</svg>
