<svg width="24" height="24" viewBox="0 0 24 24" fill="none" xmlns="http://www.w3.org/2000/svg">
<path d="M14.0004 2H10.0004C6.15036 2 3.00037 5.14999 3.00037 8.99998V12C3.00037 14.7 4.57536 17.175 7.00036 18.325V21.675C7.00036 21.975 7.37536 22.125 7.57536 21.9L10.4754 19H14.0004C17.8503 19 21.0003 15.85 21.0003 12V8.99998C21.0003 5.14999 17.8503 2 14.0004 2ZM16.6253 15.125L15.6004 16.125C14.5254 17.175 11.7504 15.975 9.30036 13.475C6.85036 10.975 5.77536 8.17499 6.80036 7.12499L7.80036 6.12499C8.17536 5.74999 8.80036 5.77499 9.22536 6.14999L10.6754 7.64999C11.2004 8.17498 10.9754 9.07498 10.3004 9.27498C9.82536 9.42498 9.50036 9.94998 9.65036 10.425C9.90036 11.525 11.3004 12.925 12.3504 13.2C12.8254 13.3 13.3504 13.05 13.5254 12.575C13.7504 11.9 14.6504 11.7 15.1504 12.225L16.6003 13.725C17.0003 14.075 17.0003 14.7 16.6253 15.125ZM12.9004 6.74999C12.8004 6.74999 12.7004 6.74999 12.6004 6.77499C12.4254 6.79999 12.2504 6.64999 12.2254 6.47499C12.2004 6.29999 12.3504 6.12499 12.5254 6.09999C12.6504 6.07499 12.7754 6.07499 12.9004 6.07499C14.7254 6.07499 16.2254 7.57499 16.2254 9.39998C16.2254 9.52498 16.2254 9.64998 16.2004 9.77498C16.1754 9.94998 16.0004 10.1 15.8254 10.075C15.6504 10.05 15.5003 9.87498 15.5254 9.69998C15.5254 9.59998 15.5504 9.49998 15.5504 9.39998C15.5753 7.94999 14.3754 6.74999 12.9004 6.74999ZM14.9004 9.42498C14.9004 9.59998 14.7504 9.74998 14.5754 9.74998C14.4004 9.74998 14.2504 9.59998 14.2504 9.42498C14.2504 8.69998 13.6504 8.09999 12.9254 8.09999C12.7504 8.09999 12.6004 7.94999 12.6004 7.77499C12.6004 7.59999 12.7504 7.44999 12.9254 7.44999C14.0004 7.42499 14.9004 8.32499 14.9004 9.42498ZM17.4503 10.5C17.4003 10.675 17.2253 10.8 17.0253 10.75C16.8503 10.7 16.7503 10.525 16.8003 10.35C16.8753 10.05 16.9003 9.74998 16.9003 9.42498C16.9003 7.22499 15.1004 5.42499 12.9004 5.42499C12.8004 5.42499 12.7004 5.42499 12.6004 5.42499C12.4254 5.42499 12.2504 5.29999 12.2504 5.12499C12.2504 4.94999 12.3754 4.77499 12.5504 4.77499C12.6754 4.77499 12.8004 4.74999 12.9004 4.74999C15.4754 4.74999 17.5753 6.84999 17.5753 9.42498C17.5753 9.77498 17.5253 10.15 17.4503 10.5Z" fill="#252420"/>
</svg>
