<svg width="24" height="24" viewBox="0 0 24 24" fill="none" xmlns="http://www.w3.org/2000/svg">
<path d="M22.4051 16.8376C22.3796 16.7827 22.3559 16.7371 22.3338 16.7007C21.9689 16.0434 21.2716 15.2367 20.2422 14.2803L20.2205 14.2584L20.2096 14.2477L20.1986 14.2367H20.1875C19.7203 13.7913 19.4245 13.4919 19.3006 13.3385C19.0739 13.0465 19.0231 12.7509 19.147 12.4514C19.2345 12.2251 19.5633 11.7471 20.1326 11.0169C20.4321 10.63 20.6692 10.3198 20.8444 10.0862C22.1075 8.40692 22.6551 7.33386 22.4871 6.86657L22.4218 6.75737C22.378 6.69163 22.2648 6.63148 22.0825 6.57663C21.8998 6.5219 21.6663 6.51285 21.3815 6.54932L18.2277 6.57111C18.1766 6.55301 18.1036 6.55469 18.0086 6.57663C17.9136 6.59857 17.8661 6.60958 17.8661 6.60958L17.8113 6.63701L17.7677 6.66995C17.7312 6.69174 17.691 6.73006 17.6472 6.78483C17.6036 6.83941 17.5671 6.90347 17.5379 6.97646C17.1946 7.85984 16.8042 8.68117 16.366 9.44039C16.0959 9.89311 15.8478 10.2855 15.6212 10.6177C15.395 10.9497 15.2051 11.1944 15.0519 11.3513C14.8985 11.5083 14.7601 11.634 14.6357 11.729C14.5115 11.8241 14.4168 11.8642 14.3511 11.8495C14.2854 11.8349 14.2234 11.8203 14.1648 11.8057C14.0626 11.74 13.9805 11.6506 13.9185 11.5374C13.8563 11.4243 13.8144 11.2818 13.7925 11.1103C13.7707 10.9386 13.7578 10.7909 13.7542 10.6668C13.7507 10.5428 13.7523 10.3673 13.7597 10.141C13.7673 9.91463 13.7707 9.76143 13.7707 9.68112C13.7707 9.40365 13.7761 9.10251 13.787 8.77763C13.798 8.45275 13.807 8.19535 13.8145 8.00571C13.8219 7.81589 13.8253 7.61505 13.8253 7.40333C13.8253 7.1916 13.8125 7.02556 13.787 6.90504C13.7618 6.78468 13.7232 6.66785 13.6723 6.55458C13.6211 6.44143 13.5462 6.3539 13.4478 6.29176C13.3493 6.2297 13.2268 6.18045 13.081 6.14386C12.694 6.05629 12.2012 6.00892 11.6024 6.00156C10.2446 5.98698 9.37211 6.07467 8.98517 6.26449C8.83186 6.34469 8.69313 6.45428 8.56908 6.5929C8.43764 6.75357 8.4193 6.84125 8.51419 6.85568C8.9523 6.9213 9.26245 7.0783 9.44499 7.3265L9.51077 7.45802C9.56193 7.55292 9.61302 7.72092 9.66415 7.96179C9.71521 8.20267 9.74815 8.46913 9.76265 8.76102C9.79909 9.29406 9.79909 9.75035 9.76265 10.1299C9.7261 10.5096 9.69158 10.8053 9.65863 11.017C9.62568 11.2287 9.57643 11.4003 9.51077 11.5317C9.44499 11.6631 9.40122 11.7434 9.37928 11.7725C9.35738 11.8017 9.33912 11.8201 9.32462 11.8273C9.22973 11.8636 9.13104 11.8822 9.0289 11.8822C8.9266 11.8822 8.80256 11.831 8.65657 11.7287C8.51063 11.6265 8.35916 11.486 8.20217 11.3071C8.04517 11.1282 7.86812 10.8781 7.67093 10.5569C7.4739 10.2357 7.26946 9.85614 7.05773 9.41811L6.88256 9.10044C6.77305 8.89608 6.62346 8.59851 6.43363 8.208C6.24369 7.81734 6.07581 7.43946 5.92986 7.07442C5.87152 6.92111 5.78388 6.80439 5.66708 6.72408L5.61227 6.69113C5.57584 6.66198 5.51734 6.63102 5.4371 6.59804C5.35674 6.56509 5.2729 6.54146 5.18521 6.52692L2.18464 6.54871C1.87802 6.54871 1.66998 6.61817 1.56043 6.75691L1.51659 6.82254C1.49469 6.85909 1.48364 6.91747 1.48364 6.99782C1.48364 7.07814 1.50554 7.17672 1.54939 7.29344C1.98741 8.32292 2.46376 9.31577 2.97843 10.2721C3.49309 11.2285 3.94032 11.9989 4.31986 12.5826C4.69947 13.1667 5.08641 13.718 5.48067 14.2362C5.87494 14.7546 6.13591 15.0868 6.2636 15.2328C6.39144 15.379 6.49186 15.4883 6.56485 15.5613L6.83868 15.8241C7.01389 15.9993 7.27118 16.2092 7.61067 16.4537C7.95024 16.6984 8.32617 16.9393 8.73866 17.1767C9.15122 17.4138 9.63117 17.6073 10.1788 17.7569C10.7263 17.9067 11.2592 17.9668 11.7776 17.9378H13.037C13.2924 17.9158 13.4859 17.8354 13.6175 17.6968L13.661 17.6419C13.6903 17.5984 13.7178 17.5307 13.7431 17.4396C13.7687 17.3483 13.7814 17.2478 13.7814 17.1384C13.774 16.8246 13.7978 16.5417 13.8525 16.2898C13.907 16.0381 13.9693 15.8482 14.0388 15.7204C14.1084 15.5927 14.1869 15.4849 14.2742 15.3975C14.3617 15.3099 14.4241 15.2569 14.4607 15.2386C14.497 15.2203 14.5261 15.2078 14.548 15.2003C14.7232 15.1419 14.9294 15.1985 15.1669 15.3702C15.4042 15.5418 15.6268 15.7536 15.835 16.0054C16.0431 16.2574 16.2931 16.5401 16.585 16.854C16.8772 17.168 17.1327 17.4014 17.3516 17.5549L17.5705 17.6863C17.7167 17.774 17.9066 17.8543 18.1402 17.9273C18.3735 18.0002 18.5778 18.0185 18.7533 17.982L21.5567 17.9383C21.8339 17.9383 22.0497 17.8924 22.2027 17.8013C22.3561 17.71 22.4472 17.6095 22.4766 17.5002C22.5059 17.3907 22.5074 17.2665 22.4821 17.1276C22.4562 16.9891 22.4306 16.8923 22.4051 16.8376Z" fill="#fff"/>
</svg>
