<svg width="18" height="20" viewBox="0 0 18 20" fill="none" xmlns="http://www.w3.org/2000/svg">
<path d="M11.612 0.601065C11.4199 0.445296 11.1977 0.33079 10.9594 0.264691C10.7211 0.198592 10.4717 0.182319 10.2268 0.216886C9.98188 0.251454 9.74673 0.33612 9.53601 0.465603C9.32528 0.595087 9.1435 0.766608 9.00201 0.969464L5.35161 6.19786H6.81561L9.98361 1.65586C10.0308 1.5881 10.0915 1.5308 10.1618 1.48756C10.2322 1.44432 10.3107 1.41607 10.3925 1.40458C10.4743 1.39309 10.5576 1.39861 10.6371 1.42079C10.7167 1.44296 10.7908 1.48132 10.8548 1.53346L11.8244 2.32066L9.14361 6.19786H10.6028L12.758 3.07786L14.7788 4.71826C14.8966 4.81399 14.9737 4.95077 14.9946 5.10107C15.0155 5.25137 14.9787 5.40401 14.8916 5.52826L14.4236 6.19786H15.8876C16.142 5.82485 16.247 5.36983 16.1816 4.92305C16.1163 4.47628 15.8854 4.07038 15.5348 3.78586L11.6108 0.601065H11.612ZM2.39961 4.99906C1.92222 4.99906 1.46438 5.18871 1.12682 5.52627C0.789252 5.86384 0.599609 6.32167 0.599609 6.79906V16.3991C0.599609 17.1947 0.91568 17.9578 1.47829 18.5204C2.0409 19.083 2.80396 19.3991 3.59961 19.3991H14.9996C15.6361 19.3991 16.2466 19.1462 16.6967 18.6961C17.1468 18.246 17.3996 17.6356 17.3996 16.9991V9.79906C17.3996 9.16254 17.1468 8.55209 16.6967 8.10201C16.2466 7.65192 15.6361 7.39906 14.9996 7.39906H2.39961C2.24048 7.39906 2.08787 7.33585 1.97535 7.22333C1.86282 7.11081 1.79961 6.95819 1.79961 6.79906C1.79961 6.63993 1.86282 6.48732 1.97535 6.3748C2.08787 6.26228 2.24048 6.19906 2.39961 6.19906H4.16241L5.00241 4.99906H2.39961ZM13.1996 13.3991H14.3996C14.5587 13.3991 14.7114 13.4623 14.8239 13.5748C14.9364 13.6873 14.9996 13.8399 14.9996 13.9991C14.9996 14.1582 14.9364 14.3108 14.8239 14.4233C14.7114 14.5358 14.5587 14.5991 14.3996 14.5991H13.1996C13.0405 14.5991 12.8879 14.5358 12.7753 14.4233C12.6628 14.3108 12.5996 14.1582 12.5996 13.9991C12.5996 13.8399 12.6628 13.6873 12.7753 13.5748C12.8879 13.4623 13.0405 13.3991 13.1996 13.3991Z" fill="#CCCCCC"/>
</svg>
