<svg width="24" height="24" viewBox="0 0 24 24" fill="none" xmlns="http://www.w3.org/2000/svg">
<path d="M12.0219 6.3271C10.9964 6.3271 10.1455 5.49801 10.1455 4.47256C10.1455 3.4471 10.9746 2.59619 12.0001 2.59619C13.0255 2.59619 13.8764 3.42528 13.8764 4.45074C13.8764 5.49801 13.0473 6.3271 12.0219 6.3271Z" fill="#252420"/>
<path d="M9.18542 15.8615C9.11997 15.8615 9.05451 15.8397 9.01087 15.7742C8.96724 15.7088 8.94542 15.6433 8.96724 15.556C9.1636 14.6615 9.59997 12.8069 9.92724 11.3233C10.1454 10.4288 10.32 9.66513 10.3854 9.31604C10.4072 9.20695 10.3418 9.07604 10.2327 9.0324H10.2109H10.1672C10.0581 9.0324 9.97087 9.09786 9.94906 9.20695L9.79633 9.77422L8.74906 13.2433C8.66178 13.5488 8.39997 13.7451 8.09451 13.7451C8.00724 13.7451 7.94179 13.7233 7.85451 13.7015C7.52724 13.5706 7.33088 13.2215 7.43997 12.8942C7.65815 12.0651 7.94179 11.2142 8.2036 10.3851C8.42178 9.73059 8.61815 9.09786 8.77088 8.53059C9.01088 7.57059 9.8836 6.89422 10.8654 6.91604H13.1563C14.1381 6.91604 15.0109 7.5924 15.2509 8.53059C15.3818 9.01059 15.5563 9.53422 15.7309 10.0579C16.0363 10.996 16.3418 11.9779 16.6036 12.916C16.6909 13.2651 16.5163 13.6142 16.189 13.7233C16.08 13.7233 16.0145 13.7451 15.9272 13.7451C15.6218 13.7451 15.36 13.5488 15.2727 13.2433L14.2254 9.77422L14.0727 9.20695C14.0509 9.09786 13.9636 9.0324 13.8545 9.0324H13.8327H13.7891C13.68 9.07604 13.5927 9.18513 13.6363 9.31604C13.7236 9.66513 13.8981 10.4288 14.0945 11.3233C14.4436 12.8069 14.88 14.6615 15.0545 15.556C15.0763 15.6433 15.0545 15.7088 15.0109 15.7742C14.9672 15.8179 14.9018 15.8615 14.8363 15.8615H9.18542Z" fill="#252420"/>
<path d="M10.9092 21.4033C10.451 21.4033 10.0801 21.0324 10.0801 20.5742V15.4033H11.7383V20.596C11.7383 21.0324 11.3673 21.4033 10.9092 21.4033Z" fill="#252420"/>
<path d="M13.0908 21.4033C12.6326 21.4033 12.2617 21.0324 12.2617 20.5742V15.4033H13.9199V20.596C13.9199 21.0324 13.549 21.4033 13.0908 21.4033Z" fill="#252420"/>
</svg>
