<svg width="24" height="24" viewBox="0 0 24 24" fill="none" xmlns="http://www.w3.org/2000/svg">
<path d="M12 2C6.5 2 2 6.5 2 12C2 17.5 6.5 22 12 22C17.5 22 22 17.5 22 12C22 6.5 17.5 2 12 2ZM12 4C12.6 4 13.2 4.1 13.8 4.2C13.6 4.6 13.4 4.9 13 5.2C12.8 5.4 12.5 5.5 12.3 5.7C11.5 6.1 10.9 6.7 10.4 7.4C9.9 8.4 9.7 9.6 9.8 10.7C9.8 12.1 9.8 12.9 8.9 13.6C7.5 14.7 5.4 14.1 4.1 13.5C4 13 4 12.5 4 12C4 7.6 7.6 4 12 4ZM16.9 18.3C16.7 17.9 16.5 17.5 16.3 17.2C16.2 17 16.1 16.9 16 16.7C15.6 16 15.8 15.7 16.4 14.7L16.5 14.5C16.9 13.8 17.1 12.9 17.1 12.1C17.1 11.8 17.1 11.4 17.2 11.1C17.4 10.4 18.9 10.2 19.9 10.1C20.6 13.2 19.4 16.4 16.9 18.3Z" fill="#252420"/>
</svg>
