<svg width="24" height="24" viewBox="0 0 24 24" fill="none" xmlns="http://www.w3.org/2000/svg">
<g clip-path="url(#clip0_3320_98242)">
<path d="M17.0395 0H13.6296C10.1748 0 6.68898 2.55105 6.68898 8.2503C6.68898 11.2024 7.94021 13.5016 10.2337 14.8091L6.03581 22.4072C5.83683 22.7665 5.83166 23.1737 6.02193 23.4965C6.20771 23.8117 6.54731 24 6.93033 24H9.05366C9.53606 24 9.91226 23.7668 10.0926 23.3584L14.0285 15.66H14.3157V23.0405C14.3157 23.5607 14.7546 24 15.2741 24H17.1292C17.7117 24 18.1185 23.5932 18.1185 23.0108V1.05015C18.1186 0.43185 17.6749 0 17.0395 0ZM14.3158 12.2403H13.8091C11.8443 12.2403 10.6713 10.6365 10.6713 7.95015C10.6713 4.60988 12.1531 3.41978 13.5399 3.41978H14.3158V12.2403Z" fill="black"/>
</g>
<defs>
<clipPath id="clip0_3320_98242">
<rect width="24" height="24" fill="white"/>
</clipPath>
</defs>
</svg>
