<svg width="10" height="16" viewBox="0 0 10 16" fill="none" xmlns="http://www.w3.org/2000/svg">
<path d="M8.3596 0H6.08635C3.78326 0 1.45932 1.70069 1.45932 5.50019C1.45932 7.46825 2.29341 9.00103 3.82241 9.87275L1.02391 14.9381C0.891227 15.1777 0.887758 15.4492 1.0146 15.6643C1.13845 15.8745 1.36491 16 1.62016 16H3.03582C3.35741 16 3.60816 15.8446 3.72841 15.5723L6.35232 10.44H6.54382V15.3603C6.54382 15.7071 6.83641 16 7.18276 16H8.41945C8.80785 16 9.07901 15.7288 9.07901 15.3405V0.700094C9.07907 0.287906 8.78326 0 8.3596 0ZM6.54382 8.16019H6.20601C4.89616 8.16019 4.1142 7.091 4.1142 5.30009C4.1142 3.07325 5.10201 2.27984 6.02651 2.27984H6.54382V8.16019Z" fill="#D7143A"/>
</svg>
