<svg width="16" height="16" viewBox="0 0 16 16" fill="none" xmlns="http://www.w3.org/2000/svg">
<g clip-path="url(#clip0_3841_3777)">
<path d="M15.6703 3.75292C15.4859 3.0675 14.9455 2.52722 14.2602 2.34265C13.0081 2 7.99984 2 7.99984 2C7.99984 2 2.99169 2 1.73962 2.32959C1.0675 2.51404 0.513914 3.06762 0.329466 3.75292C0 5.00487 0 7.60129 0 7.60129C0 7.60129 0 10.2108 0.329466 11.4497C0.514036 12.135 1.05432 12.6754 1.73974 12.8599C3.00487 13.2026 7.99997 13.2026 7.99997 13.2026C7.99997 13.2026 13.0081 13.2026 14.2602 12.873C14.9456 12.6886 15.4859 12.1482 15.6705 11.4629C15.9999 10.2108 15.9999 7.61448 15.9999 7.61448C15.9999 7.61448 16.0131 5.00487 15.6703 3.75292Z" fill="#FF0000"/>
<path d="M6.40527 10.0005L10.5699 7.60181L6.40527 5.20312V10.0005Z" fill="white"/>
</g>
<defs>
<clipPath id="clip0_3841_3777">
<rect width="16" height="16" fill="white"/>
</clipPath>
</defs>
</svg>
