<svg width="138" height="39" viewBox="0 0 138 39" fill="none" xmlns="http://www.w3.org/2000/svg">
<path d="M39.6052 26.1299H36.9805V13.5459H42.2209C42.6989 13.5459 43.1679 13.6066 43.6099 13.7279C44.0518 13.8492 44.4667 14.0139 44.8546 14.2392C45.2424 14.4646 45.5942 14.7246 45.9099 15.0279C46.2256 15.3312 46.5052 15.6779 46.7307 16.0506C46.9562 16.4232 47.1365 16.8219 47.2628 17.2552C47.3891 17.6799 47.4522 18.1306 47.4522 18.5899C47.4522 19.2832 47.3169 19.9332 47.0373 20.5399C46.7577 21.1466 46.3879 21.6839 45.9099 22.1432C45.4318 22.6026 44.8816 22.9579 44.2412 23.2266C43.6009 23.4866 42.9244 23.6252 42.2118 23.6252H39.5871V26.1299H39.6052ZM39.6052 16.0679V21.1032H42.2299C42.5907 21.1032 42.9244 21.0339 43.2401 20.9039C43.5558 20.7739 43.8354 20.5919 44.0699 20.3666C44.3044 20.1412 44.4938 19.8726 44.6291 19.5606C44.7644 19.2486 44.8365 18.9279 44.8365 18.5812C44.8365 18.2346 44.7644 17.9139 44.6291 17.6019C44.4938 17.2986 44.3044 17.0299 44.0699 16.7959C43.8354 16.5706 43.5558 16.3886 43.2401 16.2586C42.9244 16.1286 42.5816 16.0592 42.2299 16.0592H39.6052V16.0679Z" fill="black"/>
<path d="M51.2223 26.13H48.7329V16.7354H49.3372L50.158 17.8534C50.5639 17.5067 51.0149 17.2294 51.529 17.0387C52.0431 16.848 52.5662 16.7527 53.1164 16.7527H55.3172V19.136H53.1164C52.8549 19.136 52.6113 19.1794 52.3768 19.2747C52.1423 19.37 51.9439 19.5 51.7725 19.6647C51.6011 19.8293 51.4658 20.02 51.3666 20.2453C51.2674 20.4707 51.2223 20.7047 51.2223 20.956V26.13Z" fill="black"/>
<path d="M65.7442 21.3461C65.7442 22.0481 65.6089 22.6981 65.3474 23.3048C65.0858 23.9115 64.725 24.4315 64.283 24.8735C63.8321 25.3155 63.2999 25.6621 62.6956 25.9135C62.0913 26.1648 61.4419 26.2948 60.7474 26.2948C60.0619 26.2948 59.4124 26.1648 58.8081 25.9135C58.2038 25.6621 57.6717 25.3068 57.2207 24.8735C56.7697 24.4315 56.4089 23.9115 56.1474 23.3048C55.8858 22.6981 55.7505 22.0481 55.7505 21.3461C55.7505 20.6355 55.8858 19.9681 56.1474 19.3615C56.4089 18.7548 56.7697 18.2261 57.2207 17.7841C57.6717 17.3421 58.2038 16.9955 58.8081 16.7441C59.4124 16.4928 60.0619 16.3628 60.7474 16.3628C61.4419 16.3628 62.0913 16.4841 62.6956 16.7181C63.2999 16.9521 63.8321 17.2901 64.283 17.7235C64.734 18.1568 65.0858 18.6855 65.3474 19.2921C65.6089 19.9248 65.7442 20.6008 65.7442 21.3461ZM63.2277 21.3461C63.2277 20.9561 63.1646 20.6095 63.0293 20.2975C62.894 19.9855 62.7226 19.7168 62.4972 19.4915C62.2717 19.2661 62.0101 19.0928 61.7034 18.9715C61.4058 18.8501 61.0811 18.7895 60.7383 18.7895C60.3956 18.7895 60.0799 18.8501 59.7732 18.9715C59.4756 19.0928 59.214 19.2661 58.9885 19.4915C58.763 19.7168 58.5917 19.9855 58.4654 20.2975C58.3391 20.6095 58.276 20.9561 58.276 21.3461C58.276 21.7101 58.3391 22.0481 58.4654 22.3515C58.5917 22.6635 58.7721 22.9321 58.9885 23.1575C59.205 23.3828 59.4756 23.5648 59.7732 23.6948C60.0709 23.8248 60.3956 23.8941 60.7383 23.8941C61.0811 23.8941 61.3968 23.8335 61.7034 23.7121C62.0101 23.5908 62.2717 23.4175 62.4972 23.1921C62.7226 22.9668 62.903 22.6981 63.0293 22.3861C63.1646 22.0828 63.2277 21.7275 63.2277 21.3461Z" fill="black"/>
<path d="M76.9102 21.346C76.9102 22.0827 76.7749 22.7587 76.5134 23.3653C76.2518 23.972 75.891 24.492 75.4491 24.934C74.9981 25.3673 74.4659 25.7053 73.8616 25.948C73.2573 26.1907 72.6079 26.312 71.9134 26.312C71.2279 26.312 70.5785 26.1907 69.9742 25.9393C69.3698 25.6967 68.8377 25.35 68.3867 24.9167C67.9357 24.4747 67.5749 23.9547 67.3134 23.348C67.0518 22.7413 66.9165 22.074 66.9165 21.3547V13H69.4149V17.3853C69.5502 17.2207 69.7126 17.0733 69.902 16.9433C70.0914 16.8133 70.2989 16.7093 70.5243 16.6313C70.7498 16.5533 70.9753 16.484 71.2098 16.4407C71.4443 16.3973 71.6789 16.3713 71.9044 16.3713C72.5989 16.3713 73.2483 16.4927 73.8526 16.744C74.4569 16.9953 74.9891 17.342 75.44 17.784C75.891 18.226 76.2428 18.7547 76.5044 19.3613C76.7749 19.968 76.9102 20.6267 76.9102 21.346ZM74.4028 21.346C74.4028 20.982 74.3396 20.644 74.2043 20.332C74.0691 20.02 73.8977 19.7513 73.6722 19.5173C73.4467 19.292 73.1851 19.11 72.8785 18.98C72.5808 18.85 72.2561 18.7893 71.9134 18.7893C71.5706 18.7893 71.2549 18.8587 70.9483 19.006C70.6506 19.1533 70.38 19.3353 70.1545 19.578C69.9291 19.812 69.7487 20.0893 69.6224 20.3927C69.4961 20.696 69.433 21.0167 69.433 21.346C69.433 21.71 69.4961 22.048 69.6224 22.3513C69.7487 22.6633 69.9291 22.932 70.1545 23.1573C70.38 23.3827 70.6416 23.5647 70.9483 23.6947C71.2459 23.8247 71.5706 23.894 71.9134 23.894C72.2561 23.894 72.5718 23.8247 72.8785 23.6947C73.1761 23.5647 73.4467 23.3827 73.6722 23.1573C73.8977 22.932 74.0781 22.6633 74.2043 22.3513C74.3306 22.048 74.4028 21.71 74.4028 21.346Z" fill="black"/>
<path d="M87.7428 21.3461C87.7428 22.0481 87.6075 22.6981 87.3459 23.3048C87.0843 23.9115 86.7235 24.4315 86.2816 24.8735C85.8306 25.3155 85.2984 25.6621 84.6941 25.9135C84.0898 26.1648 83.4404 26.2948 82.7459 26.2948C82.0604 26.2948 81.411 26.1648 80.8067 25.9135C80.2024 25.6621 79.6702 25.3068 79.2192 24.8735C78.7682 24.4315 78.4075 23.9115 78.1459 23.3048C77.8843 22.6981 77.749 22.0481 77.749 21.3461C77.749 20.6355 77.8843 19.9681 78.1459 19.3615C78.4075 18.7548 78.7682 18.2261 79.2192 17.7841C79.6702 17.3421 80.2024 16.9955 80.8067 16.7441C81.411 16.4928 82.0604 16.3628 82.7459 16.3628C83.4404 16.3628 84.0898 16.4841 84.6941 16.7181C85.2984 16.9521 85.8306 17.2901 86.2816 17.7235C86.7326 18.1568 87.0843 18.6855 87.3459 19.2921C87.6075 19.9248 87.7428 20.6008 87.7428 21.3461ZM85.2263 21.3461C85.2263 20.9561 85.1631 20.6095 85.0278 20.2975C84.8926 19.9855 84.7212 19.7168 84.4957 19.4915C84.2702 19.2661 84.0086 19.0928 83.702 18.9715C83.4043 18.8501 83.0796 18.7895 82.7369 18.7895C82.3941 18.7895 82.0784 18.8501 81.7718 18.9715C81.4741 19.0928 81.2126 19.2661 80.9871 19.4915C80.7616 19.7168 80.5902 19.9855 80.4639 20.2975C80.3377 20.6095 80.2745 20.9561 80.2745 21.3461C80.2745 21.7101 80.3377 22.0481 80.4639 22.3515C80.5902 22.6635 80.7706 22.9321 80.9871 23.1575C81.2035 23.3828 81.4741 23.5648 81.7718 23.6948C82.0694 23.8248 82.3941 23.8941 82.7369 23.8941C83.0796 23.8941 83.3953 23.8335 83.702 23.7121C84.0086 23.5908 84.2702 23.4175 84.4957 23.1921C84.7212 22.9668 84.9016 22.6981 85.0278 22.3861C85.1631 22.0828 85.2263 21.7275 85.2263 21.3461Z" fill="black"/>
<path d="M98.5755 26.1301H97.9712L97.0061 24.8388C96.7716 25.0468 96.519 25.2375 96.2484 25.4108C95.9869 25.5928 95.7073 25.7401 95.4096 25.8788C95.121 26.0088 94.8143 26.1128 94.5077 26.1908C94.201 26.2688 93.8853 26.3035 93.5696 26.3035C92.8841 26.3035 92.2347 26.1821 91.6304 25.9308C91.0261 25.6795 90.4939 25.3328 90.043 24.8995C89.592 24.4575 89.2312 23.9375 88.9696 23.3308C88.7081 22.7241 88.5728 22.0655 88.5728 21.3548C88.5728 20.6441 88.7081 19.9855 88.9696 19.3788C89.2312 18.7721 89.592 18.2435 90.043 17.8015C90.4939 17.3595 91.0261 17.0128 91.6304 16.7615C92.2347 16.5101 92.8841 16.3801 93.5696 16.3801C93.7861 16.3801 94.0116 16.3975 94.2461 16.4321C94.4806 16.4668 94.7061 16.5275 94.9316 16.6055C95.1571 16.6835 95.3645 16.7875 95.5539 16.9175C95.7524 17.0475 95.9147 17.2035 96.05 17.3941V13.0088H98.5575V26.1301H98.5755ZM96.059 21.3461C96.059 21.0168 95.9959 20.7048 95.8606 20.3928C95.7253 20.0895 95.5539 19.8121 95.3284 19.5781C95.103 19.3441 94.8414 19.1535 94.5347 19.0061C94.2371 18.8588 93.9124 18.7895 93.5696 18.7895C93.2269 18.7895 92.9112 18.8501 92.6045 18.9628C92.2979 19.0755 92.0453 19.2488 91.8198 19.4655C91.5943 19.6821 91.423 19.9508 91.2967 20.2715C91.1704 20.5921 91.1073 20.9475 91.1073 21.3461C91.1073 21.6928 91.1704 22.0221 91.2967 22.3255C91.423 22.6288 91.6033 22.9061 91.8198 23.1401C92.0363 23.3741 92.3069 23.5561 92.6045 23.6948C92.9022 23.8335 93.2269 23.8941 93.5696 23.8941C93.9124 23.8941 94.228 23.8248 94.5347 23.6775C94.8324 23.5301 95.103 23.3481 95.3284 23.1055C95.5539 22.8628 95.7343 22.5941 95.8606 22.2908C95.9959 21.9961 96.059 21.6755 96.059 21.3461Z" fill="black"/>
<path d="M102.823 29.7095V27.3001L104.212 27.3175C104.456 27.3175 104.69 27.2828 104.916 27.2048C105.141 27.1268 105.349 27.0228 105.538 26.8928C105.728 26.7541 105.899 26.5981 106.043 26.4161C106.188 26.2341 106.305 26.0348 106.395 25.8181C106.125 25.9308 105.845 26.0435 105.556 26.1475C105.277 26.2601 104.988 26.3121 104.699 26.3121C104.095 26.3121 103.527 26.2081 103.004 26.0088C102.481 25.8095 102.012 25.5148 101.615 25.1335C101.218 24.7521 100.902 24.2928 100.677 23.7555C100.451 23.2181 100.334 22.6115 100.334 21.9355V16.7441H102.814V21.9355C102.814 22.2648 102.868 22.5595 102.968 22.8108C103.067 23.0621 103.202 23.2701 103.374 23.4348C103.545 23.5995 103.743 23.7295 103.969 23.8075C104.194 23.8855 104.438 23.9288 104.708 23.9288C104.961 23.9288 105.205 23.8681 105.43 23.7555C105.656 23.6428 105.854 23.4868 106.025 23.3048C106.197 23.1228 106.332 22.9061 106.431 22.6721C106.53 22.4381 106.576 22.1868 106.576 21.9355V16.7441H109.083V24.9601C109.074 25.6188 108.939 26.2428 108.677 26.8235C108.416 27.4041 108.055 27.9068 107.604 28.3401C107.153 28.7735 106.621 29.1115 106.016 29.3628C105.412 29.6141 104.772 29.7441 104.077 29.7441L102.823 29.7095Z" fill="black"/>
<path d="M114.657 24.6741C114.657 24.9601 114.603 25.2374 114.495 25.4888C114.387 25.7401 114.233 25.9655 114.044 26.1474C113.855 26.3295 113.629 26.4768 113.368 26.5894C113.106 26.7021 112.826 26.7541 112.529 26.7541C112.24 26.7541 111.96 26.7021 111.69 26.5894C111.428 26.4768 111.194 26.3381 110.995 26.1474C110.797 25.9655 110.644 25.7401 110.526 25.4888C110.409 25.2374 110.355 24.9601 110.355 24.6741C110.355 24.3968 110.409 24.1281 110.526 23.8768C110.644 23.6254 110.797 23.4088 110.995 23.2268C111.194 23.0448 111.419 22.8974 111.69 22.7848C111.951 22.6721 112.231 22.6201 112.529 22.6201C112.826 22.6201 113.115 22.6721 113.368 22.7848C113.629 22.8974 113.855 23.0361 114.044 23.2268C114.233 23.4174 114.387 23.6254 114.495 23.8768C114.603 24.1281 114.657 24.3881 114.657 24.6741Z" fill="#FDC73C"/>
<path d="M118.437 26.13H115.929V13H118.437V21.2853L122.153 16.7613H125.021L121.783 20.6787L125.021 26.1473H122.153L120.168 22.7327L118.437 24.9427V26.13Z" fill="black"/>
<path d="M133.635 26.1298H125.481L129.603 19.1358H125.481V16.7524H133.635L129.513 23.7464H133.635V26.1298Z" fill="black"/>
<path d="M28.8627 9.5332L25.7446 14.1483C24.6476 13.451 23.3246 13.0453 21.9085 13.0453C20.5057 13.0453 19.2093 13.4447 18.119 14.123C18.8835 14.9535 19.4819 15.9297 19.8608 17.0011C20.6919 16.4179 21.7889 16.1643 22.959 16.5003C24.0892 16.8236 25 17.7238 25.2859 18.8142C25.8709 21.0267 24.1357 23.0046 21.9152 23.0046C21.144 23.0046 20.4392 22.7574 19.8608 22.358C18.9965 21.7557 18.4248 20.7858 18.4248 19.6827C18.4248 18.0028 17.7666 16.4813 16.6896 15.3085C16.2707 14.852 15.792 14.4526 15.2602 14.123C14.0302 13.3559 12.5277 12.9502 10.9188 13.0643C7.24889 13.3369 4.50977 16.4432 4.50977 19.949V29.8132L7.62785 25.1981C8.72483 25.8954 10.0479 26.3011 11.464 26.3011C12.8668 26.3011 14.1632 25.9017 15.2535 25.2234C14.489 24.3929 13.8906 23.4167 13.5116 22.3453C12.6806 22.9285 11.5836 23.1821 10.4135 22.8461C9.28329 22.5228 8.37246 21.6226 8.08658 20.5322C7.50153 18.3261 9.23675 16.3418 11.4573 16.3418C12.2285 16.3418 12.9332 16.589 13.5116 16.9884C14.3759 17.5907 14.9477 18.5606 14.9477 19.6637C14.9477 21.3437 15.6059 22.8651 16.6829 24.0379C17.1018 24.4944 17.5804 24.8938 18.1123 25.2234C19.3423 25.9905 20.8448 26.3962 22.4537 26.2821C26.1236 26.0095 28.8627 22.9032 28.8627 19.3974V9.5332Z" fill="url(#paint0_linear_146_3847)"/>
<defs>
<linearGradient id="paint0_linear_146_3847" x1="4.50731" y1="19.6744" x2="28.8606" y2="19.6744" gradientUnits="userSpaceOnUse">
<stop stop-color="#F9B233"/>
<stop offset="1" stop-color="#FDC73C"/>
</linearGradient>
</defs>
</svg>
