<?xml version="1.0" encoding="utf-8"?>
<!-- Generator: Adobe Illustrator 25.3.1, SVG Export Plug-In . SVG Version: 6.00 Build 0)  -->
<svg version="1.1" id="Layer_1" xmlns="http://www.w3.org/2000/svg" xmlns:xlink="http://www.w3.org/1999/xlink" x="0px" y="0px"
	 viewBox="0 0 198.43 144.77" style="enable-background:new 0 0 198.43 144.77;" xml:space="preserve">
<style type="text/css">
	.st0{fill:#242420;}
	.st1{fill:#9D9D9C;}
	.st2{fill:url(#SVGID_1_);}
	.st3{fill:url(#SVGID_2_);}
	.st4{fill:#FDC73C;}
	.st5{fill:url(#SVGID_3_);}
	.st6{fill:url(#SVGID_4_);}
	.st7{fill:url(#SVGID_5_);}
	.st8{fill:none;}
	.st9{fill:url(#SVGID_6_);}
	.st10{fill:url(#SVGID_7_);}
	.st11{fill:#FFFFFF;}
	.st12{fill:url(#SVGID_8_);}
	.st13{fill:url(#SVGID_9_);}
	.st14{fill:url(#SVGID_10_);}
	.st15{fill:url(#SVGID_11_);}
	.st16{fill:url(#SVGID_12_);}
	.st17{fill:url(#SVGID_13_);}
	.st18{fill:url(#SVGID_14_);}
</style>
<g>
	<linearGradient id="SVGID_1_" gradientUnits="userSpaceOnUse" x1="69.9913" y1="72.3869" x2="133.6442" y2="72.3869">
		<stop  offset="0" style="stop-color:#F9B233"/>
		<stop  offset="1" style="stop-color:#FDC73C"/>
	</linearGradient>
	<path class="st2" d="M118.79,104.21H84.84c-8.2,0-14.85-6.65-14.85-14.85V55.41c0-8.2,6.65-14.85,14.85-14.85h33.95
		c8.2,0,14.85,6.65,14.85,14.85v33.95C133.64,97.56,126.99,104.21,118.79,104.21z"/>
</g>
<g>
	<path class="st11" d="M125.67,51.55l-6.11,9.48c-2.15-1.43-4.74-2.27-7.52-2.27c-2.74,0-5.29,0.82-7.43,2.21
		c1.5,1.71,2.67,3.71,3.41,5.91c1.63-1.19,3.77-1.71,6.07-1.03c2.21,0.66,3.99,2.51,4.56,4.75c1.14,4.54-2.26,8.6-6.61,8.6
		c-1.51,0-2.89-0.5-4.02-1.33c-1.7-1.24-2.81-3.23-2.81-5.5v0c0-3.44-1.29-6.58-3.4-8.98c-0.82-0.93-1.76-1.75-2.8-2.43
		c-2.41-1.57-5.35-2.41-8.5-2.17c-7.19,0.55-12.55,6.94-12.55,14.15l0,20.27l6.11-9.48c2.15,1.43,4.74,2.27,7.52,2.27
		c2.74,0,5.29-0.82,7.43-2.21c-1.5-1.71-2.67-3.71-3.41-5.91c-1.63,1.19-3.78,1.71-6.07,1.02c-2.21-0.66-3.99-2.51-4.55-4.75
		c-1.14-4.54,2.26-8.6,6.61-8.6c1.51,0,2.89,0.5,4.02,1.33c1.7,1.24,2.81,3.23,2.81,5.5v0c0,3.44,1.29,6.58,3.4,8.98
		c0.82,0.93,1.76,1.75,2.8,2.43c2.41,1.57,5.35,2.41,8.5,2.17c7.19-0.55,12.55-6.94,12.55-14.15L125.67,51.55z"/>
</g>
</svg>
