<svg width="131" height="16" viewBox="0 0 131 16" fill="none" xmlns="http://www.w3.org/2000/svg">
<path d="M5.55016 7.58002C6.43016 7.58002 7.06349 7.37002 7.45016 6.95002C7.83682 6.53002 8.03016 5.94335 8.03016 5.19002C8.03016 4.85669 7.98016 4.55335 7.88016 4.28002C7.78016 4.00669 7.62682 3.77335 7.42016 3.58002C7.22016 3.38002 6.96349 3.22669 6.65016 3.12002C6.34349 3.01335 5.97682 2.96002 5.55016 2.96002H3.79016V7.58002H5.55016ZM5.55016 0.43002C6.57682 0.43002 7.45682 0.553353 8.19016 0.800019C8.93016 1.04002 9.53682 1.37335 10.0102 1.80002C10.4902 2.22669 10.8435 2.73002 11.0702 3.31002C11.2968 3.89002 11.4102 4.51669 11.4102 5.19002C11.4102 5.91669 11.2935 6.58335 11.0602 7.19002C10.8268 7.79669 10.4702 8.31669 9.99016 8.75002C9.51016 9.18335 8.90016 9.52335 8.16016 9.77002C7.42682 10.01 6.55682 10.13 5.55016 10.13H3.79016V15H0.410156V0.43002H5.55016Z" fill="#f7f7f7"/>
<path d="M18.165 7.28002C18.625 7.28002 19.015 7.22335 19.335 7.11002C19.6617 6.99002 19.9283 6.82669 20.135 6.62002C20.3417 6.41335 20.4917 6.17335 20.585 5.90002C20.6783 5.62002 20.725 5.32002 20.725 5.00002C20.725 4.36002 20.515 3.86002 20.095 3.50002C19.6817 3.14002 19.0383 2.96002 18.165 2.96002H16.805V7.28002H18.165ZM25.345 15H22.285C21.7183 15 21.3117 14.7867 21.065 14.36L18.645 10.13C18.5317 9.95002 18.405 9.82002 18.265 9.74002C18.125 9.65335 17.925 9.61002 17.665 9.61002H16.805V15H13.425V0.43002H18.165C19.2183 0.43002 20.115 0.54002 20.855 0.76002C21.6017 0.973353 22.2083 1.27335 22.675 1.66002C23.1483 2.04669 23.4917 2.50335 23.705 3.03002C23.9183 3.55669 24.025 4.13002 24.025 4.75002C24.025 5.22335 23.9617 5.67002 23.835 6.09002C23.7083 6.51002 23.5217 6.90002 23.275 7.26002C23.0283 7.61335 22.7217 7.93002 22.355 8.21002C21.995 8.49002 21.5783 8.72002 21.105 8.90002C21.325 9.01335 21.5317 9.15669 21.725 9.33002C21.9183 9.49669 22.0917 9.69669 22.245 9.93002L25.345 15Z" fill="#f7f7f7"/>
<path d="M40.9156 7.71002C40.9156 8.76335 40.7323 9.74335 40.3656 10.65C40.0056 11.5567 39.4956 12.3467 38.8356 13.02C38.1756 13.6867 37.379 14.21 36.4456 14.59C35.519 14.97 34.489 15.16 33.3556 15.16C32.2223 15.16 31.189 14.97 30.2556 14.59C29.3223 14.21 28.5223 13.6867 27.8556 13.02C27.1956 12.3467 26.6823 11.5567 26.3156 10.65C25.9556 9.74335 25.7756 8.76335 25.7756 7.71002C25.7756 6.65669 25.9556 5.67669 26.3156 4.77002C26.6823 3.86335 27.1956 3.07669 27.8556 2.41002C28.5223 1.74335 29.3223 1.22002 30.2556 0.84002C31.189 0.46002 32.2223 0.27002 33.3556 0.27002C34.489 0.27002 35.519 0.463353 36.4456 0.850019C37.379 1.23002 38.1756 1.75335 38.8356 2.42002C39.4956 3.08669 40.0056 3.87335 40.3656 4.78002C40.7323 5.68669 40.9156 6.66335 40.9156 7.71002ZM37.4556 7.71002C37.4556 6.99002 37.3623 6.34335 37.1756 5.77002C36.989 5.19002 36.719 4.70002 36.3656 4.30002C36.019 3.90002 35.5923 3.59335 35.0856 3.38002C34.579 3.16669 34.0023 3.06002 33.3556 3.06002C32.7023 3.06002 32.119 3.16669 31.6056 3.38002C31.099 3.59335 30.669 3.90002 30.3156 4.30002C29.969 4.70002 29.7023 5.19002 29.5156 5.77002C29.329 6.34335 29.2356 6.99002 29.2356 7.71002C29.2356 8.43669 29.329 9.09002 29.5156 9.67002C29.7023 10.2434 29.969 10.73 30.3156 11.13C30.669 11.53 31.099 11.8367 31.6056 12.05C32.119 12.2567 32.7023 12.36 33.3556 12.36C34.0023 12.36 34.579 12.2567 35.0856 12.05C35.5923 11.8367 36.019 11.53 36.3656 11.13C36.719 10.73 36.989 10.2434 37.1756 9.67002C37.3623 9.09002 37.4556 8.43669 37.4556 7.71002Z" fill="#f7f7f7"/>
<path d="M48.9647 12.45C49.4114 12.45 49.7747 12.3934 50.0547 12.28C50.3414 12.1667 50.5647 12.02 50.7247 11.84C50.8847 11.66 50.9947 11.4567 51.0547 11.23C51.1147 11.0034 51.1447 10.7734 51.1447 10.54C51.1447 10.2734 51.108 10.0334 51.0347 9.82002C50.968 9.60669 50.848 9.42669 50.6747 9.28002C50.508 9.13335 50.2847 9.02002 50.0047 8.94002C49.7247 8.86002 49.3714 8.82002 48.9447 8.82002H46.5847V12.45H48.9647ZM46.5847 2.96002V6.56002H48.3447C48.718 6.56002 49.0547 6.53335 49.3547 6.48002C49.6547 6.42669 49.908 6.33335 50.1147 6.20002C50.328 6.06669 50.488 5.88335 50.5947 5.65002C50.708 5.41669 50.7647 5.12335 50.7647 4.77002C50.7647 4.42335 50.7214 4.13669 50.6347 3.91002C50.548 3.67669 50.4147 3.49002 50.2347 3.35002C50.0547 3.21002 49.8247 3.11002 49.5447 3.05002C49.2714 2.99002 48.9447 2.96002 48.5647 2.96002H46.5847ZM48.5647 0.43002C49.5714 0.43002 50.428 0.523353 51.1347 0.71002C51.8414 0.896686 52.418 1.16002 52.8647 1.50002C53.3114 1.84002 53.6347 2.25335 53.8347 2.74002C54.0414 3.22669 54.1447 3.77002 54.1447 4.37002C54.1447 4.69669 54.098 5.01335 54.0047 5.32002C53.9114 5.62002 53.7647 5.90335 53.5647 6.17002C53.3647 6.43002 53.108 6.67002 52.7947 6.89002C52.4814 7.11002 52.1047 7.30002 51.6647 7.46002C52.6247 7.69335 53.3347 8.07002 53.7947 8.59002C54.2547 9.11002 54.4847 9.78335 54.4847 10.61C54.4847 11.23 54.3647 11.8067 54.1247 12.34C53.8847 12.8734 53.5314 13.34 53.0647 13.74C52.6047 14.1334 52.0347 14.4434 51.3547 14.67C50.6747 14.89 49.898 15 49.0247 15H43.2047V0.43002H48.5647Z" fill="#f7f7f7"/>
<path d="M71.2031 7.71002C71.2031 8.76335 71.0198 9.74335 70.6531 10.65C70.2931 11.5567 69.7831 12.3467 69.1231 13.02C68.4631 13.6867 67.6665 14.21 66.7331 14.59C65.8065 14.97 64.7765 15.16 63.6431 15.16C62.5098 15.16 61.4765 14.97 60.5431 14.59C59.6098 14.21 58.8098 13.6867 58.1431 13.02C57.4831 12.3467 56.9698 11.5567 56.6031 10.65C56.2431 9.74335 56.0631 8.76335 56.0631 7.71002C56.0631 6.65669 56.2431 5.67669 56.6031 4.77002C56.9698 3.86335 57.4831 3.07669 58.1431 2.41002C58.8098 1.74335 59.6098 1.22002 60.5431 0.84002C61.4765 0.46002 62.5098 0.27002 63.6431 0.27002C64.7765 0.27002 65.8065 0.463353 66.7331 0.850019C67.6665 1.23002 68.4631 1.75335 69.1231 2.42002C69.7831 3.08669 70.2931 3.87335 70.6531 4.78002C71.0198 5.68669 71.2031 6.66335 71.2031 7.71002ZM67.7431 7.71002C67.7431 6.99002 67.6498 6.34335 67.4631 5.77002C67.2765 5.19002 67.0065 4.70002 66.6531 4.30002C66.3065 3.90002 65.8798 3.59335 65.3731 3.38002C64.8665 3.16669 64.2898 3.06002 63.6431 3.06002C62.9898 3.06002 62.4065 3.16669 61.8931 3.38002C61.3865 3.59335 60.9565 3.90002 60.6031 4.30002C60.2565 4.70002 59.9898 5.19002 59.8031 5.77002C59.6165 6.34335 59.5231 6.99002 59.5231 7.71002C59.5231 8.43669 59.6165 9.09002 59.8031 9.67002C59.9898 10.2434 60.2565 10.73 60.6031 11.13C60.9565 11.53 61.3865 11.8367 61.8931 12.05C62.4065 12.2567 62.9898 12.36 63.6431 12.36C64.2898 12.36 64.8665 12.2567 65.3731 12.05C65.8798 11.8367 66.3065 11.53 66.6531 11.13C67.0065 10.73 67.2765 10.2434 67.4631 9.67002C67.6498 9.09002 67.7431 8.43669 67.7431 7.71002Z" fill="#f7f7f7"/>
<path d="M86.7122 7.71002C86.7122 8.76335 86.5289 9.73669 86.1622 10.63C85.8022 11.5167 85.2922 12.2867 84.6322 12.94C83.9722 13.5867 83.1755 14.0934 82.2422 14.46C81.3155 14.82 80.2855 15 79.1522 15H73.4922V0.43002H79.1522C80.2855 0.43002 81.3155 0.613353 82.2422 0.980019C83.1755 1.34669 83.9722 1.85335 84.6322 2.50002C85.2922 3.14669 85.8022 3.91669 86.1622 4.81002C86.5289 5.69669 86.7122 6.66335 86.7122 7.71002ZM83.2522 7.71002C83.2522 6.99002 83.1589 6.34002 82.9722 5.76002C82.7855 5.18002 82.5155 4.69002 82.1622 4.29002C81.8155 3.88335 81.3889 3.57335 80.8822 3.36002C80.3755 3.14002 79.7989 3.03002 79.1522 3.03002H76.8922V12.4H79.1522C79.7989 12.4 80.3755 12.2934 80.8822 12.08C81.3889 11.86 81.8155 11.55 82.1622 11.15C82.5155 10.7434 82.7855 10.25 82.9722 9.67002C83.1589 9.09002 83.2522 8.43669 83.2522 7.71002Z" fill="#f7f7f7"/>
<path d="M95.0495 9.46002V15H91.6695V9.46002L86.3895 0.43002H89.3695C89.6629 0.43002 89.8929 0.50002 90.0595 0.640019C90.2329 0.773353 90.3762 0.946686 90.4895 1.16002L92.5495 5.40002C92.7229 5.73335 92.8795 6.04669 93.0195 6.34002C93.1595 6.62669 93.2829 6.91002 93.3895 7.19002C93.4895 6.90335 93.6029 6.61669 93.7295 6.33002C93.8629 6.03669 94.0162 5.72669 94.1895 5.40002L96.2295 1.16002C96.2762 1.07335 96.3329 0.986686 96.3995 0.900019C96.4662 0.813352 96.5429 0.736686 96.6295 0.670019C96.7229 0.596686 96.8262 0.540019 96.9395 0.50002C97.0595 0.453353 97.1895 0.43002 97.3295 0.43002H100.33L95.0495 9.46002Z" fill="#f7f7f7"/>
<path d="M99.445 13.43C99.445 13.19 99.4883 12.9667 99.575 12.76C99.6683 12.5534 99.7917 12.3734 99.945 12.22C100.105 12.0667 100.292 11.9467 100.505 11.86C100.718 11.7667 100.952 11.72 101.205 11.72C101.452 11.72 101.682 11.7667 101.895 11.86C102.108 11.9467 102.295 12.0667 102.455 12.22C102.615 12.3734 102.738 12.5534 102.825 12.76C102.918 12.9667 102.965 13.19 102.965 13.43C102.965 13.67 102.918 13.8967 102.825 14.11C102.738 14.3167 102.615 14.4967 102.455 14.65C102.295 14.8034 102.108 14.9234 101.895 15.01C101.682 15.0967 101.452 15.14 101.205 15.14C100.952 15.14 100.718 15.0967 100.505 15.01C100.292 14.9234 100.105 14.8034 99.945 14.65C99.7917 14.4967 99.6683 14.3167 99.575 14.11C99.4883 13.8967 99.445 13.67 99.445 13.43Z" fill="#f7f7f7"/>
<path d="M108.69 6.33002H109.23C109.73 6.33002 110.09 6.17335 110.31 5.86002L113.59 1.10002C113.783 0.846686 113.99 0.673353 114.21 0.58002C114.437 0.48002 114.717 0.43002 115.05 0.43002H117.99L113.67 6.32002C113.363 6.72669 113.033 7.02002 112.68 7.20002C112.933 7.29335 113.163 7.42335 113.37 7.59002C113.577 7.75669 113.77 7.97335 113.95 8.24002L118.35 15H115.33C115.137 15 114.97 14.9867 114.83 14.96C114.697 14.9334 114.58 14.8934 114.48 14.84C114.38 14.7867 114.293 14.7234 114.22 14.65C114.147 14.57 114.077 14.48 114.01 14.38L110.71 9.31002C110.59 9.12335 110.437 8.99335 110.25 8.92002C110.07 8.84002 109.823 8.80002 109.51 8.80002H108.69V15H105.31V0.43002H108.69V6.33002Z" fill="#f7f7f7"/>
<path d="M130.061 1.65002C130.061 1.82335 130.031 1.99335 129.971 2.16002C129.918 2.32669 129.841 2.48335 129.741 2.63002L122.901 12.4H129.841V15H118.601V13.7C118.601 13.5467 118.628 13.3967 118.681 13.25C118.735 13.0967 118.808 12.9567 118.901 12.83L125.761 3.03002H119.161V0.43002H130.061V1.65002Z" fill="#f7f7f7"/>
</svg>
